{
copyright = "Copyright (c) 2012 by vernon adams. All rights reserved.";
customParameters = (
{
name = glyphOrder;
value = (
    ".notdef",
    Eth,
    eth,
    Lslash,
    lslash,
    Scaron,
    scaron,
    Yacute,
    yacute,
    Thorn,
    thorn,
    Zcaron,
    zcaron,
    onehalf,
    onequarter,
    threequarters,
    brokenbar,
    minus,
    multiply,
    space,
    exclam,
    quotedbl,
    numbersign,
    dollar,
    percent,
    ampersand,
    quotesingle,
    parenleft,
    parenright,
    asterisk,
    plus,
    comma,
    hyphen,
    period,
    slash,
    zero,
    one,
    two,
    three,
    four,
    five,
    six,
    seven,
    eight,
    nine,
    colon,
    semicolon,
    less,
    equal,
    greater,
    question,
    at,
    A,
    B,
    C,
    D,
    E,
    F,
    G,
    H,
    I,
    J,
    K,
    L,
    M,
    N,
    O,
    P,
    Q,
    R,
    S,
    T,
    U,
    V,
    W,
    X,
    Y,
    Z,
    bracketleft,
    backslash,
    bracketright,
    asciicircum,
    underscore,
    grave,
    a,
    b,
    c,
    d,
    e,
    f,
    g,
    h,
    i,
    j,
    k,
    l,
    m,
    n,
    o,
    p,
    q,
    r,
    s,
    t,
    u,
    v,
    w,
    x,
    y,
    z,
    braceleft,
    bar,
    braceright,
    asciitilde,
    Adieresis,
    Aring,
    Ccedilla,
    Eacute,
    Ntilde,
    Odieresis,
    Udieresis,
    aacute,
    agrave,
    acircumflex,
    adieresis,
    atilde,
    aring,
    ccedilla,
    eacute,
    egrave,
    ecircumflex,
    edieresis,
    iacute,
    igrave,
    icircumflex,
    idieresis,
    ntilde,
    oacute,
    ograve,
    ocircumflex,
    odieresis,
    otilde,
    uacute,
    ugrave,
    ucircumflex,
    udieresis,
    dagger,
    degree,
    cent,
    sterling,
    section,
    bullet,
    paragraph,
    germandbls,
    registered,
    copyright,
    trademark,
    acute,
    dieresis,
    notequal,
    AE,
    Oslash,
    infinity,
    plusminus,
    lessequal,
    greaterequal,
    yen,

glyphs = (
{
glyphname = eth;
lastChange = "2013-01-25 15:14:11 -0800";
layers = (
{
layerId = "E08CDE4C-5D6C-43D8-8149-5F9E51F0B944";
name = "Bold Condensed";
paths = (
{
closed = 1;
nodes = (
"574 1406 LINE",
"684 1344 OFFCURVE",
"766 1271 OFFCURVE",
"826 1163 CURVE",
"620 1163 LINE",
"620 1026 LINE",
"882 1026 LINE",
"906 937 OFFCURVE",
"917 847 OFFCURVE",
"918 733 CURVE",
"918 723 LINE",
"846 838 OFFCURVE",
"725 897 OFFCURVE",
"545 897 CURVE SMOOTH",
"475 897 OFFCURVE",
"412 886 OFFCURVE",
"356 864 CURVE SMOOTH",
"199 802 OFFCURVE",
"88 662 OFFCURVE",
"88 446 CURVE SMOOTH",
"88 380 OFFCURVE",
"99 318 OFFCURVE",
"122 261 CURVE SMOOTH",
"189 93 OFFCURVE",
"347 -23 OFFCURVE",
"581 -23 CURVE SMOOTH",
"662 -23 OFFCURVE",
"734 -8 OFFCURVE",
"798 22 CURVE SMOOTH",
"1006 121 OFFCURVE",
"1093 361 OFFCURVE",
"1093 672 CURVE SMOOTH",
"1093 805 OFFCURVE",
"1075 921 OFFCURVE",
"1045 1026 CURVE",
"1190 1026 LINE",
"1190 1163 LINE",
"993 1163 LINE",
"920 1315 OFFCURVE",
"812 1428 OFFCURVE",
"653 1490 CURVE"
);
},
{
closed = 1;
nodes = (
"742 757 OFFCURVE",
"859 664 OFFCURVE",
"903 536 CURVE",
"903 512 LINE SMOOTH",
"903 290 OFFCURVE",
"798 118 OFFCURVE",
"573 118 CURVE SMOOTH",
"526 118 OFFCURVE",
"484 126 OFFCURVE",
"446 142 CURVE SMOOTH",
"339 188 OFFCURVE",
"264 291 OFFCURVE",
"264 441 CURVE SMOOTH",
"264 638 OFFCURVE",
"373 757 OFFCURVE",
"572 757 CURVE SMOOTH"
);
}
);
width = 1190;
}
);
unicode = 00F0;
},
{
glyphname = Lslash;
lastChange = "2013-01-25 15:14:08 -0800";
layers = (
{
layerId = "E08CDE4C-5D6C-43D8-8149-5F9E51F0B944";
name = "Bold Condensed";
paths = (
{
closed = 1;
nodes = (
"202 1456 LINE",
"202 742 LINE",
"15 626 LINE",
"15 489 LINE",
"202 605 LINE",
"202 0 LINE",
"1073 0 LINE",
"1073 148 LINE",
"374 148 LINE",
"374 712 LINE",
"659 890 LINE",
"659 1027 LINE",
"374 849 LINE",
"374 1456 LINE"
);
}
);
width = 1120;
}
);
unicode = 0141;
},
{
glyphname = lslash;
lastChange = "2013-01-25 15:14:08 -0800";
layers = (
{
layerId = "E08CDE4C-5D6C-43D8-8149-5F9E51F0B944";
name = "Bold Condensed";
paths = (
{
closed = 1;
nodes = (
"168 1492 LINE",
"168 826 LINE",
"0 726 LINE",
"0 589 LINE",
"168 689 LINE",
"168 0 LINE",
"333 0 LINE",
"333 788 LINE",
"504 890 LINE",
"504 1027 LINE",
"333 925 LINE",
"333 1492 LINE"
);
}
);
width = 503;
}
);
unicode = 0142;
},
{
glyphname = Thorn;
lastChange = "2013-01-25 15:14:11 -0800";
layers = (
{
layerId = "E08CDE4C-5D6C-43D8-8149-5F9E51F0B944";
name = "Bold Condensed";
paths = (
{
closed = 1;
nodes = (
"203 1456 LINE",
"203 0 LINE",
"375 0 LINE",
"375 443 LINE",
"597 443 LINE SMOOTH",
"764 443 OFFCURVE",
"913 480 OFFCURVE",
"1018 546 CURVE SMOOTH",
"1121 611 OFFCURVE",
"1200 714 OFFCURVE",
"1200 876 CURVE SMOOTH",
"1200 1231 OFFCURVE",
"899 1312 OFFCURVE",
"544 1312 CURVE SMOOTH",
"375 1312 LINE",
"375 1456 LINE"
);
},
{
closed = 1;
nodes = (
"828 1164 OFFCURVE",
"1016 1114 OFFCURVE",
"1016 874 CURVE SMOOTH",
"1016 825 OFFCURVE",
"1007 782 OFFCURVE",
"988 747 CURVE SMOOTH",
"930 639 OFFCURVE",
"802 592 OFFCURVE",
"636 592 CURVE SMOOTH",
"375 592 LINE",
"375 1164 LINE",
"588 1164 LINE SMOOTH"
);
}
);
width = 1274;
}
);
unicode = 00DE;
},
{
glyphname = thorn;
lastChange = "2013-01-25 15:14:11 -0800";
layers = (
{
layerId = "E08CDE4C-5D6C-43D8-8149-5F9E51F0B944";
name = "Bold Condensed";
paths = (
{
closed = 1;
nodes = (
"158 1455 LINE",
"158 -427 LINE",
"323 -427 LINE",
"323 135 LINE",
"409 30 OFFCURVE",
"524 -23 OFFCURVE",
"668 -23 CURVE SMOOTH",
"747 -23 OFFCURVE",
"815 -8 OFFCURVE",
"874 22 CURVE SMOOTH",
"1037 106 OFFCURVE",
"1139 284 OFFCURVE",
"1139 527 CURVE SMOOTH",
"1139 598 OFFCURVE",
"1129 664 OFFCURVE",
"1110 728 CURVE SMOOTH",
"1054 916 OFFCURVE",
"912 1051 OFFCURVE",
"668 1051 CURVE SMOOTH",
"507 1051 OFFCURVE",
"399 982 OFFCURVE",
"325 882 CURVE",
"325 1455 LINE"
);
},
{
closed = 1;
nodes = (
"875 917 OFFCURVE",
"963 745 OFFCURVE",
"963 521 CURVE SMOOTH",
"963 296 OFFCURVE",
"870 109 OFFCURVE",
"644 109 CURVE SMOOTH",
"592 109 OFFCURVE",
"546 119 OFFCURVE",
"506 138 CURVE SMOOTH",
"389 195 OFFCURVE",
"323 321 OFFCURVE",
"323 494 CURVE SMOOTH",
"323 732 OFFCURVE",
"411 917 OFFCURVE",
"650 917 CURVE SMOOTH"
);
}
);
width = 1239;
}
);
unicode = 00FE;
},
{
glyphname = onehalf;
lastChange = "2013-01-25 15:14:11 -0800";
layers = (
{
layerId = "E08CDE4C-5D6C-43D8-8149-5F9E51F0B944";
name = "Bold Condensed";
paths = (
{
closed = 1;
nodes = (
"568 1436 LINE",
"-337 0 LINE",
"-186 0 LINE",
"717 1436 LINE"
);
},
{
closed = 1;
nodes = (
"797 1440 OFFCURVE",
"702 1370 OFFCURVE",
"659 1270 CURVE",
"744 1192 LINE",
"777 1262 OFFCURVE",
"834 1323 OFFCURVE",
"929 1323 CURVE SMOOTH",
"1008 1323 OFFCURVE",
"1069 1286 OFFCURVE",
"1069 1211 CURVE SMOOTH",
"1069 1183 OFFCURVE",
"1059 1152 OFFCURVE",
"1038 1118 CURVE SMOOTH",
"1017 1084 OFFCURVE",
"989 1047 OFFCURVE",
"952 1006 CURVE SMOOTH",
"863 908 OFFCURVE",
"757 812 OFFCURVE",
"651 715 CURVE",
"651 604 LINE",
"1197 604 LINE",
"1197 722 LINE",
"833 722 LINE",
"925 802 OFFCURVE",
"1018 879 OFFCURVE",
"1092 968 CURVE SMOOTH",
"1146 1033 OFFCURVE",
"1198 1108 OFFCURVE",
"1198 1213 CURVE SMOOTH",
"1198 1248 OFFCURVE",
"1191 1279 OFFCURVE",
"1178 1307 CURVE SMOOTH",
"1139 1388 OFFCURVE",
"1053 1440 OFFCURVE",
"935 1440 CURVE SMOOTH"
);
},
{
closed = 1;
nodes = (
"1966 1412 LINE",
"1914 1381 OFFCURVE",
"1865 1354 OFFCURVE",
"1798 1333 CURVE",
"1797 1203 LINE",
"1847 1222 OFFCURVE",
"1905 1248 OFFCURVE",
"1949 1271 CURVE",
"1949 1168 LINE SMOOTH",
"1949 1116 OFFCURVE",
"1950 1067 OFFCURVE",
"1950 1008 CURVE SMOOTH",
"1950 723 LINE",
"1828 723 LINE",
"1828 604 LINE",
"2193 604 LINE",
"2193 720 LINE",
"2071 720 LINE",
"2071 1427 LINE"
);
}
);
width = 2748;
}
);
unicode = 00BD;
},
{
glyphname = onequarter;
lastChange = "2013-01-25 15:14:08 -0800";
layers = (
{
layerId = "E08CDE4C-5D6C-43D8-8149-5F9E51F0B944";
name = "Bold Condensed";
paths = (
{
closed = 1;
nodes = (
"568 1436 LINE",
"-337 0 LINE",
"-186 0 LINE",
"717 1436 LINE"
);
},
{
closed = 1;
nodes = (
"776 1412 LINE",
"724 1381 OFFCURVE",
"675 1354 OFFCURVE",
"608 1333 CURVE",
"607 1203 LINE",
"657 1222 OFFCURVE",
"715 1248 OFFCURVE",
"759 1271 CURVE",
"759 1168 LINE SMOOTH",
"759 1116 OFFCURVE",
"760 1067 OFFCURVE",
"760 1008 CURVE SMOOTH",
"760 723 LINE",
"638 723 LINE",
"638 604 LINE",
"1003 604 LINE",
"1003 720 LINE",
"881 720 LINE",
"881 1427 LINE"
);
},
{
closed = 1;
nodes = (
"1902 1412 LINE",
"1536 894 LINE",
"1536 803 LINE",
"1914 803 LINE",
"1914 615 LINE",
"2034 615 LINE",
"2034 803 LINE",
"2155 803 LINE",
"2145 910 LINE",
"2036 910 LINE",
"2036 1412 LINE"
);
},
{
closed = 1;
nodes = (
"1914 910 LINE",
"1675 910 LINE",
"1914 1244 LINE"
);
}
);
width = 2455;
}
);
unicode = 00BC;
},
{
glyphname = threequarters;
lastChange = "2013-01-25 15:14:11 -0800";
layers = (
{
layerId = "E08CDE4C-5D6C-43D8-8149-5F9E51F0B944";
name = "Bold Condensed";
paths = (
{
closed = 1;
nodes = (
"568 1436 LINE",
"-337 0 LINE",
"-186 0 LINE",
"717 1436 LINE"
);
},
{
closed = 1;
nodes = (
"751 1441 OFFCURVE",
"658 1394 OFFCURVE",
"603 1340 CURVE",
"661 1244 LINE",
"710 1284 OFFCURVE",
"771 1322 OFFCURVE",
"853 1322 CURVE SMOOTH",
"934 1322 OFFCURVE",
"994 1291 OFFCURVE",
"994 1210 CURVE SMOOTH",
"994 1110 OFFCURVE",
"898 1089 OFFCURVE",
"797 1089 CURVE SMOOTH",
"748 1089 LINE",
"748 970 LINE",
"774 970 LINE SMOOTH",
"783 970 OFFCURVE",
"797 971 OFFCURVE",
"804 971 CURVE SMOOTH",
"917 971 OFFCURVE",
"1019 948 OFFCURVE",
"1019 837 CURVE SMOOTH",
"1019 745 OFFCURVE",
"938 701 OFFCURVE",
"844 701 CURVE SMOOTH",
"779 701 OFFCURVE",
"719 727 OFFCURVE",
"663 779 CURVE",
"603 683 LINE",
"660 626 OFFCURVE",
"742 586 OFFCURVE",
"849 586 CURVE SMOOTH",
"889 586 OFFCURVE",
"928 592 OFFCURVE",
"964 603 CURVE SMOOTH",
"1062 634 OFFCURVE",
"1148 708 OFFCURVE",
"1148 834 CURVE SMOOTH",
"1148 937 OFFCURVE",
"1094 999 OFFCURVE",
"1020 1032 CURVE",
"1082 1065 OFFCURVE",
"1127 1124 OFFCURVE",
"1127 1213 CURVE SMOOTH",
"1127 1250 OFFCURVE",
"1119 1282 OFFCURVE",
"1104 1310 CURVE SMOOTH",
"1062 1388 OFFCURVE",
"974 1441 OFFCURVE",
"855 1441 CURVE SMOOTH"
);
},
{
closed = 1;
nodes = (
"1902 1412 LINE",
"1536 894 LINE",
"1536 803 LINE",
"1914 803 LINE",
"1914 615 LINE",
"2034 615 LINE",
"2034 803 LINE",
"2155 803 LINE",
"2145 910 LINE",
"2036 910 LINE",
"2036 1412 LINE"
);
},
{
closed = 1;
nodes = (
"1914 910 LINE",
"1675 910 LINE",
"1914 1244 LINE"
);
}
);
width = 2455;
}
);
unicode = 00BE;
},
{
glyphname = brokenbar;
lastChange = "2013-01-25 15:14:08 -0800";
layers = (
{
layerId = "E08CDE4C-5D6C-43D8-8149-5F9E51F0B944";
name = "Bold Condensed";
paths = (
{
closed = 1;
nodes = (
"168 393 LINE",
"168 -491 LINE",
"325 -491 LINE",
"325 393 LINE"
);
},
{
closed = 1;
nodes = (
"168 1545 LINE",
"168 677 LINE",
"325 677 LINE",
"325 1545 LINE"
);
}
);
width = 500;
}
);
unicode = 00A6;
},
{
glyphname = minus;
lastChange = "2013-01-25 15:14:08 -0800";
layers = (
{
layerId = "E08CDE4C-5D6C-43D8-8149-5F9E51F0B944";
name = "Bold Condensed";
paths = (
{
closed = 1;
nodes = (
"198 633 LINE",
"198 496 LINE",
"1247 496 LINE",
"1247 633 LINE"
);
}
);
width = 1458;
}
);
unicode = 2212;
},
{
glyphname = multiply;
lastChange = "2013-01-25 15:14:08 -0800";
layers = (
{
layerId = "E08CDE4C-5D6C-43D8-8149-5F9E51F0B944";
name = "Bold Condensed";
paths = (
{
closed = 1;
nodes = (
"722 657 LINE",
"425 954 LINE",
"322 851 LINE",
"618 554 LINE",
"322 257 LINE",
"425 154 LINE",
"722 450 LINE",
"1018 154 LINE",
"1122 258 LINE",
"825 554 LINE",
"1122 850 LINE",
"1018 954 LINE"
);
}
);
width = 1458;
}
);
unicode = 00D7;
},
{
glyphname = exclam;
lastChange = "2013-01-26 16:22:30 -0800";
layers = (
{
layerId = "E08CDE4C-5D6C-43D8-8149-5F9E51F0B944";
name = "Bold Condensed";
paths = (
{
closed = 1;
nodes = (
"214 1451 LINE",
"291 441 LINE",
"401 441 LINE",
"481 1451 LINE"
);
},
{
closed = 1;
nodes = (
"263 299 OFFCURVE",
"198 237 OFFCURVE",
"198 152 CURVE SMOOTH",
"198 64 OFFCURVE",
"262 0 OFFCURVE",
"351 0 CURVE SMOOTH",
"440 0 OFFCURVE",
"505 63 OFFCURVE",
"505 149 CURVE SMOOTH",
"505 236 OFFCURVE",
"441 299 OFFCURVE",
"352 299 CURVE SMOOTH"
);
}
);
width = 737;
}
);
unicode = 0021;
},
{
glyphname = quotedbl;
lastChange = "2013-01-25 15:14:11 -0800";
layers = (
{
layerId = "E08CDE4C-5D6C-43D8-8149-5F9E51F0B944";
name = "Bold Condensed";
paths = (
{
closed = 1;
nodes = (
"114 1451 LINE",
"150 989 LINE",
"281 989 LINE",
"281 1451 LINE"
);
},
{
closed = 1;
nodes = (
"403 1451 LINE",
"439 989 LINE",
"569 989 LINE",
"569 1451 LINE"
);
}
);
width = 720;
}
);
unicode = 0022;
},
{
glyphname = numbersign;
lastChange = "2013-01-25 15:14:08 -0800";
layers = (
{
layerId = "E08CDE4C-5D6C-43D8-8149-5F9E51F0B944";
name = "Bold Condensed";
paths = (
{
closed = 1;
nodes = (
"875 1420 LINE",
"799 1010 LINE",
"538 1010 LINE",
"615 1420 LINE",
"469 1420 LINE",
"390 1010 LINE",
"120 1010 LINE",
"107 886 LINE",
"368 886 LINE",
"351 793 OFFCURVE",
"334 705 OFFCURVE",
"318 611 CURVE",
"53 611 LINE",
"42 485 LINE",
"294 485 LINE",
"210 60 LINE",
"356 60 LINE",
"438 485 LINE",
"699 485 LINE",
"619 60 LINE",
"764 60 LINE",
"847 485 LINE",
"1107 485 LINE",
"1121 611 LINE",
"869 611 LINE",
"920 886 LINE",
"1170 886 LINE",
"1184 1010 LINE",
"943 1010 LINE",
"1021 1420 LINE"
);
},
{
closed = 1;
nodes = (
"724 611 LINE",
"460 611 LINE",
"514 886 LINE",
"775 886 LINE"
);
}
);
width = 1242;
}
);
unicode = 0023;
},
{
glyphname = dollar;
lastChange = "2013-01-25 15:14:11 -0800";
layers = (
{
layerId = "E08CDE4C-5D6C-43D8-8149-5F9E51F0B944";
name = "Bold Condensed";
paths = (
{
closed = 1;
nodes = (
"530 1575 LINE",
"534 1437 LINE",
"421 1428 OFFCURVE",
"325 1377 OFFCURVE",
"259 1315 CURVE SMOOTH",
"195 1254 OFFCURVE",
"137 1164 OFFCURVE",
"137 1047 CURVE SMOOTH",
"137 991 OFFCURVE",
"148 944 OFFCURVE",
"169 904 CURVE SMOOTH",
"240 772 OFFCURVE",
"390 712 OFFCURVE",
"534 648 CURVE",
"531 127 LINE",
"421 132 OFFCURVE",
"325 173 OFFCURVE",
"251 223 CURVE",
"202 89 LINE",
"291 25 OFFCURVE",
"393 -13 OFFCURVE",
"532 -16 CURVE",
"536 -172 LINE",
"659 -172 LINE",
"656 -11 LINE",
"713 -6 OFFCURVE",
"768 5 OFFCURVE",
"819 24 CURVE SMOOTH",
"957 74 OFFCURVE",
"1080 177 OFFCURVE",
"1080 361 CURVE SMOOTH",
"1080 477 OFFCURVE",
"1038 547 OFFCURVE",
"972 604 CURVE SMOOTH",
"888 677 OFFCURVE",
"779 722 OFFCURVE",
"656 770 CURVE",
"658 1299 LINE",
"781 1295 OFFCURVE",
"878 1261 OFFCURVE",
"948 1198 CURVE",
"997 1326 LINE",
"917 1394 OFFCURVE",
"798 1436 OFFCURVE",
"657 1439 CURVE",
"654 1575 LINE"
);
},
{
closed = 1;
nodes = (
"765 559 OFFCURVE",
"901 507 OFFCURVE",
"901 358 CURVE SMOOTH",
"901 325 OFFCURVE",
"894 296 OFFCURVE",
"881 270 CURVE SMOOTH",
"841 192 OFFCURVE",
"758 145 OFFCURVE",
"654 131 CURVE",
"658 605 LINE"
);
},
{
closed = 1;
nodes = (
"532 818 LINE",
"425 858 OFFCURVE",
"326 913 OFFCURVE",
"326 1059 CURVE SMOOTH",
"326 1193 OFFCURVE",
"414 1278 OFFCURVE",
"534 1293 CURVE"
);
}
);
width = 1190;
}
);
unicode = 0024;
},
{
glyphname = percent;
lastChange = "2013-01-25 15:14:11 -0800";
layers = (
{
layerId = "E08CDE4C-5D6C-43D8-8149-5F9E51F0B944";
name = "Bold Condensed";
paths = (
{
closed = 1;
nodes = (
"1344 1436 LINE",
"440 -5 LINE",
"594 -5 LINE",
"1499 1436 LINE"
);
},
{
closed = 1;
nodes = (
"471 1447 OFFCURVE",
"421 1438 OFFCURVE",
"377 1418 CURVE SMOOTH",
"253 1363 OFFCURVE",
"168 1240 OFFCURVE",
"168 1064 CURVE SMOOTH",
"168 1011 OFFCURVE",
"176 961 OFFCURVE",
"192 915 CURVE SMOOTH",
"237 783 OFFCURVE",
"344 686 OFFCURVE",
"520 686 CURVE SMOOTH",
"575 686 OFFCURVE",
"624 696 OFFCURVE",
"668 716 CURVE SMOOTH",
"791 772 OFFCURVE",
"877 892 OFFCURVE",
"877 1068 CURVE SMOOTH",
"877 1294 OFFCURVE",
"753 1447 OFFCURVE",
"526 1447 CURVE SMOOTH"
);
},
{
closed = 1;
nodes = (
"560 1335 OFFCURVE",
"592 1328 OFFCURVE",
"618 1314 CURVE SMOOTH",
"695 1273 OFFCURVE",
"734 1186 OFFCURVE",
"734 1069 CURVE SMOOTH",
"734 923 OFFCURVE",
"670 799 OFFCURVE",
"524 799 CURVE SMOOTH",
"376 799 OFFCURVE",
"312 917 OFFCURVE",
"312 1065 CURVE SMOOTH",
"312 1212 OFFCURVE",
"377 1335 OFFCURVE",
"525 1335 CURVE SMOOTH"
);
},
{
closed = 1;
nodes = (
"1400 735 OFFCURVE",
"1350 725 OFFCURVE",
"1306 705 CURVE SMOOTH",
"1182 649 OFFCURVE",
"1097 528 OFFCURVE",
"1097 351 CURVE SMOOTH",
"1097 298 OFFCURVE",
"1105 248 OFFCURVE",
"1121 202 CURVE SMOOTH",
"1167 70 OFFCURVE",
"1273 -27 OFFCURVE",
"1449 -27 CURVE SMOOTH",
"1504 -27 OFFCURVE",
"1553 -17 OFFCURVE",
"1597 3 CURVE SMOOTH",
"1720 59 OFFCURVE",
"1806 180 OFFCURVE",
"1806 356 CURVE SMOOTH",
"1806 582 OFFCURVE",
"1682 735 OFFCURVE",
"1455 735 CURVE SMOOTH"
);
},
{
closed = 1;
nodes = (
"1600 622 OFFCURVE",
"1662 504 OFFCURVE",
"1662 357 CURVE SMOOTH",
"1662 211 OFFCURVE",
"1599 86 OFFCURVE",
"1452 86 CURVE SMOOTH",
"1416 86 OFFCURVE",
"1384 93 OFFCURVE",
"1358 107 CURVE SMOOTH",
"1281 148 OFFCURVE",
"1241 234 OFFCURVE",
"1241 350 CURVE SMOOTH",
"1241 497 OFFCURVE",
"1306 622 OFFCURVE",
"1454 622 CURVE SMOOTH"
);
}
);
width = 1985;
}
);
unicode = 0025;
},
{
glyphname = ampersand;
lastChange = "2013-01-25 15:14:11 -0800";
layers = (
{
layerId = "E08CDE4C-5D6C-43D8-8149-5F9E51F0B944";
name = "Bold Condensed";
paths = (
{
closed = 1;
nodes = (
"462 1473 OFFCURVE",
"299 1381 OFFCURVE",
"299 1182 CURVE SMOOTH",
"299 1147 OFFCURVE",
"304 1115 OFFCURVE",
"315 1086 CURVE SMOOTH",
"351 988 OFFCURVE",
"425 921 OFFCURVE",
"494 852 CURVE",
"400 802 OFFCURVE",
"304 744 OFFCURVE",
"233 672 CURVE SMOOTH",
"169 607 OFFCURVE",
"115 523 OFFCURVE",
"115 402 CURVE SMOOTH",
"115 334 OFFCURVE",
"128 273 OFFCURVE",
"156 220 CURVE SMOOTH",
"239 62 OFFCURVE",
"421 -27 OFFCURVE",
"661 -27 CURVE SMOOTH",
"894 -27 OFFCURVE",
"1047 70 OFFCURVE",
"1166 186 CURVE",
"1256 100 OFFCURVE",
"1338 10 OFFCURVE",
"1486 -12 CURVE",
"1618 86 LINE",
"1576 95 OFFCURVE",
"1539 104 OFFCURVE",
"1508 114 CURVE SMOOTH",
"1399 150 OFFCURVE",
"1334 208 OFFCURVE",
"1260 284 CURVE",
"1371 427 OFFCURVE",
"1454 625 OFFCURVE",
"1463 863 CURVE",
"1296 884 LINE",
"1296 842 OFFCURVE",
"1292 800 OFFCURVE",
"1285 756 CURVE SMOOTH",
"1262 618 OFFCURVE",
"1211 493 OFFCURVE",
"1144 398 CURVE",
"729 822 LINE",
"807 864 OFFCURVE",
"885 915 OFFCURVE",
"942 977 CURVE SMOOTH",
"990 1029 OFFCURVE",
"1036 1096 OFFCURVE",
"1036 1188 CURVE SMOOTH",
"1036 1237 OFFCURVE",
"1026 1278 OFFCURVE",
"1004 1314 CURVE SMOOTH",
"943 1414 OFFCURVE",
"820 1473 OFFCURVE",
"661 1473 CURVE SMOOTH"
);
},
{
closed = 1;
nodes = (
"823 523 LINE SMOOTH",
"892 454 OFFCURVE",
"967 375 OFFCURVE",
"1034 311 CURVE SMOOTH",
"1048 298 OFFCURVE",
"1056 291 OFFCURVE",
"1058 291 CURVE",
"961 197 OFFCURVE",
"848 116 OFFCURVE",
"658 116 CURVE SMOOTH",
"605 116 OFFCURVE",
"556 123 OFFCURVE",
"512 138 CURVE SMOOTH",
"398 176 OFFCURVE",
"295 259 OFFCURVE",
"295 406 CURVE SMOOTH",
"295 449 OFFCURVE",
"303 488 OFFCURVE",
"320 522 CURVE SMOOTH",
"374 632 OFFCURVE",
"485 694 OFFCURVE",
"594 750 CURVE"
);
},
{
closed = 1;
nodes = (
"777 1340 OFFCURVE",
"865 1287 OFFCURVE",
"865 1178 CURVE SMOOTH",
"865 1150 OFFCURVE",
"858 1124 OFFCURVE",
"844 1099 CURVE SMOOTH",
"799 1017 OFFCURVE",
"710 963 OFFCURVE",
"625 918 CURVE",
"602 939 OFFCURVE",
"582 959 OFFCURVE",
"563 979 CURVE SMOOTH",
"517 1028 OFFCURVE",
"472 1087 OFFCURVE",
"472 1178 CURVE SMOOTH",
"472 1288 OFFCURVE",
"559 1340 OFFCURVE",
"669 1340 CURVE SMOOTH"
);
}
);
width = 1647;
}
);
unicode = 0026;
},
{
glyphname = quotesingle;
lastChange = "2013-01-25 15:14:11 -0800";
layers = (
{
layerId = "E08CDE4C-5D6C-43D8-8149-5F9E51F0B944";
name = "Bold Condensed";
paths = (
{
closed = 1;
nodes = (
"176 1451 LINE",
"212 989 LINE",
"342 989 LINE",
"342 1451 LINE"
);
}
);
width = 554;
}
);
unicode = 0027;
},
{
glyphname = parenleft;
lastChange = "2013-01-26 16:22:30 -0800";
layers = (
{
layerId = "E08CDE4C-5D6C-43D8-8149-5F9E51F0B944";
name = "Bold Condensed";
paths = (
{
closed = 1;
nodes = (
"132 1201 OFFCURVE",
"42 931 OFFCURVE",
"42 662 CURVE SMOOTH",
"42 400 OFFCURVE",
"127 138 OFFCURVE",
"299 -179 CURVE",
"523 -179 LINE",
"376 138 OFFCURVE",
"304 399 OFFCURVE",
"304 660 CURVE SMOOTH",
"304 930 OFFCURVE",
"382 1200 OFFCURVE",
"533 1531 CURVE",
"309 1531 LINE"
);
}
);
width = 628;
}
);
unicode = 0028;
},
{
glyphname = parenright;
lastChange = "2013-01-26 16:22:30 -0800";
layers = (
{
layerId = "E08CDE4C-5D6C-43D8-8149-5F9E51F0B944";
name = "Bold Condensed";
paths = (
{
closed = 1;
nodes = (
"42 1531 LINE",
"193 1200 OFFCURVE",
"271 930 OFFCURVE",
"271 660 CURVE SMOOTH",
"271 399 OFFCURVE",
"199 138 OFFCURVE",
"52 -179 CURVE",
"276 -179 LINE",
"448 138 OFFCURVE",
"533 400 OFFCURVE",
"533 662 CURVE SMOOTH",
"533 931 OFFCURVE",
"443 1201 OFFCURVE",
"266 1531 CURVE"
);
}
);
width = 628;
}
);
unicode = 0029;
},
{
glyphname = asterisk;
lastChange = "2013-01-25 15:14:08 -0800";
layers = (
{
layerId = "E08CDE4C-5D6C-43D8-8149-5F9E51F0B944";
name = "Bold Condensed";
paths = (
{
closed = 1;
nodes = (
"439 1451 LINE",
"452 1351 OFFCURVE",
"467 1248 OFFCURVE",
"480 1148 CURVE",
"196 1271 LINE",
"175 1136 LINE",
"448 1058 LINE",
"257 820 LINE",
"381 745 LINE",
"534 1003 LINE",
"692 737 LINE",
"818 810 LINE",
"617 1061 LINE",
"880 1149 LINE",
"816 1274 LINE",
"581 1153 LINE",
"581 1451 LINE"
);
}
);
width = 1065;
}
);
unicode = 002A;
},
{
glyphname = plus;
lastChange = "2013-01-25 15:14:08 -0800";
layers = (
{
layerId = "E08CDE4C-5D6C-43D8-8149-5F9E51F0B944";
name = "Bold Condensed";
paths = (
{
closed = 1;
nodes = (
"649 1047 LINE",
"649 624 LINE",
"198 624 LINE",
"198 485 LINE",
"646 485 LINE",
"646 62 LINE",
"795 62 LINE",
"795 485 LINE",
"1246 485 LINE",
"1246 624 LINE",
"797 624 LINE",
"797 1047 LINE"
);
}
);
width = 1458;
}
);
unicode = 002B;
},
{
glyphname = comma;
lastChange = "2013-01-25 15:14:08 -0800";
layers = (
{
layerId = "E08CDE4C-5D6C-43D8-8149-5F9E51F0B944";
name = "Bold Condensed";
paths = (
{
closed = 1;
nodes = (
"185 207 LINE",
"78 -256 LINE",
"209 -256 LINE",
"372 207 LINE"
);
}
);
width = 540;
}
);
unicode = 002C;
},
{
glyphname = hyphen;
lastChange = "2013-01-25 15:14:08 -0800";
layers = (
{
layerId = "E08CDE4C-5D6C-43D8-8149-5F9E51F0B944";
name = "Bold Condensed";
paths = (
{
closed = 1;
nodes = (
"79 626 LINE",
"79 489 LINE",
"651 489 LINE",
"651 626 LINE"
);
}
);
width = 728;
}
);
unicode = 002D;
},
{
glyphname = period;
lastChange = "2013-01-25 15:14:08 -0800";
layers = (
{
layerId = "E08CDE4C-5D6C-43D8-8149-5F9E51F0B944";
name = "Bold Condensed";
paths = (
{
closed = 1;
nodes = (
"155 323 OFFCURVE",
"86 257 OFFCURVE",
"86 164 CURVE SMOOTH",
"86 68 OFFCURVE",
"154 0 OFFCURVE",
"251 0 CURVE SMOOTH",
"348 0 OFFCURVE",
"417 67 OFFCURVE",
"417 161 CURVE SMOOTH",
"417 256 OFFCURVE",
"349 323 OFFCURVE",
"252 323 CURVE SMOOTH"
);
}
);
width = 540;
}
);
unicode = 002E;
},
{
glyphname = slash;
lastChange = "2013-01-25 15:14:08 -0800";
layers = (
{
layerId = "E08CDE4C-5D6C-43D8-8149-5F9E51F0B944";
name = "Bold Condensed";
paths = (
{
closed = 1;
nodes = (
"590 1451 LINE",
"-47 -215 LINE",
"116 -215 LINE",
"757 1451 LINE"
);
}
);
width = 717;
}
);
unicode = 002F;
},
{
glyphname = zero;
lastChange = "2013-01-26 16:22:30 -0800";
layers = (
{
layerId = "E08CDE4C-5D6C-43D8-8149-5F9E51F0B944";
name = "Bold Condensed";
paths = (
{
closed = 1;
nodes = (
"263 1453 OFFCURVE",
"33 1156 OFFCURVE",
"33 710 CURVE SMOOTH",
"33 270 OFFCURVE",
"263 -23 OFFCURVE",
"607 -23 CURVE SMOOTH",
"954 -23 OFFCURVE",
"1186 270 OFFCURVE",
"1186 710 CURVE SMOOTH",
"1186 1156 OFFCURVE",
"954 1453 OFFCURVE",
"607 1453 CURVE SMOOTH"
);
},
{
closed = 1;
nodes = (
"786 1233 OFFCURVE",
"905 1024 OFFCURVE",
"905 710 CURVE SMOOTH",
"905 402 OFFCURVE",
"786 197 OFFCURVE",
"607 197 CURVE SMOOTH",
"427 197 OFFCURVE",
"307 402 OFFCURVE",
"307 710 CURVE SMOOTH",
"307 1024 OFFCURVE",
"427 1233 OFFCURVE",
"607 1233 CURVE SMOOTH"
);
}
);
width = 1219;
}
);
unicode = 0030;
},
{
glyphname = one;
lastChange = "2013-01-26 16:22:30 -0800";
layers = (
{
layerId = "E08CDE4C-5D6C-43D8-8149-5F9E51F0B944";
name = "Bold Condensed";
paths = (
{
closed = 1;
nodes = (
"559 1436 LINE",
"491 1385 OFFCURVE",
"349 1302 OFFCURVE",
"233 1249 CURVE",
"294 1078 LINE",
"400 1122 OFFCURVE",
"486 1170 OFFCURVE",
"552 1220 CURVE",
"552 0 LINE",
"822 0 LINE",
"822 1438 LINE"
);
}
);
width = 1190;
}
);
unicode = 0031;
},
{
glyphname = two;
lastChange = "2013-01-26 16:22:30 -0800";
layers = (
{
guideLines = (
{
angle = 0;
position = "{169, 1488}";
},
{
angle = 0;
position = "{999, 1272}";
}
);
layerId = "E08CDE4C-5D6C-43D8-8149-5F9E51F0B944";
name = "Bold Condensed";
paths = (
{
closed = 1;
nodes = (
"833 1488 OFFCURVE",
"578 1488 CURVE SMOOTH",
"361 1488 OFFCURVE",
"141 1394 OFFCURVE",
"63 1215 CURVE",
"230 1078 LINE",
"304 1205 OFFCURVE",
"442 1266 OFFCURVE",
"563 1266 CURVE SMOOTH",
"690 1266 OFFCURVE",
"798 1200 OFFCURVE",
"798 1054 CURVE SMOOTH",
"798 749 OFFCURVE",
"317 397 OFFCURVE",
"98 198 CURVE",
"99 0 LINE",
"1035 0 LINE",
"1035 216 LINE",
"455 216 LINE",
"587 338 OFFCURVE",
"1082 686 OFFCURVE",
"1082 1056 CURVE SMOOTH",
"1082 1356 OFFCURVE"
);
}
);
width = 1248;
}
);
unicode = 0032;
},
{
glyphname = three;
lastChange = "2013-01-26 16:22:30 -0800";
layers = (
{
guideLines = (
{
angle = 0;
position = "{1236, 1487}";
},
{
angle = 0;
position = "{843, 1267}";
},
{
angle = 0;
position = "{559, -22}";
},
{
angle = 0;
position = "{525, 197}";
}
);
layerId = "E08CDE4C-5D6C-43D8-8149-5F9E51F0B944";
name = "Bold Condensed";
paths = (
{
closed = 1;
nodes = (
"792 1486 OFFCURVE",
"554 1486 CURVE SMOOTH",
"381 1486 OFFCURVE",
"197 1417 OFFCURVE",
"81 1282 CURVE",
"219 1128 LINE",
"294 1220 OFFCURVE",
"415 1266 OFFCURVE",
"526 1266 CURVE SMOOTH",
"654 1266 OFFCURVE",
"777 1204 OFFCURVE",
"777 1057 CURVE",
"777 867 OFFCURVE",
"578 851 OFFCURVE",
"446 851 CURVE SMOOTH",
"383 851 LINE",
"385 642 LINE",
"462 644 LINE",
"462 645 LINE",
"474 645 OFFCURVE",
"486 646 OFFCURVE",
"498 646 CURVE SMOOTH",
"668 646 OFFCURVE",
"821 602 OFFCURVE",
"821 395 CURVE SMOOTH",
"821 285 OFFCURVE",
"715 196 OFFCURVE",
"566 196 CURVE SMOOTH",
"456 196 OFFCURVE",
"324 244 OFFCURVE",
"191 365 CURVE",
"98 184 LINE",
"197 48 OFFCURVE",
"378 -21 OFFCURVE",
"556 -21 CURVE SMOOTH",
"806 -21 OFFCURVE",
"1049 115 OFFCURVE",
"1049 392 CURVE SMOOTH",
"1049 645 OFFCURVE",
"880 740 OFFCURVE",
"801 766 CURVE",
"876 803 OFFCURVE",
"1010 889 OFFCURVE",
"1010 1086 CURVE SMOOTH",
"1010 1356 OFFCURVE"
);
}
);
width = 1190;
}
);
unicode = 0033;
},
{
glyphname = four;
lastChange = "2013-01-26 16:22:30 -0800";
layers = (
{
layerId = "E08CDE4C-5D6C-43D8-8149-5F9E51F0B944";
name = "Bold Condensed";
paths = (
{
closed = 1;
nodes = (
"670 1420 LINE",
"25 515 LINE",
"25 323 LINE",
"696 323 LINE",
"696 0 LINE",
"956 0 LINE",
"956 323 LINE",
"1142 323 LINE",
"1142 523 LINE",
"956 523 LINE",
"956 1420 LINE"
);
},
{
closed = 1;
nodes = (
"696 523 LINE",
"286 523 LINE",
"588 956 LINE",
"696 1132 LINE"
);
}
);
width = 1189;
}
);
unicode = 0034;
},
{
glyphname = five;
lastChange = "2013-01-25 15:14:11 -0800";
layers = (
{
layerId = "E08CDE4C-5D6C-43D8-8149-5F9E51F0B944";
name = "Bold Condensed";
paths = (
{
closed = 1;
nodes = (
"203 1425 LINE",
"203 652 LINE",
"379 658 LINE",
"419 718 OFFCURVE",
"495 758 OFFCURVE",
"593 758 CURVE SMOOTH",
"641 758 OFFCURVE",
"684 750 OFFCURVE",
"721 734 CURVE SMOOTH",
"823 690 OFFCURVE",
"891 595 OFFCURVE",
"891 452 CURVE SMOOTH",
"891 407 OFFCURVE",
"883 364 OFFCURVE",
"868 324 CURVE SMOOTH",
"823 202 OFFCURVE",
"713 119 OFFCURVE",
"546 119 CURVE SMOOTH",
"396 119 OFFCURVE",
"295 190 OFFCURVE",
"228 289 CURVE",
"147 173 LINE",
"223 55 OFFCURVE",
"357 -23 OFFCURVE",
"548 -23 CURVE SMOOTH",
"629 -23 OFFCURVE",
"702 -10 OFFCURVE",
"766 14 CURVE SMOOTH",
"936 78 OFFCURVE",
"1068 220 OFFCURVE",
"1068 449 CURVE SMOOTH",
"1068 514 OFFCURVE",
"1058 574 OFFCURVE",
"1036 630 CURVE SMOOTH",
"972 793 OFFCURVE",
"824 905 OFFCURVE",
"599 905 CURVE SMOOTH",
"496 905 OFFCURVE",
"421 879 OFFCURVE",
"352 839 CURVE",
"366 1280 LINE",
"994 1280 LINE",
"994 1425 LINE"
);
}
);
width = 1190;
}
);
unicode = 0035;
},
{
glyphname = six;
lastChange = "2013-01-26 16:22:30 -0800";
layers = (
{
guideLines = (
{
angle = 0;
position = "{-81, -19}";
}
);
layerId = "E08CDE4C-5D6C-43D8-8149-5F9E51F0B944";
name = "Bold Condensed";
paths = (
{
closed = 1;
nodes = (
"872 1481 LINE",
"664 1594 LINE",
"286 960 LINE",
"203 821 OFFCURVE",
"107 603 OFFCURVE",
"107 477 CURVE SMOOTH",
"107 146 OFFCURVE",
"366 -20 OFFCURVE",
"624 -20 CURVE SMOOTH",
"880 -20 OFFCURVE",
"1134 143 OFFCURVE",
"1134 473 CURVE SMOOTH",
"1134 740 OFFCURVE",
"927 953 OFFCURVE",
"646 953 CURVE SMOOTH",
"512 953 OFFCURVE",
"547 930 OFFCURVE",
"539 924 CURVE"
);
},
{
closed = 1;
nodes = (
"755 184 OFFCURVE",
"614 184 CURVE SMOOTH",
"471 184 OFFCURVE",
"328 277 OFFCURVE",
"328 460 CURVE SMOOTH",
"328 658 OFFCURVE",
"468 756 OFFCURVE",
"609 756 CURVE SMOOTH",
"752 756 OFFCURVE",
"896 655 OFFCURVE",
"896 458 CURVE SMOOTH",
"896 275 OFFCURVE"
);
}
);
width = 1248;
}
);
unicode = 0036;
},
{
glyphname = seven;
lastChange = "2013-01-26 16:22:30 -0800";
layers = (
{
layerId = "E08CDE4C-5D6C-43D8-8149-5F9E51F0B944";
name = "Bold Condensed";
paths = (
{
closed = 1;
nodes = (
"117 1420 LINE",
"117 1220 LINE",
"821 1220 LINE",
"285 0 LINE",
"558 0 LINE",
"1087 1239 LINE",
"1087 1420 LINE"
);
}
);
width = 1196;
}
);
unicode = 0037;
},
{
glyphname = eight;
lastChange = "2013-01-25 15:14:08 -0800";
layers = (
{
layerId = "E08CDE4C-5D6C-43D8-8149-5F9E51F0B944";
name = "Bold Condensed";
paths = (
{
closed = 1;
nodes = (
"534 1453 OFFCURVE",
"475 1444 OFFCURVE",
"419 1428 CURVE SMOOTH",
"270 1384 OFFCURVE",
"139 1280 OFFCURVE",
"139 1091 CURVE SMOOTH",
"139 898 OFFCURVE",
"262 796 OFFCURVE",
"420 747 CURVE",
"241 694 OFFCURVE",
"104 580 OFFCURVE",
"104 367 CURVE SMOOTH",
"104 304 OFFCURVE",
"118 248 OFFCURVE",
"145 200 CURVE SMOOTH",
"222 62 OFFCURVE",
"385 -23 OFFCURVE",
"598 -23 CURVE SMOOTH",
"737 -23 OFFCURVE",
"859 17 OFFCURVE",
"943 78 CURVE SMOOTH",
"1026 138 OFFCURVE",
"1092 230 OFFCURVE",
"1092 367 CURVE SMOOTH",
"1092 580 OFFCURVE",
"955 694 OFFCURVE",
"776 747 CURVE",
"934 796 OFFCURVE",
"1057 898 OFFCURVE",
"1057 1091 CURVE SMOOTH",
"1057 1148 OFFCURVE",
"1045 1199 OFFCURVE",
"1021 1244 CURVE SMOOTH",
"951 1376 OFFCURVE",
"799 1453 OFFCURVE",
"598 1453 CURVE SMOOTH"
);
},
{
closed = 1;
nodes = (
"755 641 OFFCURVE",
"915 567 OFFCURVE",
"915 380 CURVE SMOOTH",
"915 337 OFFCURVE",
"907 300 OFFCURVE",
"891 268 CURVE SMOOTH",
"844 172 OFFCURVE",
"740 119 OFFCURVE",
"598 119 CURVE SMOOTH",
"418 119 OFFCURVE",
"281 201 OFFCURVE",
"281 380 CURVE SMOOTH",
"281 421 OFFCURVE",
"289 457 OFFCURVE",
"305 489 CURVE SMOOTH",
"356 592 OFFCURVE",
"468 647 OFFCURVE",
"598 673 CURVE"
);
},
{
closed = 1;
nodes = (
"754 1317 OFFCURVE",
"885 1242 OFFCURVE",
"885 1086 CURVE SMOOTH",
"885 917 OFFCURVE",
"755 849 OFFCURVE",
"598 820 CURVE",
"441 849 OFFCURVE",
"311 917 OFFCURVE",
"311 1086 CURVE SMOOTH",
"311 1123 OFFCURVE",
"319 1156 OFFCURVE",
"334 1185 CURVE SMOOTH",
"378 1268 OFFCURVE",
"473 1317 OFFCURVE",
"598 1317 CURVE SMOOTH"
);
}
);
width = 1196;
}
);
unicode = 0038;
},
{
glyphname = nine;
lastChange = "2013-01-26 16:22:30 -0800";
layers = (
{
guideLines = (
{
angle = 0;
position = "{205, 1489}";
},
{
angle = 0;
position = "{393, 1268}";
}
);
layerId = "E08CDE4C-5D6C-43D8-8149-5F9E51F0B944";
name = "Bold Condensed";
paths = (
{
closed = 1;
nodes = (
"369 -13 LINE",
"577 -126 LINE",
"955 508 LINE SMOOTH",
"1038 647 OFFCURVE",
"1134 865 OFFCURVE",
"1134 991 CURVE SMOOTH",
"1134 1322 OFFCURVE",
"875 1488 OFFCURVE",
"617 1488 CURVE SMOOTH",
"361 1488 OFFCURVE",
"107 1325 OFFCURVE",
"107 995 CURVE SMOOTH",
"107 728 OFFCURVE",
"314 515 OFFCURVE",
"595 515 CURVE SMOOTH",
"729 515 OFFCURVE",
"694 538 OFFCURVE",
"702 544 CURVE"
);
},
{
closed = 1;
nodes = (
"486 1284 OFFCURVE",
"627 1284 CURVE SMOOTH",
"770 1284 OFFCURVE",
"913 1191 OFFCURVE",
"913 1008 CURVE SMOOTH",
"913 810 OFFCURVE",
"773 712 OFFCURVE",
"632 712 CURVE SMOOTH",
"489 712 OFFCURVE",
"345 813 OFFCURVE",
"345 1010 CURVE SMOOTH",
"345 1193 OFFCURVE"
);
}
);
width = 1248;
}
);
unicode = 0039;
},
{
glyphname = colon;
lastChange = "2013-01-25 15:14:08 -0800";
layers = (
{
layerId = "E08CDE4C-5D6C-43D8-8149-5F9E51F0B944";
name = "Bold Condensed";
paths = (
{
closed = 1;
nodes = (
"159 1051 LINE",
"159 841 LINE",
"376 841 LINE",
"376 1051 LINE"
);
},
{
closed = 1;
nodes = (
"159 199 LINE",
"159 -11 LINE",
"376 -11 LINE",
"376 199 LINE"
);
}
);
width = 540;
}
);
unicode = 003A;
},
{
glyphname = semicolon;
lastChange = "2013-01-25 15:14:11 -0800";
layers = (
{
layerId = "E08CDE4C-5D6C-43D8-8149-5F9E51F0B944";
name = "Bold Condensed";
paths = (
{
closed = 1;
nodes = (
"206 207 LINE",
"100 -256 LINE",
"231 -256 LINE",
"394 207 LINE"
);
},
{
closed = 1;
nodes = (
"206 1051 LINE",
"159 841 LINE",
"376 841 LINE",
"376 1051 LINE"
);
}
);
width = 540;
}
);
unicode = 003B;
},
{
glyphname = less;
lastChange = "2013-01-25 15:14:08 -0800";
layers = (
{
layerId = "E08CDE4C-5D6C-43D8-8149-5F9E51F0B944";
name = "Bold Condensed";
paths = (
{
closed = 1;
nodes = (
"219 595 LINE",
"219 508 LINE",
"1223 48 LINE",
"1223 200 LINE",
"438 552 LINE",
"1227 914 LINE",
"1227 1067 LINE"
);
}
);
width = 1458;
}
);
unicode = 003C;
},
{
glyphname = equal;
lastChange = "2013-01-25 15:14:08 -0800";
layers = (
{
layerId = "E08CDE4C-5D6C-43D8-8149-5F9E51F0B944";
name = "Bold Condensed";
paths = (
{
closed = 1;
nodes = (
"197 827 LINE",
"197 689 LINE",
"1246 689 LINE",
"1246 827 LINE"
);
},
{
closed = 1;
nodes = (
"198 420 LINE",
"198 283 LINE",
"1247 283 LINE",
"1247 420 LINE"
);
}
);
width = 1458;
}
);
unicode = 003D;
},
{
glyphname = greater;
lastChange = "2013-01-25 15:14:08 -0800";
layers = (
{
layerId = "E08CDE4C-5D6C-43D8-8149-5F9E51F0B944";
name = "Bold Condensed";
paths = (
{
closed = 1;
nodes = (
"220 926 LINE",
"1004 555 LINE",
"215 212 LINE",
"215 58 LINE",
"1225 505 LINE",
"1225 594 LINE",
"220 1078 LINE"
);
}
);
width = 1458;
}
);
unicode = 003E;
},
{
glyphname = question;
lastChange = "2013-01-26 16:22:30 -0800";
layers = (
{
layerId = "E08CDE4C-5D6C-43D8-8149-5F9E51F0B944";
name = "Bold Condensed";
paths = (
{
closed = 1;
nodes = (
"724 1479 OFFCURVE",
"503 1479 CURVE SMOOTH",
"399 1479 OFFCURVE",
"287 1456 OFFCURVE",
"183 1413 CURVE",
"213 1247 LINE",
"288 1289 OFFCURVE",
"380 1316 OFFCURVE",
"463 1316 CURVE SMOOTH",
"586 1316 OFFCURVE",
"690 1258 OFFCURVE",
"690 1105 CURVE SMOOTH",
"690 895 OFFCURVE",
"355 850 OFFCURVE",
"355 410 CURVE SMOOTH",
"355 396 OFFCURVE",
"355 382 OFFCURVE",
"356 368 CURVE",
"470 368 LINE",
"470 742 OFFCURVE",
"909 775 OFFCURVE",
"909 1133 CURVE SMOOTH",
"909 1374 OFFCURVE"
);
},
{
closed = 1;
nodes = (
"320 299 OFFCURVE",
"255 237 OFFCURVE",
"255 152 CURVE SMOOTH",
"255 64 OFFCURVE",
"319 0 OFFCURVE",
"408 0 CURVE SMOOTH",
"497 0 OFFCURVE",
"562 63 OFFCURVE",
"562 149 CURVE SMOOTH",
"562 236 OFFCURVE",
"498 299 OFFCURVE",
"409 299 CURVE SMOOTH"
);
}
);
width = 1032;
}
);
unicode = 003F;
},
{
glyphname = at;
lastChange = "2013-01-25 15:14:11 -0800";
layers = (
{
layerId = "E08CDE4C-5D6C-43D8-8149-5F9E51F0B944";
name = "Bold Condensed";
paths = (
{
closed = 1;
nodes = (
"709 1476 OFFCURVE",
"513 1377 OFFCURVE",
"374 1246 CURVE SMOOTH",
"239 1119 OFFCURVE",
"130 935 OFFCURVE",
"130 679 CURVE SMOOTH",
"130 432 OFFCURVE",
"232 243 OFFCURVE",
"366 116 CURVE SMOOTH",
"504 -14 OFFCURVE",
"709 -109 OFFCURVE",
"967 -109 CURVE SMOOTH",
"1230 -109 OFFCURVE",
"1438 -17 OFFCURVE",
"1566 122 CURVE",
"1486 192 LINE",
"1362 86 OFFCURVE",
"1190 12 OFFCURVE",
"972 12 CURVE SMOOTH",
"753 12 OFFCURVE",
"585 90 OFFCURVE",
"471 202 CURVE SMOOTH",
"361 310 OFFCURVE",
"281 470 OFFCURVE",
"281 677 CURVE SMOOTH",
"281 884 OFFCURVE",
"367 1048 OFFCURVE",
"476 1158 CURVE SMOOTH",
"587 1270 OFFCURVE",
"753 1357 OFFCURVE",
"966 1357 CURVE SMOOTH",
"1162 1357 OFFCURVE",
"1321 1294 OFFCURVE",
"1428 1200 CURVE SMOOTH",
"1529 1111 OFFCURVE",
"1607 976 OFFCURVE",
"1607 796 CURVE SMOOTH",
"1607 673 OFFCURVE",
"1568 562 OFFCURVE",
"1517 486 CURVE SMOOTH",
"1474 421 OFFCURVE",
"1405 350 OFFCURVE",
"1309 350 CURVE SMOOTH",
"1249 350 OFFCURVE",
"1226 380 OFFCURVE",
"1226 436 CURVE SMOOTH",
"1226 467 OFFCURVE",
"1234 516 OFFCURVE",
"1250 584 CURVE SMOOTH",
"1266 652 OFFCURVE",
"1288 743 OFFCURVE",
"1314 857 CURVE SMOOTH",
"1371 1107 LINE",
"1225 1107 LINE",
"1207 1022 LINE",
"1168 1091 OFFCURVE",
"1084 1138 OFFCURVE",
"978 1138 CURVE SMOOTH",
"835 1138 OFFCURVE",
"721 1058 OFFCURVE",
"646 976 CURVE SMOOTH",
"568 890 OFFCURVE",
"498 763 OFFCURVE",
"498 610 CURVE SMOOTH",
"498 552 OFFCURVE",
"507 501 OFFCURVE",
"525 457 CURVE SMOOTH",
"570 347 OFFCURVE",
"664 257 OFFCURVE",
"814 257 CURVE SMOOTH",
"930 257 OFFCURVE",
"1013 313 OFFCURVE",
"1071 384 CURVE",
"1090 276 OFFCURVE",
"1165 225 OFFCURVE",
"1288 225 CURVE SMOOTH",
"1427 225 OFFCURVE",
"1540 307 OFFCURVE",
"1612 390 CURVE SMOOTH",
"1694 484 OFFCURVE",
"1760 622 OFFCURVE",
"1760 791 CURVE SMOOTH",
"1760 1018 OFFCURVE",
"1658 1176 OFFCURVE",
"1531 1283 CURVE SMOOTH",
"1398 1396 OFFCURVE",
"1213 1476 OFFCURVE",
"971 1476 CURVE SMOOTH"
);
},
{
closed = 1;
nodes = (
"1096 1007 OFFCURVE",
"1141 936 OFFCURVE",
"1141 821 CURVE SMOOTH",
"1141 702 OFFCURVE",
"1102 596 OFFCURVE",
"1052 522 CURVE SMOOTH",
"1006 454 OFFCURVE",
"934 385 OFFCURVE",
"831 385 CURVE SMOOTH",
"715 385 OFFCURVE",
"655 465 OFFCURVE",
"655 582 CURVE SMOOTH",
"655 693 OFFCURVE",
"697 795 OFFCURVE",
"746 866 CURVE SMOOTH",
"794 935 OFFCURVE",
"872 1007 OFFCURVE",
"980 1007 CURVE SMOOTH"
);
}
);
width = 1895;
}
);
unicode = 0040;
},
{
glyphname = A;
lastChange = "2013-01-26 16:43:24 -0800";
layers = (
{
anchors = (
{
name = ogonek;
position = "{1282, 10}";
},
{
name = top;
position = "{713, 1456}";
}
);
layerId = "E08CDE4C-5D6C-43D8-8149-5F9E51F0B944";
name = "Bold Condensed";
paths = (
{
closed = 1;
nodes = (
"597 1456 LINE",
"26 0 LINE",
"319 0 LINE",
"583 727 LINE",
"713 1100 LINE",
"847 727 LINE",
"1102 0 LINE",
"1406 0 LINE",
"841 1456 LINE"
);
},
{
closed = 1;
nodes = (
"375 536 LINE",
"375 336 LINE",
"1075 336 LINE",
"1075 536 LINE"
);
}
);
width = 1425;
}
);
unicode = 0041;
},
{
glyphname = B;
lastChange = "2013-01-26 16:43:33 -0800";
layers = (
{
layerId = "E08CDE4C-5D6C-43D8-8149-5F9E51F0B944";
name = "Bold Condensed";
paths = (
{
closed = 1;
nodes = (
"166 1456 LINE",
"166 0 LINE",
"724 0 LINE SMOOTH",
"1140 0 OFFCURVE",
"1318 127 OFFCURVE",
"1318 422 CURVE SMOOTH",
"1318 636 OFFCURVE",
"1227 743 OFFCURVE",
"1014 779 CURVE",
"1183 827 OFFCURVE",
"1255 925 OFFCURVE",
"1255 1105 CURVE SMOOTH",
"1255 1351 OFFCURVE",
"1076 1456 OFFCURVE",
"658 1456 CURVE SMOOTH"
);
},
{
closed = 1;
nodes = (
"426 1254 LINE",
"658 1254 LINE SMOOTH",
"903 1254 OFFCURVE",
"1008 1201 OFFCURVE",
"1008 1067 CURVE SMOOTH",
"1008 912 OFFCURVE",
"907 845 OFFCURVE",
"672 845 CURVE SMOOTH",
"426 845 LINE"
);
},
{
closed = 1;
nodes = (
"426 660 LINE",
"702 660 LINE SMOOTH",
"960 660 OFFCURVE",
"1071 593 OFFCURVE",
"1071 435 CURVE SMOOTH",
"1071 269 OFFCURVE",
"965 202 OFFCURVE",
"718 202 CURVE SMOOTH",
"426 202 LINE"
);
}
);
width = 1440;
}
);
unicode = 0042;
},
{
glyphname = C;
lastChange = "2013-01-26 16:43:52 -0800";
layers = (
{
anchors = (
{
name = bottom;
position = "{844, 0}";
},
{
name = top;
position = "{862, 1456}";
}
);
layerId = "E08CDE4C-5D6C-43D8-8149-5F9E51F0B944";
name = "Bold Condensed";
paths = (
{
closed = 1;
nodes = (
"1275 345 LINE",
"1175 266 OFFCURVE",
"1017 214 OFFCURVE",
"882 214 CURVE SMOOTH",
"577 214 OFFCURVE",
"373 418 OFFCURVE",
"373 725 CURVE SMOOTH",
"373 1039 OFFCURVE",
"578 1248 OFFCURVE",
"883 1248 CURVE SMOOTH",
"1009 1248 OFFCURVE",
"1156 1197 OFFCURVE",
"1249 1121 CURVE",
"1338 1332 LINE",
"1225 1423 OFFCURVE",
"1040 1483 OFFCURVE",
"875 1483 CURVE SMOOTH",
"409 1483 OFFCURVE",
"99 1180 OFFCURVE",
"99 726 CURVE SMOOTH",
"99 277 OFFCURVE",
"409 -22 OFFCURVE",
"873 -22 CURVE SMOOTH",
"1050 -22 OFFCURVE",
"1242 38 OFFCURVE",
"1352 127 CURVE"
);
}
);
width = 1482;
}
);
unicode = 0043;
},
{
glyphname = D;
lastChange = "2013-01-26 16:44:19 -0800";
layers = (
{
anchors = (
{
name = center;
position = "{309, 762}";
},
{
name = top;
position = "{740, 1456}";
}
);
layerId = "E08CDE4C-5D6C-43D8-8149-5F9E51F0B944";
name = "Bold Condensed";
paths = (
{
closed = 1;
nodes = (
"162 1456 LINE",
"162 0 LINE",
"617 0 LINE SMOOTH",
"1215 0 OFFCURVE",
"1471 223 OFFCURVE",
"1471 742 CURVE SMOOTH",
"1471 1242 OFFCURVE",
"1197 1456 OFFCURVE",
"558 1456 CURVE SMOOTH"
);
},
{
closed = 1;
nodes = (
"430 1244 LINE",
"592 1244 LINE SMOOTH",
"1018 1244 OFFCURVE",
"1201 1087 OFFCURVE",
"1201 739 CURVE SMOOTH",
"1201 376 OFFCURVE",
"1031 212 OFFCURVE",
"633 212 CURVE SMOOTH",
"430 212 LINE"
);
}
);
width = 1568;
}
);
unicode = 0044;
},
{
glyphname = E;
lastChange = "2013-01-26 16:44:45 -0800";
layers = (
{
anchors = (
{
name = bottom;
position = "{657, 0}";
},
{
name = ogonek;
position = "{820, 0}";
},
{
name = top;
position = "{651, 1456}";
}
);
layerId = "E08CDE4C-5D6C-43D8-8149-5F9E51F0B944";
name = "Bold Condensed";
paths = (
{
closed = 1;
nodes = (
"1078 1456 LINE",
"166 1456 LINE",
"166 0 LINE",
"1128 0 LINE",
"1128 212 LINE",
"426 212 LINE",
"426 646 LINE",
"1040 646 LINE",
"1040 842 LINE",
"426 842 LINE",
"426 1244 LINE",
"1078 1244 LINE"
);
}
);
width = 1224;
}
);
unicode = 0045;
},
{
glyphname = F;
lastChange = "2013-01-25 15:37:48 -0800";
layers = (
{
layerId = "E08CDE4C-5D6C-43D8-8149-5F9E51F0B944";
name = "Bold Condensed";
paths = (
{
closed = 1;
nodes = (
"150 1456 LINE",
"150 0 LINE",
"410 0 LINE",
"410 667 LINE",
"1009 667 LINE",
"1009 865 LINE",
"410 865 LINE",
"410 1244 LINE",
"1043 1244 LINE",
"1043 1456 LINE"
);
}
);
width = 1140;
}
);
unicode = 0046;
},
{
glyphname = G;
lastChange = "2013-01-26 16:45:10 -0800";
layers = (
{
anchors = (
{
name = bottom;
position = "{876, 0}";
},
{
name = top;
position = "{891, 1456}";
}
);
guideLines = (
{
angle = 0;
position = "{904, 1490}";
},
{
angle = 0;
position = "{574, 1269}";
}
);
layerId = "E08CDE4C-5D6C-43D8-8149-5F9E51F0B944";
name = "Bold Condensed";
paths = (
{
closed = 1;
nodes = (
"1425 787 LINE",
"862 787 LINE",
"862 608 LINE",
"1197 608 LINE",
"1197 246 LINE",
"1127 217 OFFCURVE",
"1011 198 OFFCURVE",
"906 198 CURVE SMOOTH",
"586 198 OFFCURVE",
"373 404 OFFCURVE",
"373 714 CURVE SMOOTH",
"373 1048 OFFCURVE",
"599 1271 OFFCURVE",
"938 1271 CURVE SMOOTH",
"1056 1271 OFFCURVE",
"1212 1230 OFFCURVE",
"1328 1168 CURVE",
"1410 1355 LINE",
"1276 1437 OFFCURVE",
"1075 1491 OFFCURVE",
"909 1491 CURVE SMOOTH",
"423 1491 OFFCURVE",
"99 1175 OFFCURVE",
"99 701 CURVE SMOOTH",
"99 267 OFFCURVE",
"416 -22 OFFCURVE",
"892 -22 CURVE SMOOTH",
"1080 -22 OFFCURVE",
"1293 19 OFFCURVE",
"1425 81 CURVE"
);
}
);
width = 1572;
}
);
unicode = 0047;
},
{
glyphname = H;
lastChange = "2013-01-26 16:45:22 -0800";
layers = (
{
anchors = (
{
name = center;
position = "{782, 1213}";
},
{
name = top;
position = "{782, 1456}";
}
);
layerId = "E08CDE4C-5D6C-43D8-8149-5F9E51F0B944";
name = "Bold Condensed";
paths = (
{
closed = 1;
nodes = (
"1157 1456 LINE",
"1157 855 LINE",
"426 855 LINE",
"426 1456 LINE",
"166 1456 LINE",
"166 0 LINE",
"426 0 LINE",
"426 638 LINE",
"1157 638 LINE",
"1157 0 LINE",
"1407 0 LINE",
"1407 1456 LINE"
);
}
);
width = 1573;
}
);
unicode = 0048;
},
{
glyphname = I;
lastChange = "2013-01-26 16:45:43 -0800";
layers = (
{
anchors = (
{
name = ogonek;
position = "{358, 0}";
},
{
name = top;
position = "{296, 1456}";
}
);
layerId = "E08CDE4C-5D6C-43D8-8149-5F9E51F0B944";
name = "Bold Condensed";
paths = (
{
closed = 1;
nodes = (
"166 1456 LINE",
"166 0 LINE",
"426 0 LINE",
"426 1456 LINE"
);
}
);
width = 592;
}
);
unicode = 0049;
},
{
glyphname = J;
lastChange = "2013-01-26 16:45:53 -0800";
layers = (
{
anchors = (
{
name = top;
position = "{580, 1456}";
}
);
layerId = "E08CDE4C-5D6C-43D8-8149-5F9E51F0B944";
name = "Bold Condensed";
paths = (
{
closed = 1;
nodes = (
"114 1456 LINE",
"114 1244 LINE",
"495 1244 LINE",
"495 294 LINE SMOOTH",
"495 15 OFFCURVE",
"320 -41 OFFCURVE",
"53 92 CURVE",
"-19 -114 LINE",
"314 -318 OFFCURVE",
"755 -216 OFFCURVE",
"755 296 CURVE SMOOTH",
"755 1244 LINE",
"1027 1244 LINE",
"1027 1456 LINE"
);
}
);
width = 939;
}
);
unicode = 004A;
},
{
glyphname = K;
lastChange = "2013-01-26 16:46:04 -0800";
layers = (
{
anchors = (
{
name = bottom;
position = "{642, 0}";
},
{
name = top;
position = "{680, 1456}";
}
);
layerId = "E08CDE4C-5D6C-43D8-8149-5F9E51F0B944";
name = "Bold Condensed";
paths = (
{
closed = 1;
nodes = (
"966 1456 LINE",
"412 826 LINE",
"412 1456 LINE",
"152 1456 LINE",
"152 0 LINE",
"412 0 LINE",
"412 685 LINE",
"981 0 LINE",
"1313 0 LINE",
"667 777 LINE",
"1279 1456 LINE"
);
}
);
width = 1284;
}
);
unicode = 004B;
},
{
glyphname = L;
lastChange = "2013-01-26 16:46:22 -0800";
layers = (
{
anchors = (
{
name = bottom;
position = "{597, 0}";
},
{
name = top;
position = "{559, 1456}";
}
);
layerId = "E08CDE4C-5D6C-43D8-8149-5F9E51F0B944";
name = "Bold Condensed";
paths = (
{
closed = 1;
nodes = (
"422 212 LINE",
"422 1456 LINE",
"162 1456 LINE",
"162 0 LINE",
"1071 0 LINE",
"1071 212 LINE"
);
}
);
width = 1118;
}
);
unicode = 004C;
},
{
glyphname = M;
lastChange = "2013-01-26 16:46:25 -0800";
layers = (
{
layerId = "E08CDE4C-5D6C-43D8-8149-5F9E51F0B944";
name = "Bold Condensed";
paths = (
{
closed = 1;
nodes = (
"1810 1456 LINE",
"1512 1456 LINE",
"1084 739 LINE",
"999 572 LINE",
"913 736 LINE",
"488 1456 LINE",
"178 1456 LINE",
"178 0 LINE",
"440 0 LINE",
"440 1099 LINE",
"547 879 LINE",
"934 230 LINE",
"1060 230 LINE",
"1450 867 LINE",
"1558 1082 LINE",
"1558 0 LINE",
"1810 0 LINE"
);
}
);
width = 1996;
}
);
unicode = 004D;
},
{
glyphname = N;
lastChange = "2013-01-26 16:46:34 -0800";
layers = (
{
anchors = (
{
name = bottom;
position = "{801, 0}";
},
{
name = top;
position = "{801, 1456}";
}
);
layerId = "E08CDE4C-5D6C-43D8-8149-5F9E51F0B944";
name = "Bold Condensed";
paths = (
{
closed = 1;
nodes = (
"1462 1456 LINE",
"1231 1456 LINE",
"1231 315 LINE",
"1103 502 LINE",
"406 1456 LINE",
"140 1456 LINE",
"140 0 LINE",
"372 0 LINE",
"372 1117 LINE",
"494 953 LINE",
"1194 0 LINE",
"1462 0 LINE"
);
}
);
width = 1602;
}
);
unicode = 004E;
},
{
glyphname = O;
lastChange = "2013-01-26 16:46:56 -0800";
layers = (
{
anchors = (
{
name = top;
position = "{831, 1456}";
}
);
guideLines = (
{
angle = 0;
position = "{834, 1486}";
},
{
angle = 0;
position = "{834, 1266}";
},
{
angle = 0;
position = "{-687, 1486}";
}
);
layerId = "E08CDE4C-5D6C-43D8-8149-5F9E51F0B944";
name = "Bold Condensed";
paths = (
{
closed = 1;
nodes = (
"393 1486 OFFCURVE",
"99 1184 OFFCURVE",
"99 731 CURVE SMOOTH",
"99 279 OFFCURVE",
"393 -22 OFFCURVE",
"834 -22 CURVE SMOOTH",
"1275 -22 OFFCURVE",
"1569 279 OFFCURVE",
"1569 731 CURVE SMOOTH",
"1569 1184 OFFCURVE",
"1275 1486 OFFCURVE",
"834 1486 CURVE SMOOTH"
);
},
{
closed = 1;
nodes = (
"1111 1266 OFFCURVE",
"1295 1051 OFFCURVE",
"1295 728 CURVE SMOOTH",
"1295 410 OFFCURVE",
"1111 198 OFFCURVE",
"834 198 CURVE SMOOTH",
"557 198 OFFCURVE",
"373 410 OFFCURVE",
"373 728 CURVE SMOOTH",
"373 1051 OFFCURVE",
"557 1266 OFFCURVE",
"834 1266 CURVE SMOOTH"
);
}
);
width = 1668;
}
);
unicode = 004F;
},
{
glyphname = P;
lastChange = "2013-01-26 16:46:59 -0800";
layers = (
{
layerId = "E08CDE4C-5D6C-43D8-8149-5F9E51F0B944";
name = "Bold Condensed";
paths = (
{
closed = 1;
nodes = (
"112 1456 LINE",
"112 0 LINE",
"380 0 LINE",
"380 537 LINE",
"594 537 LINE SMOOTH",
"1027 537 OFFCURVE",
"1213 678 OFFCURVE",
"1213 1008 CURVE SMOOTH",
"1213 1322 OFFCURVE",
"1020 1456 OFFCURVE",
"569 1456 CURVE SMOOTH"
);
},
{
closed = 1;
nodes = (
"593 1258 LINE SMOOTH",
"838 1258 OFFCURVE",
"943 1184 OFFCURVE",
"943 1006 CURVE SMOOTH",
"943 820 OFFCURVE",
"844 740 OFFCURVE",
"613 740 CURVE SMOOTH",
"380 740 LINE",
"380 1258 LINE"
);
}
);
width = 1271;
}
);
unicode = 0050;
},
{
glyphname = Q;
lastChange = "2013-01-25 15:38:56 -0800";
layers = (
{
components = (
{
name = O;
transform = "{1, 0, 0, 1, 0, 0}";
}
);
layerId = "E08CDE4C-5D6C-43D8-8149-5F9E51F0B944";
name = "Bold Condensed";
paths = (
{
closed = 1;
nodes = (
"891 -13 LINE",
"967 -176 OFFCURVE",
"1076 -305 OFFCURVE",
"1193 -422 CURVE",
"1375 -264 LINE",
"1277 -173 OFFCURVE",
"1189 -70 OFFCURVE",
"1126 60 CURVE"
);
}
);
width = 1661;
}
);
unicode = 0051;
},
{
glyphname = R;
lastChange = "2013-01-26 16:47:16 -0800";
layers = (
{
anchors = (
{
name = bottom;
position = "{686, 0}";
},
{
name = top;
position = "{644, 1456}";
}
);
layerId = "E08CDE4C-5D6C-43D8-8149-5F9E51F0B944";
name = "Bold Condensed";
paths = (
{
closed = 1;
nodes = (
"152 1456 LINE",
"152 0 LINE",
"412 0 LINE",
"412 641 LINE",
"612 641 LINE SMOOTH",
"735 641 OFFCURVE",
"810 574 OFFCURVE",
"862 419 CURVE SMOOTH",
"1004 0 LINE",
"1282 0 LINE",
"1139 410 LINE SMOOTH",
"1078 585 OFFCURVE",
"1002 676 OFFCURVE",
"884 715 CURVE",
"1115 775 OFFCURVE",
"1214 883 OFFCURVE",
"1214 1074 CURVE SMOOTH",
"1214 1341 OFFCURVE",
"1038 1456 OFFCURVE",
"626 1456 CURVE SMOOTH"
);
},
{
closed = 1;
nodes = (
"649 1258 LINE SMOOTH",
"868 1258 OFFCURVE",
"962 1219 OFFCURVE",
"962 1058 CURVE SMOOTH",
"962 891 OFFCURVE",
"865 819 OFFCURVE",
"638 819 CURVE SMOOTH",
"412 819 LINE",
"412 1258 LINE"
);
}
);
width = 1372;
}
);
unicode = 0052;
},
{
glyphname = S;
lastChange = "2013-01-26 16:23:13 -0800";
layers = (
{
anchors = (
{
name = bottom;
position = "{622, 0}";
},
{
name = top;
position = "{636, 1483}";
}
);
guideLines = (
{
angle = 0;
position = "{1032, 1484}";
},
{
angle = 0;
position = "{1266, -21}";
},
{
angle = 0;
position = "{519, 1267}";
},
{
angle = 0;
position = "{1241, 199}";
}
);
layerId = "E08CDE4C-5D6C-43D8-8149-5F9E51F0B944";
name = "Bold Condensed";
paths = (
{
closed = 1;
nodes = (
"799 1483 OFFCURVE",
"636 1483 CURVE SMOOTH",
"257 1483 OFFCURVE",
"118 1278 OFFCURVE",
"118 1060 CURVE SMOOTH",
"118 886 OFFCURVE",
"198 759 OFFCURVE",
"534 661 CURVE SMOOTH",
"894 556 OFFCURVE",
"923 501 OFFCURVE",
"923 399 CURVE SMOOTH",
"923 262 OFFCURVE",
"812 189 OFFCURVE",
"646 189 CURVE SMOOTH",
"513 189 OFFCURVE",
"343 236 OFFCURVE",
"166 334 CURVE",
"126 123 LINE",
"266 35 OFFCURVE",
"480 -22 OFFCURVE",
"666 -22 CURVE SMOOTH",
"1004 -22 OFFCURVE",
"1155 166 OFFCURVE",
"1155 395 CURVE SMOOTH",
"1155 598 OFFCURVE",
"1092 737 OFFCURVE",
"688 845 CURVE SMOOTH",
"409 920 OFFCURVE",
"358 988 OFFCURVE",
"358 1077 CURVE SMOOTH",
"358 1192 OFFCURVE",
"437 1278 OFFCURVE",
"651 1278 CURVE SMOOTH",
"771 1278 OFFCURVE",
"911 1246 OFFCURVE",
"1039 1178 CURVE",
"1103 1359 LINE",
"971 1439 OFFCURVE"
);
}
);
width = 1244;
}
);
unicode = 0053;
},
{
glyphname = T;
lastChange = "2013-01-26 16:47:41 -0800";
layers = (
{
anchors = (
{
name = bottom;
position = "{586, 0}";
},
{
name = center;
position = "{587, 823}";
},
{
name = top;
position = "{587, 1456}";
}
);
layerId = "E08CDE4C-5D6C-43D8-8149-5F9E51F0B944";
name = "Bold Condensed";
paths = (
{
closed = 1;
nodes = (
"1145 1456 LINE",
"29 1456 LINE",
"29 1258 LINE",
"457 1258 LINE",
"457 0 LINE",
"717 0 LINE",
"717 1258 LINE",
"1145 1258 LINE"
);
}
);
width = 1174;
}
);
unicode = 0054;
},
{
glyphname = U;
lastChange = "2013-01-26 16:47:51 -0800";
layers = (
{
anchors = (
{
name = ogonek;
position = "{792, 0}";
},
{
name = top;
position = "{766, 1456}";
}
);
layerId = "E08CDE4C-5D6C-43D8-8149-5F9E51F0B944";
name = "Bold Condensed";
paths = (
{
closed = 1;
nodes = (
"1135 1456 LINE",
"1135 545 LINE SMOOTH",
"1135 334 OFFCURVE",
"991 193 OFFCURVE",
"774 193 CURVE SMOOTH",
"545 193 OFFCURVE",
"393 337 OFFCURVE",
"393 552 CURVE SMOOTH",
"393 1456 LINE",
"133 1456 LINE",
"133 547 LINE SMOOTH",
"133 206 OFFCURVE",
"390 -22 OFFCURVE",
"776 -22 CURVE SMOOTH",
"1147 -22 OFFCURVE",
"1394 210 OFFCURVE",
"1394 557 CURVE SMOOTH",
"1394 1456 LINE"
);
}
);
width = 1532;
}
);
unicode = 0055;
},
{
glyphname = V;
lastChange = "2013-01-26 16:47:56 -0800";
layers = (
{
layerId = "E08CDE4C-5D6C-43D8-8149-5F9E51F0B944";
name = "Bold Condensed";
paths = (
{
closed = 1;
nodes = (
"1364 1456 LINE",
"1078 1456 LINE",
"778 634 LINE",
"670 326 LINE",
"554 635 LINE",
"245 1456 LINE",
"-31 1456 LINE",
"530 1 LINE",
"809 1 LINE"
);
}
);
width = 1336;
}
);
unicode = 0056;
},
{
glyphname = W;
lastChange = "2013-01-26 16:48:07 -0800";
layers = (
{
anchors = (
{
name = top;
position = "{1052, 1456}";
}
);
layerId = "E08CDE4C-5D6C-43D8-8149-5F9E51F0B944";
name = "Bold Condensed";
paths = (
{
closed = 1;
nodes = (
"1445 0 LINE",
"1667 0 LINE",
"2120 1456 LINE",
"1870 1456 LINE",
"1625 617 LINE",
"1553 388 LINE",
"1471 613 LINE",
"1148 1456 LINE",
"967 1456 LINE",
"640 617 LINE",
"555 387 LINE",
"487 617 LINE",
"237 1456 LINE",
"-19 1456 LINE",
"434 1 LINE",
"657 1 LINE",
"1052 1057 LINE"
);
}
);
width = 2103;
}
);
unicode = 0057;
},
{
glyphname = X;
lastChange = "2013-01-26 16:22:30 -0800";
layers = (
{
layerId = "E08CDE4C-5D6C-43D8-8149-5F9E51F0B944";
name = "Bold Condensed";
paths = (
{
closed = 1;
nodes = (
"227 0 LINE",
"709 629 LINE",
"804 696 LINE",
"1365 1456 LINE",
"1091 1456 LINE",
"646 857 LINE",
"557 801 LINE",
"-49 0 LINE"
);
},
{
closed = 1;
nodes = (
"286 1456 LINE",
"0 1456 LINE",
"1075 0 LINE SMOOTH",
"1348 0 LINE"
);
}
);
width = 1304;
}
);
unicode = 0058;
},
{
glyphname = Y;
lastChange = "2013-01-26 16:48:16 -0800";
layers = (
{
anchors = (
{
name = top;
position = "{633, 1456}";
}
);
layerId = "E08CDE4C-5D6C-43D8-8149-5F9E51F0B944";
name = "Bold Condensed";
paths = (
{
closed = 1;
nodes = (
"494 0 LINE",
"764 0 LINE",
"764 585 LINE",
"1278 1456 LINE",
"1017 1456 LINE",
"632 792 LINE",
"271 1456 LINE",
"0 1456 LINE",
"494 582 LINE"
);
}
);
width = 1266;
}
);
unicode = 0059;
},
{
glyphname = Z;
lastChange = "2013-01-26 16:48:24 -0800";
layers = (
{
anchors = (
{
name = top;
position = "{646, 1456}";
}
);
layerId = "E08CDE4C-5D6C-43D8-8149-5F9E51F0B944";
name = "Bold Condensed";
paths = (
{
closed = 1;
nodes = (
"90 1456 LINE",
"90 1244 LINE",
"855 1244 LINE",
"58 198 LINE",
"58 0 LINE",
"1146 0 LINE",
"1146 212 LINE",
"360 212 LINE",
"1154 1274 LINE",
"1154 1456 LINE"
);
}
);
width = 1222;
}
);
unicode = 005A;
},
{
glyphname = bracketleft;
lastChange = "2013-01-26 16:22:30 -0800";
layers = (
{
layerId = "E08CDE4C-5D6C-43D8-8149-5F9E51F0B944";
name = "Bold Condensed";
paths = (
{
closed = 1;
nodes = (
"94 1451 LINE",
"94 -259 LINE",
"548 -259 LINE",
"548 -129 LINE",
"354 -129 LINE",
"354 1321 LINE",
"547 1321 LINE",
"547 1451 LINE"
);
}
);
width = 628;
}
);
unicode = 005B;
},
{
glyphname = backslash;
lastChange = "2013-01-26 09:53:24 -0800";
layers = (
{
layerId = "E08CDE4C-5D6C-43D8-8149-5F9E51F0B944";
name = "Bold Condensed";
paths = (
{
closed = 1;
nodes = (
"-70 1451 LINE",
"547 -119 LINE",
"783 -119 LINE",
"168 1451 LINE"
);
}
);
width = 706;
}
);
unicode = 005C;
},
{
glyphname = bracketright;
lastChange = "2013-01-26 16:22:30 -0800";
layers = (
{
layerId = "E08CDE4C-5D6C-43D8-8149-5F9E51F0B944";
name = "Bold Condensed";
paths = (
{
closed = 1;
nodes = (
"95 1321 LINE",
"288 1321 LINE",
"288 -129 LINE",
"94 -129 LINE",
"94 -259 LINE",
"548 -259 LINE",
"548 1451 LINE",
"95 1451 LINE"
);
}
);
width = 628;
}
);
unicode = 005D;
},
{
glyphname = asciicircum;
lastChange = "2013-01-25 15:14:08 -0800";
layers = (
{
layerId = "E08CDE4C-5D6C-43D8-8149-5F9E51F0B944";
name = "Bold Condensed";
paths = (
{
closed = 1;
nodes = (
"665 1432 LINE",
"184 550 LINE",
"340 550 LINE",
"714 1260 LINE",
"1100 550 LINE",
"1255 550 LINE",
"766 1432 LINE"
);
}
);
width = 1457;
}
);
unicode = 005E;
},
{
glyphname = underscore;
lastChange = "2013-01-25 15:14:11 -0800";
layers = (
{
layerId = "E08CDE4C-5D6C-43D8-8149-5F9E51F0B944";
name = "Bold Condensed";
paths = (
{
closed = 1;
nodes = (
"-5 -145 LINE",
"-5 -273 LINE",
"998 -273 LINE",
"998 -145 LINE"
);
}
);
width = 997;
}
);
unicode = 005F;
},
{
glyphname = grave;
lastChange = "2013-01-26 16:28:29 -0800";
layers = (
{
anchors = (
{
name = _top;
position = "{344, 1026}";
}
);
layerId = "E08CDE4C-5D6C-43D8-8149-5F9E51F0B944";
name = "Bold Condensed";
paths = (
{
closed = 1;
nodes = (
"-59 1492 LINE",
"273 1172 LINE",
"462 1172 LINE",
"215 1492 LINE"
);
}
);
width = 593;
}
);
unicode = 0060;
},
{
glyphname = a;
lastChange = "2013-01-26 16:23:44 -0800";
layers = (
{
anchors = (
{
name = ogonek;
position = "{946, 10}";
},
{
name = top;
position = "{541, 862}";
}
);
layerId = "E08CDE4C-5D6C-43D8-8149-5F9E51F0B944";
name = "Bold Condensed";
paths = (
{
closed = 1;
nodes = (
"291 862 OFFCURVE",
"86 653 OFFCURVE",
"86 358 CURVE SMOOTH",
"86 136 OFFCURVE",
"237 -22 OFFCURVE",
"461 -22 CURVE SMOOTH",
"580 -22 OFFCURVE",
"701 43 OFFCURVE",
"747 133 CURVE",
"770 51 OFFCURVE",
"872 -7 OFFCURVE",
"997 -7 CURVE",
"1074 165 LINE",
"972 149 OFFCURVE",
"921 204 OFFCURVE",
"921 271 CURVE SMOOTH",
"921 768 LINE",
"839 817 OFFCURVE",
"698 862 OFFCURVE",
"581 862 CURVE SMOOTH"
);
},
{
closed = 1;
nodes = (
"619 693 OFFCURVE",
"680 683 OFFCURVE",
"715 664 CURVE",
"715 354 LINE SMOOTH",
"715 232 OFFCURVE",
"617 146 OFFCURVE",
"477 146 CURVE SMOOTH",
"372 146 OFFCURVE",
"298 237 OFFCURVE",
"298 366 CURVE SMOOTH",
"298 558 OFFCURVE",
"410 693 OFFCURVE",
"570 693 CURVE SMOOTH"
);
}
);
width = 1100;
}
);
unicode = 0061;
},
{
glyphname = b;
lastChange = "2013-01-25 15:37:48 -0800";
layers = (
{
layerId = "E08CDE4C-5D6C-43D8-8149-5F9E51F0B944";
name = "Bold Condensed";
paths = (
{
closed = 1;
nodes = (
"143 1232 LINE",
"143 55 LINE",
"144 55 OFFCURVE",
"326 -22 OFFCURVE",
"596 -22 CURVE SMOOTH",
"866 -22 OFFCURVE",
"1046 165 OFFCURVE",
"1046 446 CURVE SMOOTH",
"1046 696 OFFCURVE",
"893 862 OFFCURVE",
"663 862 CURVE SMOOTH",
"535 862 OFFCURVE",
"408 803 OFFCURVE",
"351 716 CURVE",
"351 1256 LINE"
);
},
{
closed = 1;
nodes = (
"749 694 OFFCURVE",
"834 593 OFFCURVE",
"834 443 CURVE SMOOTH",
"834 264 OFFCURVE",
"733 146 OFFCURVE",
"582 146 CURVE SMOOTH",
"446 146 OFFCURVE",
"350 172 OFFCURVE",
"351 172 CURVE",
"351 513 LINE",
"414 622 OFFCURVE",
"524 694 OFFCURVE",
"621 694 CURVE SMOOTH"
);
}
);
width = 1132;
}
);
unicode = 0062;
},
{
glyphname = c;
lastChange = "2013-01-26 16:56:06 -0800";
layers = (
{
anchors = (
{
name = bottom;
position = "{510, 0}";
},
{
name = top;
position = "{510, 0}";
}
);
associatedMasterId = "E08CDE4C-5D6C-43D8-8149-5F9E51F0B944";
layerId = "02438C44-437D-4400-B12E-E740F31AE227";
name = "Bold Jan 22 13, 14:00";
paths = (
{
closed = 1;
nodes = (
"918 308 OFFCURVE",
"810 181 OFFCURVE",
"628 181 CURVE SMOOTH",
"439 181 OFFCURVE",
"336 310 OFFCURVE",
"336 512 CURVE SMOOTH",
"336 717 OFFCURVE",
"439 844 OFFCURVE",
"627 844 CURVE SMOOTH",
"810 844 OFFCURVE",
"918 716 OFFCURVE",
"918 512 CURVE SMOOTH"
);
},
{
closed = 1;
nodes = (
"80 184 OFFCURVE",
"295 -22 OFFCURVE",
"627 -22 CURVE SMOOTH",
"953 -22 OFFCURVE",
"1174 184 OFFCURVE",
"1174 513 CURVE SMOOTH",
"1174 842 OFFCURVE",
"952 1048 OFFCURVE",
"626 1048 CURVE SMOOTH",
"295 1048 OFFCURVE",
"80 841 OFFCURVE",
"80 511 CURVE SMOOTH"
);
}
);
width = 1019;
},
{
anchors = (
{
name = bottom;
position = "{542, 0}";
},
{
name = top;
position = "{533, 862}";
}
);
guideLines = (
{
angle = 0;
position = "{413, 862}";
},
{
angle = 0;
position = "{420, -23}";
},
{
angle = 0;
position = "{518, 695}";
},
{
angle = 0;
position = "{574, 150}";
}
);
layerId = "E08CDE4C-5D6C-43D8-8149-5F9E51F0B944";
name = "Bold Condensed";
paths = (
{
closed = 1;
nodes = (
"279 862 OFFCURVE",
"86 682 OFFCURVE",
"86 412 CURVE SMOOTH",
"86 152 OFFCURVE",
"283 -22 OFFCURVE",
"578 -22 CURVE SMOOTH",
"696 -22 OFFCURVE",
"829 21 OFFCURVE",
"911 85 CURVE",
"844 244 LINE",
"780 189 OFFCURVE",
"678 152 OFFCURVE",
"589 152 CURVE SMOOTH",
"414 152 OFFCURVE",
"298 258 OFFCURVE",
"298 416 CURVE SMOOTH",
"298 582 OFFCURVE",
"411 693 OFFCURVE",
"581 693 CURVE SMOOTH",
"661 693 OFFCURVE",
"758 660 OFFCURVE",
"822 611 CURVE",
"883 758 LINE",
"799 820 OFFCURVE",
"673 862 OFFCURVE",
"568 862 CURVE SMOOTH"
);
}
);
width = 945;
},
{
anchors = (
{
name = bottom;
position = "{510, 0}";
},
{
name = top;
position = "{510, 0}";
}
);
associatedMasterId = "E08CDE4C-5D6C-43D8-8149-5F9E51F0B944";
layerId = "0BE29DC9-66A4-451E-B354-0D72A6C42DA9";
name = "Bold Jan 22 13, 14:00";
paths = (
{
closed = 1;
nodes = (
"74 202 OFFCURVE",
"274 -22 OFFCURVE",
"612 -22 CURVE SMOOTH",
"750 -22 OFFCURVE",
"874 11 OFFCURVE",
"999 108 CURVE",
"918 272 LINE",
"807 191 OFFCURVE",
"724 152 OFFCURVE",
"616 152 CURVE SMOOTH",
"427 152 OFFCURVE",
"300 279 OFFCURVE",
"300 508 CURVE SMOOTH",
"300 752 OFFCURVE",
"437 870 OFFCURVE",
"608 870 CURVE SMOOTH",
"713 870 OFFCURVE",
"786 839 OFFCURVE",
"876 762 CURVE",
"956 912 LINE",
"856 1008 OFFCURVE",
"752 1048 OFFCURVE",
"608 1048 CURVE SMOOTH",
"321 1048 OFFCURVE",
"74 876 OFFCURVE",
"74 503 CURVE SMOOTH"
);
}
);
width = 1019;
}
);
unicode = 0063;
},
{
glyphname = d;
lastChange = "2013-01-26 16:24:11 -0800";
layers = (
{
anchors = (
{
name = center;
position = "{863, 1026}";
}
);
layerId = "E08CDE4C-5D6C-43D8-8149-5F9E51F0B944";
name = "Bold Condensed";
paths = (
{
closed = 1;
nodes = (
"770 1241 LINE",
"770 787 LINE",
"710 833 OFFCURVE",
"621 862 OFFCURVE",
"534 862 CURVE SMOOTH",
"265 862 OFFCURVE",
"86 682 OFFCURVE",
"86 410 CURVE SMOOTH",
"86 151 OFFCURVE",
"252 -22 OFFCURVE",
"501 -22 CURVE SMOOTH",
"631 -22 OFFCURVE",
"739 35 OFFCURVE",
"784 120 CURVE",
"793 83 OFFCURVE",
"817 30 OFFCURVE",
"845 -15 CURVE",
"1043 21 LINE",
"1003 78 OFFCURVE",
"978 201 OFFCURVE",
"978 327 CURVE SMOOTH",
"978 1257 LINE"
);
},
{
closed = 1;
nodes = (
"638 693 OFFCURVE",
"730 658 OFFCURVE",
"771 604 CURVE",
"771 437 LINE SMOOTH",
"771 263 OFFCURVE",
"666 146 OFFCURVE",
"519 146 CURVE SMOOTH",
"386 146 OFFCURVE",
"298 253 OFFCURVE",
"298 415 CURVE SMOOTH",
"298 583 OFFCURVE",
"399 693 OFFCURVE",
"550 693 CURVE SMOOTH"
);
}
);
width = 1111;
}
);
unicode = 0064;
},
{
glyphname = e;
lastChange = "2013-01-26 16:24:34 -0800";
layers = (
{
anchors = (
{
name = bottom;
position = "{585, -22}";
},
{
name = ogonek;
position = "{842, 70}";
},
{
name = top;
position = "{546, 862}";
}
);
guideLines = (
{
angle = 0;
position = "{592, -22}";
},
{
angle = 0;
position = "{613, 176}";
}
);
layerId = "E08CDE4C-5D6C-43D8-8149-5F9E51F0B944";
name = "Bold Condensed";
paths = (
{
closed = 1;
nodes = (
"277 862 OFFCURVE",
"86 671 OFFCURVE",
"86 422 CURVE SMOOTH",
"86 155 OFFCURVE",
"275 -22 OFFCURVE",
"559 -22 CURVE SMOOTH",
"689 -22 OFFCURVE",
"839 33 OFFCURVE",
"935 117 CURVE",
"860 262 LINE",
"785 190 OFFCURVE",
"666 142 OFFCURVE",
"563 142 CURVE SMOOTH",
"448 142 OFFCURVE",
"348 202 OFFCURVE",
"314 292 CURVE",
"658 294 OFFCURVE",
"874 424 OFFCURVE",
"874 617 CURVE SMOOTH",
"874 764 OFFCURVE",
"741 862 OFFCURVE",
"546 862 CURVE SMOOTH"
);
},
{
closed = 1;
nodes = (
"624 704 OFFCURVE",
"673 667 OFFCURVE",
"673 612 CURVE SMOOTH",
"673 514 OFFCURVE",
"529 444 OFFCURVE",
"293 437 CURVE",
"293 597 OFFCURVE",
"413 704 OFFCURVE",
"551 704 CURVE SMOOTH"
);
}
);
width = 984;
}
);
unicode = 0065;
},
{
glyphname = f;
lastChange = "2013-01-25 15:37:48 -0800";
layers = (
{
layerId = "E08CDE4C-5D6C-43D8-8149-5F9E51F0B944";
name = "Bold Condensed";
paths = (
{
closed = 1;
nodes = (
"391 1236 OFFCURVE",
"241 1139 OFFCURVE",
"241 936 CURVE SMOOTH",
"241 817 LINE",
"74 817 LINE",
"74 688 LINE",
"241 688 LINE",
"241 -34 LINE SMOOTH",
"241 -150 OFFCURVE",
"196 -211 OFFCURVE",
"89 -236 CURVE",
"107 -417 LINE",
"345 -386 OFFCURVE",
"448 -263 OFFCURVE",
"448 -40 CURVE SMOOTH",
"448 688 LINE",
"629 688 LINE",
"629 817 LINE",
"448 817 LINE",
"448 906 LINE SMOOTH",
"448 1034 OFFCURVE",
"508 1078 OFFCURVE",
"596 1078 CURVE SMOOTH",
"619 1078 OFFCURVE",
"645 1076 OFFCURVE",
"672 1069 CURVE",
"692 1208 LINE",
"646 1226 OFFCURVE",
"597 1236 OFFCURVE",
"548 1236 CURVE SMOOTH"
);
}
);
width = 668;
}
);
unicode = 0066;
},
{
glyphname = g;
lastChange = "2013-01-26 16:24:48 -0800";
layers = (
{
anchors = (
{
name = top;
position = "{581, 862}";
}
);
guideLines = (
{
angle = 0;
position = "{-975, -357}";
},
{
angle = 0;
position = "{-368, -577}";
}
);
layerId = "E08CDE4C-5D6C-43D8-8149-5F9E51F0B944";
name = "Bold Condensed";
paths = (
{
closed = 1;
nodes = (
"291 862 OFFCURVE",
"86 653 OFFCURVE",
"86 358 CURVE SMOOTH",
"86 136 OFFCURVE",
"237 -22 OFFCURVE",
"461 -22 CURVE SMOOTH",
"551 -22 OFFCURVE",
"643 16 OFFCURVE",
"702 73 CURVE",
"702 -15 LINE SMOOTH",
"702 -175 OFFCURVE",
"583 -282 OFFCURVE",
"405 -282 CURVE SMOOTH",
"329 -282 OFFCURVE",
"233 -259 OFFCURVE",
"164 -224 CURVE",
"124 -395 LINE",
"211 -438 OFFCURVE",
"339 -466 OFFCURVE",
"442 -466 CURVE SMOOTH",
"729 -466 OFFCURVE",
"921 -283 OFFCURVE",
"921 -9 CURVE SMOOTH",
"921 768 LINE",
"839 817 OFFCURVE",
"698 862 OFFCURVE",
"581 862 CURVE SMOOTH"
);
},
{
closed = 1;
nodes = (
"619 693 OFFCURVE",
"680 683 OFFCURVE",
"715 664 CURVE",
"715 354 LINE SMOOTH",
"715 232 OFFCURVE",
"617 146 OFFCURVE",
"477 146 CURVE SMOOTH",
"372 146 OFFCURVE",
"298 237 OFFCURVE",
"298 366 CURVE SMOOTH",
"298 558 OFFCURVE",
"410 693 OFFCURVE",
"570 693 CURVE SMOOTH"
);
}
);
width = 1021;
}
);
unicode = 0067;
},
{
glyphname = h;
lastChange = "2013-01-26 16:56:37 -0800";
layers = (
{
anchors = (
{
name = center;
position = "{208, 1026}";
},
{
name = top;
position = "{564, 1207}";
}
);
guideLines = (
{
angle = 0;
position = "{413, 1051}";
},
{
angle = 0;
position = "{926, 835}";
}
);
layerId = "E08CDE4C-5D6C-43D8-8149-5F9E51F0B944";
name = "Bold Condensed";
paths = (
{
closed = 1;
nodes = (
"474 862 OFFCURVE",
"350 809 OFFCURVE",
"274 713 CURVE",
"327 560 LINE",
"387 633 OFFCURVE",
"474 682 OFFCURVE",
"547 682 CURVE SMOOTH",
"650 682 OFFCURVE",
"720 595 OFFCURVE",
"720 465 CURVE SMOOTH",
"720 229 LINE SMOOTH",
"720 68 OFFCURVE",
"819 -39 OFFCURVE",
"967 -39 CURVE SMOOTH",
"1017 -35 LINE",
"1038 128 LINE",
"970 126 OFFCURVE",
"926 183 OFFCURVE",
"926 269 CURVE SMOOTH",
"926 484 LINE SMOOTH",
"926 711 OFFCURVE",
"789 862 OFFCURVE",
"583 862 CURVE SMOOTH"
);
},
{
closed = 1;
nodes = (
"115 1227 LINE",
"115 0 LINE",
"327 0 LINE",
"327 1254 LINE"
);
}
);
width = 1091;
}
);
unicode = 0068;
},
{
glyphname = i;
lastChange = "2013-01-25 15:37:48 -0800";
layers = (
{
layerId = "E08CDE4C-5D6C-43D8-8149-5F9E51F0B944";
name = "Bold Condensed";
paths = (
{
closed = 1;
nodes = (
"123 844 LINE",
"123 226 LINE SMOOTH",
"123 -29 OFFCURVE",
"396 -65 OFFCURVE",
"592 23 CURVE",
"565 179 LINE",
"445 137 OFFCURVE",
"331 129 OFFCURVE",
"331 279 CURVE SMOOTH",
"331 844 LINE"
);
},
{
closed = 1;
nodes = (
"147 1256 OFFCURVE",
"88 1202 OFFCURVE",
"88 1124 CURVE SMOOTH",
"88 1046 OFFCURVE",
"147 992 OFFCURVE",
"231 992 CURVE SMOOTH",
"315 992 OFFCURVE",
"374 1046 OFFCURVE",
"374 1123 CURVE SMOOTH",
"374 1201 OFFCURVE",
"315 1256 OFFCURVE",
"232 1256 CURVE SMOOTH"
);
}
);
width = 635;
}
);
unicode = 0069;
},
{
glyphname = j;
lastChange = "2013-01-25 15:37:48 -0800";
layers = (
{
layerId = "E08CDE4C-5D6C-43D8-8149-5F9E51F0B944";
name = "Bold Condensed";
paths = (
{
closed = 1;
nodes = (
"88 844 LINE",
"88 -51 LINE SMOOTH",
"88 -188 OFFCURVE",
"41 -255 OFFCURVE",
"-46 -255 CURVE SMOOTH",
"-51 -255 OFFCURVE",
"-81 -251 OFFCURVE",
"-136 -243 CURVE",
"-164 -408 LINE",
"-107 -422 OFFCURVE",
"-56 -428 OFFCURVE",
"-10 -428 CURVE SMOOTH",
"195 -428 OFFCURVE",
"296 -303 OFFCURVE",
"296 -45 CURVE SMOOTH",
"296 844 LINE"
);
},
{
closed = 1;
nodes = (
"98 1257 OFFCURVE",
"39 1202 OFFCURVE",
"39 1124 CURVE SMOOTH",
"39 1047 OFFCURVE",
"98 992 OFFCURVE",
"181 992 CURVE SMOOTH",
"266 992 OFFCURVE",
"325 1046 OFFCURVE",
"325 1123 CURVE SMOOTH",
"325 1202 OFFCURVE",
"266 1257 OFFCURVE",
"182 1257 CURVE SMOOTH"
);
}
);
width = 539;
}
);
unicode = 006A;
},
{
glyphname = k;
lastChange = "2013-01-26 16:25:19 -0800";
layers = (
{
anchors = (
{
name = bottom;
position = "{481, 0}";
}
);
layerId = "E08CDE4C-5D6C-43D8-8149-5F9E51F0B944";
name = "Bold Condensed";
paths = (
{
closed = 1;
nodes = (
"117 1225 LINE",
"117 72 LINE SMOOTH",
"117 -38 OFFCURVE",
"245 -76 OFFCURVE",
"310 14 CURVE",
"502 258 LINE",
"638 99 LINE SMOOTH",
"731 -10 OFFCURVE",
"825 -61 OFFCURVE",
"912 -61 CURVE",
"1010 104 LINE",
"904 106 OFFCURVE",
"856 148 OFFCURVE",
"776 241 CURVE SMOOTH",
"630 411 LINE",
"906 796 LINE",
"709 837 LINE",
"323 318 LINE",
"323 1251 LINE"
);
}
);
width = 1163;
}
);
unicode = 006B;
},
{
glyphname = l;
lastChange = "2013-01-26 16:25:44 -0800";
layers = (
{
anchors = (
{
name = bottom;
position = "{360, 0}";
},
{
name = top;
position = "{387, 1026}";
},
{
name = topright;
position = "{558, 1026}";
}
);
layerId = "E08CDE4C-5D6C-43D8-8149-5F9E51F0B944";
name = "Bold Condensed";
paths = (
{
closed = 1;
nodes = (
"117 1227 LINE",
"117 243 LINE SMOOTH",
"117 57 OFFCURVE",
"240 -22 OFFCURVE",
"410 -22 CURVE SMOOTH",
"475 -22 OFFCURVE",
"546 -10 OFFCURVE",
"620 11 CURVE",
"599 173 LINE",
"559 160 OFFCURVE",
"494 150 OFFCURVE",
"456 150 CURVE SMOOTH",
"374 150 OFFCURVE",
"325 193 OFFCURVE",
"325 288 CURVE SMOOTH",
"325 1252 LINE"
);
}
);
width = 717;
}
);
unicode = 006C;
},
{
glyphname = m;
lastChange = "2013-01-25 15:37:53 -0800";
layers = (
{
layerId = "E08CDE4C-5D6C-43D8-8149-5F9E51F0B944";
name = "Bold Condensed";
paths = (
{
closed = 1;
nodes = (
"995 862 OFFCURVE",
"896 795 OFFCURVE",
"841 678 CURVE",
"893 444 LINE",
"893 640 OFFCURVE",
"1020 688 OFFCURVE",
"1099 688 CURVE SMOOTH",
"1190 688 OFFCURVE",
"1246 615 OFFCURVE",
"1246 444 CURVE SMOOTH",
"1246 232 LINE SMOOTH",
"1246 13 OFFCURVE",
"1395 -46 OFFCURVE",
"1527 -17 CURVE",
"1615 147 LINE",
"1493 120 OFFCURVE",
"1452 181 OFFCURVE",
"1452 272 CURVE SMOOTH",
"1452 463 LINE SMOOTH",
"1452 715 OFFCURVE",
"1350 862 OFFCURVE",
"1141 862 CURVE SMOOTH"
);
},
{
closed = 1;
nodes = (
"36 768 LINE",
"69 726 OFFCURVE",
"122 687 OFFCURVE",
"122 517 CURVE SMOOTH",
"122 0 LINE",
"334 0 LINE",
"334 535 LINE",
"323 653 LINE",
"323 733 OFFCURVE",
"290 797 OFFCURVE",
"240 844 CURVE"
);
},
{
closed = 1;
nodes = (
"409 862 OFFCURVE",
"326 781 OFFCURVE",
"277 678 CURVE",
"330 510 LINE",
"363 641 OFFCURVE",
"469 694 OFFCURVE",
"550 694 CURVE SMOOTH",
"656 694 OFFCURVE",
"687 614 OFFCURVE",
"687 444 CURVE SMOOTH",
"687 0 LINE",
"893 0 LINE",
"893 463 LINE SMOOTH",
"893 704 OFFCURVE",
"788 862 OFFCURVE",
"582 862 CURVE SMOOTH"
);
}
);
width = 1591;
}
);
unicode = 006D;
},
{
glyphname = n;
lastChange = "2013-01-26 16:26:01 -0800";
layers = (
{
anchors = (
{
name = bottom;
position = "{569, 0}";
},
{
name = top;
position = "{575, 862}";
}
);
layerId = "E08CDE4C-5D6C-43D8-8149-5F9E51F0B944";
name = "Bold Condensed";
paths = (
{
closed = 1;
nodes = (
"491 862 OFFCURVE",
"356 787 OFFCURVE",
"304 677 CURVE",
"356 443 LINE",
"356 589 OFFCURVE",
"473 687 OFFCURVE",
"602 687 CURVE SMOOTH",
"703 687 OFFCURVE",
"750 589 OFFCURVE",
"750 443 CURVE SMOOTH",
"750 228 LINE SMOOTH",
"750 42 OFFCURVE",
"825 -58 OFFCURVE",
"1036 -21 CURVE",
"1053 143 LINE",
"956 121 OFFCURVE",
"956 174 OFFCURVE",
"956 271 CURVE SMOOTH",
"956 462 LINE SMOOTH",
"956 701 OFFCURVE",
"824 862 OFFCURVE",
"625 862 CURVE SMOOTH"
);
},
{
closed = 1;
nodes = (
"58 767 LINE",
"110 702 OFFCURVE",
"144 602 OFFCURVE",
"144 516 CURVE SMOOTH",
"144 0 LINE",
"356 0 LINE",
"356 534 LINE",
"345 652 LINE",
"345 720 OFFCURVE",
"312 796 OFFCURVE",
"262 843 CURVE"
);
}
);
width = 1106;
}
);
unicode = 006E;
},
{
glyphname = o;
lastChange = "2013-01-26 16:26:06 -0800";
layers = (
{
anchors = (
{
name = top;
position = "{537, 862}";
}
);
guideLines = (
{
angle = 90;
position = "{-401, 844}";
},
{
angle = 0;
position = "{-418, 181}";
},
{
angle = 0;
position = "{-430, 844}";
},
{
angle = 0;
position = "{-420, 181}";
}
);
layerId = "E08CDE4C-5D6C-43D8-8149-5F9E51F0B944";
name = "Bold Condensed";
paths = (
{
closed = 1;
nodes = (
"266 862 OFFCURVE",
"86 685 OFFCURVE",
"86 419 CURVE SMOOTH",
"86 154 OFFCURVE",
"267 -22 OFFCURVE",
"538 -22 CURVE SMOOTH",
"810 -22 OFFCURVE",
"991 155 OFFCURVE",
"991 420 CURVE SMOOTH",
"991 686 OFFCURVE",
"809 862 OFFCURVE",
"537 862 CURVE SMOOTH"
);
},
{
closed = 1;
nodes = (
"683 692 OFFCURVE",
"779 583 OFFCURVE",
"779 419 CURVE SMOOTH",
"779 255 OFFCURVE",
"683 146 OFFCURVE",
"539 146 CURVE SMOOTH",
"394 146 OFFCURVE",
"298 255 OFFCURVE",
"298 419 CURVE SMOOTH",
"298 583 OFFCURVE",
"394 692 OFFCURVE",
"538 692 CURVE SMOOTH"
);
}
);
width = 1077;
}
);
unicode = 006F;
},
{
glyphname = p;
lastChange = "2013-01-26 16:26:12 -0800";
layers = (
{
guideLines = (
{
angle = 0;
position = "{542, 862}";
}
);
layerId = "E08CDE4C-5D6C-43D8-8149-5F9E51F0B944";
name = "Bold Condensed";
paths = (
{
closed = 1;
nodes = (
"495 862 OFFCURVE",
"361 803 OFFCURVE",
"305 689 CURVE",
"122 589 LINE",
"326 53 LINE",
"392 9 OFFCURVE",
"498 -22 OFFCURVE",
"583 -22 CURVE SMOOTH",
"838 -22 OFFCURVE",
"1018 165 OFFCURVE",
"1018 430 CURVE SMOOTH",
"1018 697 OFFCURVE",
"842 862 OFFCURVE",
"604 862 CURVE SMOOTH"
);
},
{
closed = 1;
nodes = (
"27 768 LINE",
"60 725 OFFCURVE",
"113 686 OFFCURVE",
"113 516 CURVE SMOOTH",
"113 -426 LINE",
"325 -426 LINE",
"325 534 LINE",
"314 652 LINE",
"314 733 OFFCURVE",
"281 797 OFFCURVE",
"231 843 CURVE"
);
},
{
closed = 1;
nodes = (
"724 694 OFFCURVE",
"806 588 OFFCURVE",
"806 425 CURVE SMOOTH",
"806 260 OFFCURVE",
"702 145 OFFCURVE",
"553 145 CURVE SMOOTH",
"456 145 OFFCURVE",
"362 183 OFFCURVE",
"325 237 CURVE",
"325 351 LINE SMOOTH",
"325 551 OFFCURVE",
"432 694 OFFCURVE",
"582 694 CURVE SMOOTH"
);
}
);
width = 1104;
}
);
unicode = 0070;
},
{
glyphname = q;
lastChange = "2013-01-26 16:22:30 -0800";
layers = (
{
layerId = "E08CDE4C-5D6C-43D8-8149-5F9E51F0B944";
name = "Bold Condensed";
paths = (
{
closed = 1;
nodes = (
"1218 -216 LINE",
"991 -330 LINE",
"991 516 LINE",
"991 808 LINE",
"823 823 LINE",
"790 652 LINE",
"779 534 LINE",
"779 -426 LINE SMOOTH",
"779 -492 OFFCURVE",
"845 -614 OFFCURVE",
"988 -539 CURVE SMOOTH",
"1297 -377 LINE"
);
},
{
closed = 1;
nodes = (
"609 -22 OFFCURVE",
"789 20 OFFCURVE",
"819 171 CURVE SMOOTH",
"924 697 LINE",
"778 787 LINE",
"712 831 OFFCURVE",
"606 862 OFFCURVE",
"521 862 CURVE SMOOTH",
"266 862 OFFCURVE",
"86 675 OFFCURVE",
"86 410 CURVE SMOOTH",
"86 143 OFFCURVE",
"262 -22 OFFCURVE",
"500 -22 CURVE SMOOTH"
);
},
{
closed = 1;
nodes = (
"380 146 OFFCURVE",
"298 252 OFFCURVE",
"298 415 CURVE SMOOTH",
"298 580 OFFCURVE",
"402 695 OFFCURVE",
"551 695 CURVE SMOOTH",
"648 695 OFFCURVE",
"742 657 OFFCURVE",
"779 603 CURVE",
"779 449 LINE",
"779 233 OFFCURVE",
"672 146 OFFCURVE",
"522 146 CURVE SMOOTH"
);
}
);
width = 1137;
}
);
unicode = 0071;
},
{
glyphname = r;
lastChange = "2013-01-26 16:54:01 -0800";
layers = (
{
anchors = (
{
name = bottom;
position = "{379, 0}";
},
{
name = top;
position = "{420, 862}";
}
);
layerId = "E08CDE4C-5D6C-43D8-8149-5F9E51F0B944";
name = "Bold Condensed";
paths = (
{
closed = 1;
nodes = (
"58 772 LINE",
"91 730 OFFCURVE",
"144 690 OFFCURVE",
"144 521 CURVE SMOOTH",
"144 0 LINE",
"356 0 LINE",
"356 539 LINE",
"345 657 LINE",
"345 737 OFFCURVE",
"312 801 OFFCURVE",
"262 848 CURVE"
);
},
{
closed = 1;
nodes = (
"463 862 OFFCURVE",
"331 805 OFFCURVE",
"335 716 CURVE SMOOTH",
"353 416 LINE SMOOTH",
"353 411 OFFCURVE",
"350 673 OFFCURVE",
"573 673 CURVE SMOOTH",
"603 673 OFFCURVE",
"635 669 OFFCURVE",
"672 659 CURVE",
"687 846 LINE",
"657 854 OFFCURVE",
"628 862 OFFCURVE",
"560 862 CURVE SMOOTH"
);
}
);
width = 683;
}
);
unicode = 0072;
},
{
glyphname = s;
lastChange = "2013-01-26 16:22:55 -0800";
layers = (
{
anchors = (
{
name = bottom;
position = "{454, 0}";
},
{
name = top;
position = "{454, 862}";
}
);
layerId = "E08CDE4C-5D6C-43D8-8149-5F9E51F0B944";
name = "Bold Condensed";
paths = (
{
closed = 1;
nodes = (
"214 862 OFFCURVE",
"154 717 OFFCURVE",
"154 608 CURVE SMOOTH",
"154 485 OFFCURVE",
"212 417 OFFCURVE",
"403 355 CURVE SMOOTH",
"553 306 OFFCURVE",
"596 296 OFFCURVE",
"596 231 CURVE SMOOTH",
"596 182 OFFCURVE",
"567 140 OFFCURVE",
"474 140 CURVE SMOOTH",
"398 140 OFFCURVE",
"299 168 OFFCURVE",
"207 213 CURVE",
"163 64 LINE",
"224 18 OFFCURVE",
"357 -22 OFFCURVE",
"474 -22 CURVE SMOOTH",
"684 -22 OFFCURVE",
"784 88 OFFCURVE",
"784 256 CURVE SMOOTH",
"784 396 OFFCURVE",
"712 452 OFFCURVE",
"514 512 CURVE SMOOTH",
"391 549 OFFCURVE",
"351 575 OFFCURVE",
"351 624 CURVE SMOOTH",
"351 677 OFFCURVE",
"383 705 OFFCURVE",
"466 705 CURVE SMOOTH",
"538 705 OFFCURVE",
"631 682 OFFCURVE",
"709 643 CURVE",
"745 796 LINE",
"684 830 OFFCURVE",
"558 862 OFFCURVE",
"454 862 CURVE SMOOTH"
);
}
);
width = 907;
}
);
unicode = 0073;
},
{
glyphname = t;
lastChange = "2013-01-26 16:26:48 -0800";
layers = (
{
anchors = (
{
name = bottom;
position = "{486, 0}";
},
{
name = center;
position = "{287, 492}";
}
);
layerId = "E08CDE4C-5D6C-43D8-8149-5F9E51F0B944";
name = "Bold Condensed";
paths = (
{
closed = 1;
nodes = (
"183 1110 LINE",
"183 247 LINE SMOOTH",
"183 61 OFFCURVE",
"307 -18 OFFCURVE",
"476 -18 CURVE SMOOTH",
"541 -18 OFFCURVE",
"612 -6 OFFCURVE",
"686 15 CURVE",
"665 177 LINE",
"626 164 OFFCURVE",
"561 154 OFFCURVE",
"522 154 CURVE SMOOTH",
"440 154 OFFCURVE",
"392 197 OFFCURVE",
"392 292 CURVE SMOOTH",
"392 1135 LINE"
);
},
{
closed = 1;
nodes = (
"24 844 LINE",
"24 694 LINE",
"629 694 LINE",
"629 844 LINE"
);
}
);
width = 852;
}
);
unicode = 0074;
},
{
glyphname = u;
lastChange = "2013-01-26 16:27:03 -0800";
layers = (
{
anchors = (
{
name = ogonek;
position = "{1053, 0}";
},
{
name = top;
position = "{620, 844}";
}
);
layerId = "E08CDE4C-5D6C-43D8-8149-5F9E51F0B944";
name = "Bold Condensed";
paths = (
{
closed = 1;
nodes = (
"820 844 LINE",
"820 399 LINE SMOOTH",
"820 244 OFFCURVE",
"720 141 OFFCURVE",
"571 141 CURVE SMOOTH",
"486 141 OFFCURVE",
"433 213 OFFCURVE",
"436 321 CURVE SMOOTH",
"441 488 LINE SMOOTH",
"448 749 OFFCURVE",
"409 844 OFFCURVE",
"409 844 CURVE",
"197 822 LINE",
"197 822 OFFCURVE",
"237 716 OFFCURVE",
"229 477 CURVE SMOOTH",
"225 298 LINE SMOOTH",
"219 106 OFFCURVE",
"349 -22 OFFCURVE",
"550 -22 CURVE SMOOTH",
"672 -22 OFFCURVE",
"790 39 OFFCURVE",
"847 131 CURVE",
"867 49 OFFCURVE",
"975 -7 OFFCURVE",
"1113 -7 CURVE",
"1142 177 LINE",
"1075 177 OFFCURVE",
"1031 226 OFFCURVE",
"1031 299 CURVE SMOOTH",
"1031 844 LINE"
);
}
);
width = 1279;
}
);
unicode = 0075;
},
{
glyphname = v;
lastChange = "2013-01-25 15:37:48 -0800";
layers = (
{
layerId = "E08CDE4C-5D6C-43D8-8149-5F9E51F0B944";
name = "Bold Condensed";
paths = (
{
closed = 1;
nodes = (
"767 848 LINE",
"580 412 LINE SMOOTH",
"570 389 OFFCURVE",
"560 361 OFFCURVE",
"534 277 CURVE",
"521 322 OFFCURVE",
"503 373 OFFCURVE",
"486 412 CURVE SMOOTH",
"295 848 LINE",
"79 848 LINE",
"450 0 LINE",
"622 0 LINE",
"979 848 LINE"
);
}
);
width = 1063;
}
);
unicode = 0076;
},
{
glyphname = w;
lastChange = "2013-01-26 16:27:20 -0800";
layers = (
{
anchors = (
{
name = top;
position = "{864, 848}";
}
);
layerId = "E08CDE4C-5D6C-43D8-8149-5F9E51F0B944";
name = "Bold Condensed";
paths = (
{
closed = 1;
nodes = (
"171 848 LINE",
"509 0 LINE",
"681 0 LINE",
"957 723 LINE SMOOTH",
"1002 838 OFFCURVE",
"813 916 OFFCURVE",
"758 758 CURVE SMOOTH",
"639 412 LINE",
"629 389 OFFCURVE",
"618 361 OFFCURVE",
"593 277 CURVE",
"580 322 OFFCURVE",
"559 373 OFFCURVE",
"545 412 CURVE SMOOTH",
"387 848 LINE"
);
},
{
closed = 1;
nodes = (
"1353 848 LINE",
"1199 412 LINE",
"1189 389 OFFCURVE",
"1178 361 OFFCURVE",
"1153 277 CURVE",
"1139 322 OFFCURVE",
"1118 373 OFFCURVE",
"1104 412 CURVE SMOOTH",
"973 762 LINE SMOOTH",
"918 910 OFFCURVE",
"731 848 OFFCURVE",
"786 707 CURVE SMOOTH",
"1068 0 LINE",
"1240 0 LINE",
"1564 848 LINE"
);
}
);
width = 1735;
}
);
unicode = 0077;
},
{
glyphname = x;
lastChange = "2013-01-26 16:40:24 -0800";
layers = (
{
layerId = "E08CDE4C-5D6C-43D8-8149-5F9E51F0B944";
name = "Bold Condensed";
paths = (
{
closed = 1;
nodes = (
"708 848 LINE",
"460 507 LINE",
"399 485 LINE",
"18 0 LINE",
"245 0 LINE",
"536 367 LINE",
"613 408 LINE",
"946 848 LINE"
);
},
{
closed = 1;
nodes = (
"305 848 LINE",
"56 848 LINE",
"702 0 LINE",
"960 0 LINE"
);
}
);
width = 1087;
}
);
unicode = 0078;
},
{
glyphname = y;
lastChange = "2013-01-26 16:27:36 -0800";
layers = (
{
anchors = (
{
name = top;
position = "{604, 844}";
}
);
layerId = "E08CDE4C-5D6C-43D8-8149-5F9E51F0B944";
name = "Bold Condensed";
paths = (
{
closed = 1;
nodes = (
"804 844 LINE",
"804 399 LINE SMOOTH",
"806 244 OFFCURVE",
"704 141 OFFCURVE",
"555 141 CURVE SMOOTH",
"471 141 OFFCURVE",
"417 213 OFFCURVE",
"421 321 CURVE SMOOTH",
"425 488 LINE SMOOTH",
"433 749 OFFCURVE",
"394 844 OFFCURVE",
"394 844 CURVE",
"182 822 LINE",
"182 822 OFFCURVE",
"222 716 OFFCURVE",
"214 477 CURVE SMOOTH",
"209 298 LINE SMOOTH",
"204 106 OFFCURVE",
"334 -22 OFFCURVE",
"534 -22 CURVE SMOOTH",
"656 -22 OFFCURVE",
"776 39 OFFCURVE",
"834 131 CURVE",
"854 49 OFFCURVE",
"1015 226 OFFCURVE",
"1015 299 CURVE SMOOTH",
"1015 844 LINE"
);
},
{
closed = 1;
nodes = (
"807 244 LINE",
"809 103 LINE",
"806 -42 LINE SMOOTH",
"806 -245 OFFCURVE",
"667 -281 OFFCURVE",
"509 -281 CURVE SMOOTH",
"428 -281 OFFCURVE",
"342 -261 OFFCURVE",
"268 -224 CURVE",
"228 -395 LINE",
"327 -441 OFFCURVE",
"439 -466 OFFCURVE",
"546 -466 CURVE SMOOTH",
"796 -466 OFFCURVE",
"1014 -345 OFFCURVE",
"1015 -9 CURVE SMOOTH",
"1016 299 LINE"
);
}
);
width = 1224;
}
);
unicode = 0079;
},
{
glyphname = z;
lastChange = "2013-01-26 16:27:53 -0800";
layers = (
{
anchors = (
{
name = top;
position = "{505, 848}";
}
);
layerId = "E08CDE4C-5D6C-43D8-8149-5F9E51F0B944";
name = "Bold Condensed";
paths = (
{
closed = 1;
nodes = (
"175 848 LINE",
"175 702 LINE",
"585 702 LINE",
"153 132 LINE",
"153 0 LINE",
"847 0 LINE",
"847 157 LINE",
"406 157 LINE",
"833 718 LINE",
"833 848 LINE"
);
}
);
width = 978;
}
);
unicode = 007A;
},
{
glyphname = braceleft;
lastChange = "2013-01-25 15:14:11 -0800";
layers = (
{
layerId = "E08CDE4C-5D6C-43D8-8149-5F9E51F0B944";
name = "Bold Condensed";
paths = (
{
closed = 1;
nodes = (
"350 1451 OFFCURVE",
"243 1356 OFFCURVE",
"243 1143 CURVE",
"244 1101 OFFCURVE",
"245 1058 OFFCURVE",
"245 1016 CURVE SMOOTH",
"245 974 OFFCURVE",
"246 932 OFFCURVE",
"247 890 CURVE",
"247 759 OFFCURVE",
"206 667 OFFCURVE",
"86 656 CURVE",
"86 534 LINE",
"222 520 OFFCURVE",
"244 422 OFFCURVE",
"244 274 CURVE SMOOTH",
"243 11 LINE SMOOTH",
"243 -183 OFFCURVE",
"380 -251 OFFCURVE",
"566 -259 CURVE",
"566 -133 LINE",
"535 -133 OFFCURVE",
"509 -129 OFFCURVE",
"488 -122 CURVE SMOOTH",
"411 -95 OFFCURVE",
"403 -2 OFFCURVE",
"403 107 CURVE SMOOTH",
"403 172 OFFCURVE",
"405 261 OFFCURVE",
"405 325 CURVE SMOOTH",
"405 455 OFFCURVE",
"360 552 OFFCURVE",
"268 595 CURVE",
"351 640 OFFCURVE",
"408 737 OFFCURVE",
"408 868 CURVE SMOOTH",
"409 1157 LINE SMOOTH",
"409 1273 OFFCURVE",
"454 1322 OFFCURVE",
"566 1325 CURVE",
"566 1451 LINE"
);
}
);
width = 627;
}
);
unicode = 007B;
},
{
glyphname = bar;
lastChange = "2013-01-25 15:14:08 -0800";
layers = (
{
layerId = "E08CDE4C-5D6C-43D8-8149-5F9E51F0B944";
name = "Bold Condensed";
paths = (
{
closed = 1;
nodes = (
"168 1545 LINE",
"168 -491 LINE",
"325 -491 LINE",
"325 1545 LINE"
);
}
);
width = 500;
}
);
unicode = 007C;
},
{
glyphname = braceright;
lastChange = "2013-01-25 15:14:11 -0800";
layers = (
{
layerId = "E08CDE4C-5D6C-43D8-8149-5F9E51F0B944";
name = "Bold Condensed";
paths = (
{
closed = 1;
nodes = (
"66 1325 LINE",
"178 1322 OFFCURVE",
"223 1273 OFFCURVE",
"223 1157 CURVE",
"224 868 LINE",
"224 736 OFFCURVE",
"279 639 OFFCURVE",
"364 595 CURVE",
"272 552 OFFCURVE",
"227 455 OFFCURVE",
"227 325 CURVE SMOOTH",
"227 260 OFFCURVE",
"229 172 OFFCURVE",
"229 107 CURVE SMOOTH",
"229 60 OFFCURVE",
"226 21 OFFCURVE",
"221 -10 CURVE SMOOTH",
"206 -96 OFFCURVE",
"166 -133 OFFCURVE",
"66 -133 CURVE",
"66 -259 LINE",
"252 -251 OFFCURVE",
"389 -183 OFFCURVE",
"389 11 CURVE SMOOTH",
"388 274 LINE SMOOTH",
"388 305 OFFCURVE",
"388 334 OFFCURVE",
"390 364 CURVE SMOOTH",
"396 466 OFFCURVE",
"445 524 OFFCURVE",
"546 534 CURVE",
"547 656 LINE",
"427 667 OFFCURVE",
"385 759 OFFCURVE",
"385 890 CURVE SMOOTH",
"386 932 OFFCURVE",
"387 974 OFFCURVE",
"387 1016 CURVE SMOOTH",
"387 1058 OFFCURVE",
"388 1101 OFFCURVE",
"389 1143 CURVE SMOOTH",
"389 1356 OFFCURVE",
"281 1451 OFFCURVE",
"66 1451 CURVE"
);
}
);
width = 627;
}
);
unicode = 007D;
},
{
glyphname = asciitilde;
lastChange = "2013-01-25 15:14:11 -0800";
layers = (
{
layerId = "E08CDE4C-5D6C-43D8-8149-5F9E51F0B944";
name = "Bold Condensed";
paths = (
{
closed = 1;
nodes = (
"1112 641 OFFCURVE",
"1057 545 OFFCURVE",
"957 545 CURVE SMOOTH",
"941 545 OFFCURVE",
"922 549 OFFCURVE",
"900 557 CURVE SMOOTH",
"819 587 OFFCURVE",
"739 632 OFFCURVE",
"658 664 CURVE SMOOTH",
"609 683 OFFCURVE",
"552 705 OFFCURVE",
"491 705 CURVE SMOOTH",
"449 705 OFFCURVE",
"411 698 OFFCURVE",
"377 683 CURVE SMOOTH",
"280 641 OFFCURVE",
"213 553 OFFCURVE",
"189 440 CURVE",
"304 385 LINE",
"325 475 OFFCURVE",
"384 571 OFFCURVE",
"494 571 CURVE SMOOTH",
"515 571 OFFCURVE",
"538 567 OFFCURVE",
"564 559 CURVE SMOOTH",
"650 532 OFFCURVE",
"731 487 OFFCURVE",
"810 452 CURVE SMOOTH",
"852 433 OFFCURVE",
"904 410 OFFCURVE",
"956 410 CURVE SMOOTH",
"996 410 OFFCURVE",
"1032 416 OFFCURVE",
"1065 430 CURVE SMOOTH",
"1167 473 OFFCURVE",
"1228 566 OFFCURVE",
"1256 684 CURVE",
"1131 723 LINE"
);
}
);
width = 1458;
}
);
unicode = 007E;
},
{
glyphname = dagger;
lastChange = "2013-01-25 15:14:08 -0800";
layers = (
{
layerId = "E08CDE4C-5D6C-43D8-8149-5F9E51F0B944";
name = "Bold Condensed";
paths = (
{
closed = 1;
nodes = (
"433 1451 LINE",
"433 1066 LINE",
"107 1066 LINE",
"107 934 LINE",
"433 934 LINE",
"433 113 LINE",
"561 113 LINE",
"561 934 LINE",
"919 934 LINE",
"919 1066 LINE",
"575 1066 LINE",
"575 1451 LINE"
);
}
);
width = 1022;
}
);
unicode = 2020;
},
{
glyphname = degree;
lastChange = "2013-01-25 15:14:11 -0800";
layers = (
{
layerId = "E08CDE4C-5D6C-43D8-8149-5F9E51F0B944";
name = "Bold Condensed";
paths = (
{
closed = 1;
nodes = (
"371 1444 OFFCURVE",
"330 1436 OFFCURVE",
"291 1421 CURVE SMOOTH",
"189 1380 OFFCURVE",
"95 1289 OFFCURVE",
"95 1150 CURVE SMOOTH",
"95 1109 OFFCURVE",
"103 1072 OFFCURVE",
"120 1036 CURVE SMOOTH",
"167 937 OFFCURVE",
"271 855 OFFCURVE",
"414 855 CURVE SMOOTH",
"457 855 OFFCURVE",
"497 862 OFFCURVE",
"536 878 CURVE SMOOTH",
"638 919 OFFCURVE",
"733 1010 OFFCURVE",
"733 1150 CURVE SMOOTH",
"733 1191 OFFCURVE",
"725 1228 OFFCURVE",
"708 1264 CURVE SMOOTH",
"661 1363 OFFCURVE",
"558 1444 OFFCURVE",
"414 1444 CURVE SMOOTH"
);
},
{
closed = 1;
nodes = (
"440 1328 OFFCURVE",
"464 1323 OFFCURVE",
"488 1314 CURVE SMOOTH",
"551 1290 OFFCURVE",
"608 1237 OFFCURVE",
"608 1151 CURVE SMOOTH",
"608 1126 OFFCURVE",
"603 1102 OFFCURVE",
"593 1080 CURVE SMOOTH",
"565 1019 OFFCURVE",
"502 971 OFFCURVE",
"414 971 CURVE SMOOTH",
"387 971 OFFCURVE",
"361 976 OFFCURVE",
"338 985 CURVE SMOOTH",
"275 1010 OFFCURVE",
"220 1064 OFFCURVE",
"220 1151 CURVE SMOOTH",
"220 1176 OFFCURVE",
"226 1200 OFFCURVE",
"236 1222 CURVE SMOOTH",
"265 1282 OFFCURVE",
"327 1328 OFFCURVE",
"414 1328 CURVE SMOOTH"
);
}
);
width = 844;
}
);
unicode = 00B0;
},
{
glyphname = cent;
lastChange = "2013-01-25 15:14:11 -0800";
layers = (
{
layerId = "E08CDE4C-5D6C-43D8-8149-5F9E51F0B944";
name = "Bold Condensed";
paths = (
{
closed = 1;
nodes = (
"289 1051 OFFCURVE",
"94 824 OFFCURVE",
"94 503 CURVE SMOOTH",
"94 193 OFFCURVE",
"315 -23 OFFCURVE",
"609 -23 CURVE SMOOTH",
"723 -23 OFFCURVE",
"849 11 OFFCURVE",
"976 87 CURVE",
"940 225 LINE",
"825 146 OFFCURVE",
"714 117 OFFCURVE",
"616 117 CURVE SMOOTH",
"412 117 OFFCURVE",
"267 258 OFFCURVE",
"267 508 CURVE SMOOTH",
"267 737 OFFCURVE",
"389 909 OFFCURVE",
"619 909 CURVE SMOOTH",
"738 909 OFFCURVE",
"826 872 OFFCURVE",
"883 801 CURVE",
"960 912 LINE",
"892 1002 OFFCURVE",
"769 1051 OFFCURVE",
"610 1051 CURVE SMOOTH"
);
},
{
closed = 1;
nodes = (
"553 1281 LINE",
"553 -235 LINE",
"666 -235 LINE",
"666 1281 LINE"
);
}
);
width = 1189;
}
);
unicode = 00A2;
},
{
glyphname = sterling;
lastChange = "2013-01-25 15:14:11 -0800";
layers = (
{
layerId = "E08CDE4C-5D6C-43D8-8149-5F9E51F0B944";
name = "Bold Condensed";
paths = (
{
closed = 1;
nodes = (
"380 1448 OFFCURVE",
"294 1211 OFFCURVE",
"294 861 CURVE SMOOTH",
"294 851 OFFCURVE",
"295 842 OFFCURVE",
"296 832 CURVE",
"114 832 LINE",
"114 690 LINE",
"297 690 LINE",
"297 440 LINE SMOOTH",
"297 272 OFFCURVE",
"218 199 OFFCURVE",
"114 138 CURVE",
"115 0 LINE",
"1081 0 LINE",
"1081 141 LINE",
"370 141 LINE",
"386 154 OFFCURVE",
"400 171 OFFCURVE",
"411 194 CURVE SMOOTH",
"466 305 OFFCURVE",
"468 476 OFFCURVE",
"468 641 CURVE SMOOTH",
"468 690 LINE",
"798 690 LINE",
"798 832 LINE",
"466 832 LINE",
"463 947 LINE SMOOTH",
"463 1156 OFFCURVE",
"528 1307 OFFCURVE",
"736 1307 CURVE SMOOTH",
"847 1307 OFFCURVE",
"940 1280 OFFCURVE",
"1010 1237 CURVE",
"1062 1357 LINE",
"985 1418 OFFCURVE",
"876 1448 OFFCURVE",
"733 1448 CURVE SMOOTH"
);
}
);
width = 1189;
}
);
unicode = 00A3;
},
{
glyphname = section;
lastChange = "2013-01-25 15:14:11 -0800";
layers = (
{
layerId = "E08CDE4C-5D6C-43D8-8149-5F9E51F0B944";
name = "Bold Condensed";
paths = (
{
closed = 1;
nodes = (
"403 1493 OFFCURVE",
"221 1416 OFFCURVE",
"221 1217 CURVE SMOOTH",
"221 1090 OFFCURVE",
"289 1027 OFFCURVE",
"374 975 CURVE",
"286 931 OFFCURVE",
"185 859 OFFCURVE",
"185 729 CURVE SMOOTH",
"185 697 OFFCURVE",
"191 667 OFFCURVE",
"202 640 CURVE SMOOTH",
"240 547 OFFCURVE",
"327 494 OFFCURVE",
"421 454 CURVE SMOOTH",
"505 418 LINE SMOOTH",
"538 404 OFFCURVE",
"568 391 OFFCURVE",
"594 379 CURVE SMOOTH",
"652 352 OFFCURVE",
"715 322 OFFCURVE",
"715 243 CURVE SMOOTH",
"715 221 OFFCURVE",
"710 201 OFFCURVE",
"699 182 CURVE SMOOTH",
"663 119 OFFCURVE",
"578 89 OFFCURVE",
"477 89 CURVE SMOOTH",
"373 89 OFFCURVE",
"293 116 OFFCURVE",
"210 153 CURVE",
"212 4 LINE",
"288 -27 OFFCURVE",
"380 -48 OFFCURVE",
"482 -48 CURVE SMOOTH",
"595 -48 OFFCURVE",
"696 -18 OFFCURVE",
"765 30 CURVE SMOOTH",
"831 76 OFFCURVE",
"888 146 OFFCURVE",
"888 252 CURVE SMOOTH",
"888 378 OFFCURVE",
"810 437 OFFCURVE",
"725 480 CURVE",
"808 531 OFFCURVE",
"911 606 OFFCURVE",
"911 737 CURVE SMOOTH",
"911 772 OFFCURVE",
"902 804 OFFCURVE",
"886 832 CURVE SMOOTH",
"812 957 OFFCURVE",
"636 1001 OFFCURVE",
"506 1072 CURVE SMOOTH",
"448 1104 OFFCURVE",
"393 1140 OFFCURVE",
"393 1221 CURVE SMOOTH",
"393 1328 OFFCURVE",
"499 1356 OFFCURVE",
"608 1356 CURVE SMOOTH",
"692 1356 OFFCURVE",
"774 1332 OFFCURVE",
"834 1304 CURVE",
"832 1452 LINE",
"757 1475 OFFCURVE",
"696 1493 OFFCURVE",
"603 1493 CURVE SMOOTH"
);
},
{
closed = 1;
nodes = (
"575 868 OFFCURVE",
"733 846 OFFCURVE",
"733 723 CURVE SMOOTH",
"733 703 OFFCURVE",
"729 685 OFFCURVE",
"720 668 CURVE SMOOTH",
"693 615 OFFCURVE",
"640 578 OFFCURVE",
"591 547 CURVE",
"557 561 OFFCURVE",
"526 574 OFFCURVE",
"498 587 CURVE SMOOTH",
"434 616 OFFCURVE",
"362 653 OFFCURVE",
"362 741 CURVE SMOOTH",
"362 831 OFFCURVE",
"435 880 OFFCURVE",
"495 912 CURVE"
);
}
);
width = 1097;
}
);
unicode = 00A7;
},
{
glyphname = bullet;
lastChange = "2013-01-25 15:14:11 -0800";
layers = (
{
layerId = "E08CDE4C-5D6C-43D8-8149-5F9E51F0B944";
name = "Bold Condensed";
paths = (
{
closed = 1;
nodes = (
"453 1010 OFFCURVE",
"409 1002 OFFCURVE",
"368 985 CURVE SMOOTH",
"259 941 OFFCURVE",
"157 842 OFFCURVE",
"157 694 CURVE SMOOTH",
"157 652 OFFCURVE",
"166 612 OFFCURVE",
"183 575 CURVE SMOOTH",
"232 469 OFFCURVE",
"340 385 OFFCURVE",
"493 385 CURVE SMOOTH",
"594 385 OFFCURVE",
"677 426 OFFCURVE",
"732 478 CURVE SMOOTH",
"786 528 OFFCURVE",
"833 604 OFFCURVE",
"833 701 CURVE SMOOTH",
"833 743 OFFCURVE",
"824 782 OFFCURVE",
"806 820 CURVE SMOOTH",
"757 925 OFFCURVE",
"650 1010 OFFCURVE",
"498 1010 CURVE SMOOTH"
);
}
);
width = 988;
}
);
unicode = 2022;
},
{
glyphname = paragraph;
lastChange = "2013-01-25 15:14:11 -0800";
layers = (
{
layerId = "E08CDE4C-5D6C-43D8-8149-5F9E51F0B944";
name = "Bold Condensed";
paths = (
{
closed = 1;
nodes = (
"623 1451 LINE SMOOTH",
"359 1451 OFFCURVE",
"107 1394 OFFCURVE",
"107 1130 CURVE SMOOTH",
"107 1079 OFFCURVE",
"116 1032 OFFCURVE",
"134 990 CURVE SMOOTH",
"182 877 OFFCURVE",
"286 788 OFFCURVE",
"442 786 CURVE",
"442 -148 LINE",
"585 -148 LINE",
"585 1327 LINE",
"793 1327 LINE",
"793 -148 LINE",
"922 -148 LINE",
"922 1327 LINE",
"1009 1327 LINE",
"1009 1451 LINE"
);
}
);
width = 1214;
}
);
unicode = 00B6;
},
{
glyphname = germandbls;
lastChange = "2013-01-25 15:14:11 -0800";
layers = (
{
layerId = "E08CDE4C-5D6C-43D8-8149-5F9E51F0B944";
name = "Bold Condensed";
paths = (
{
closed = 1;
nodes = (
"535 1511 OFFCURVE",
"474 1501 OFFCURVE",
"420 1480 CURVE SMOOTH",
"267 1420 OFFCURVE",
"174 1282 OFFCURVE",
"174 1071 CURVE",
"176 0 LINE",
"341 0 LINE",
"341 101 OFFCURVE",
"340 217 OFFCURVE",
"340 326 CURVE SMOOTH",
"340 450 OFFCURVE",
"338 587 OFFCURVE",
"338 711 CURVE SMOOTH",
"338 820 OFFCURVE",
"337 937 OFFCURVE",
"337 1038 CURVE SMOOTH",
"337 1228 OFFCURVE",
"413 1382 OFFCURVE",
"603 1382 CURVE SMOOTH",
"731 1382 OFFCURVE",
"823 1318 OFFCURVE",
"823 1191 CURVE SMOOTH",
"823 1157 OFFCURVE",
"817 1125 OFFCURVE",
"804 1095 CURVE SMOOTH",
"763 1001 OFFCURVE",
"681 934 OFFCURVE",
"588 892 CURVE",
"572 756 LINE",
"672 699 OFFCURVE",
"777 641 OFFCURVE",
"858 570 CURVE SMOOTH",
"924 512 OFFCURVE",
"986 437 OFFCURVE",
"986 322 CURVE SMOOTH",
"986 197 OFFCURVE",
"911 109 OFFCURVE",
"788 109 CURVE SMOOTH",
"679 109 OFFCURVE",
"597 173 OFFCURVE",
"536 243 CURVE",
"471 138 LINE",
"543 47 OFFCURVE",
"648 -23 OFFCURVE",
"792 -23 CURVE SMOOTH",
"841 -23 OFFCURVE",
"888 -14 OFFCURVE",
"934 3 CURVE SMOOTH",
"1064 52 OFFCURVE",
"1173 164 OFFCURVE",
"1173 341 CURVE SMOOTH",
"1173 407 OFFCURVE",
"1160 464 OFFCURVE",
"1133 514 CURVE SMOOTH",
"1054 661 OFFCURVE",
"896 747 OFFCURVE",
"722 798 CURVE SMOOTH",
"703 804 OFFCURVE",
"693 810 OFFCURVE",
"693 816 CURVE SMOOTH",
"693 827 OFFCURVE",
"710 834 OFFCURVE",
"719 838 CURVE SMOOTH",
"788 868 OFFCURVE",
"852 916 OFFCURVE",
"903 968 CURVE SMOOTH",
"955 1020 OFFCURVE",
"1011 1093 OFFCURVE",
"1011 1192 CURVE SMOOTH",
"1011 1236 OFFCURVE",
"1002 1277 OFFCURVE",
"984 1316 CURVE SMOOTH",
"925 1440 OFFCURVE",
"788 1511 OFFCURVE",
"604 1511 CURVE SMOOTH"
);
}
);
width = 1257;
}
);
unicode = 00DF;
},
{
glyphname = registered;
lastChange = "2013-01-25 15:14:11 -0800";
layers = (
{
layerId = "E08CDE4C-5D6C-43D8-8149-5F9E51F0B944";
name = "Bold Condensed";
paths = (
{
closed = 1;
nodes = (
"659 1483 OFFCURVE",
"474 1385 OFFCURVE",
"341 1260 CURVE SMOOTH",
"213 1139 OFFCURVE",
"103 967 OFFCURVE",
"103 726 CURVE SMOOTH",
"103 657 OFFCURVE",
"113 590 OFFCURVE",
"132 526 CURVE SMOOTH",
"173 391 OFFCURVE",
"246 280 OFFCURVE",
"340 192 CURVE SMOOTH",
"473 67 OFFCURVE",
"662 -32 OFFCURVE",
"914 -32 CURVE SMOOTH",
"1163 -32 OFFCURVE",
"1348 67 OFFCURVE",
"1480 192 CURVE SMOOTH",
"1608 313 OFFCURVE",
"1717 485 OFFCURVE",
"1717 725 CURVE SMOOTH",
"1717 794 OFFCURVE",
"1707 860 OFFCURVE",
"1688 924 CURVE SMOOTH",
"1647 1059 OFFCURVE",
"1573 1170 OFFCURVE",
"1480 1258 CURVE SMOOTH",
"1347 1383 OFFCURVE",
"1160 1483 OFFCURVE",
"908 1483 CURVE SMOOTH"
);
},
{
closed = 1;
nodes = (
"1116 1366 OFFCURVE",
"1283 1285 OFFCURVE",
"1394 1180 CURVE SMOOTH",
"1503 1077 OFFCURVE",
"1590 924 OFFCURVE",
"1590 724 CURVE SMOOTH",
"1590 519 OFFCURVE",
"1505 372 OFFCURVE",
"1396 270 CURVE SMOOTH",
"1284 165 OFFCURVE",
"1126 85 OFFCURVE",
"913 85 CURVE SMOOTH",
"705 85 OFFCURVE",
"538 164 OFFCURVE",
"426 270 CURVE SMOOTH",
"317 373 OFFCURVE",
"230 527 OFFCURVE",
"230 727 CURVE SMOOTH",
"230 926 OFFCURVE",
"317 1079 OFFCURVE",
"426 1182 CURVE SMOOTH",
"537 1287 OFFCURVE",
"703 1366 OFFCURVE",
"909 1366 CURVE SMOOTH"
);
},
{
closed = 1;
nodes = (
"597 1192 LINE",
"597 273 LINE",
"745 273 LINE",
"745 664 LINE",
"882 664 LINE",
"943 625 OFFCURVE",
"987 557 OFFCURVE",
"1029 485 CURVE SMOOTH",
"1152 273 LINE",
"1320 273 LINE",
"1287 327 OFFCURVE",
"1258 375 OFFCURVE",
"1231 418 CURVE SMOOTH",
"1170 515 OFFCURVE",
"1113 609 OFFCURVE",
"1036 681 CURVE",
"1182 700 OFFCURVE",
"1301 775 OFFCURVE",
"1301 935 CURVE SMOOTH",
"1301 1018 OFFCURVE",
"1266 1082 OFFCURVE",
"1195 1126 CURVE SMOOTH",
"1124 1170 OFFCURVE",
"1016 1192 OFFCURVE",
"870 1192 CURVE SMOOTH"
);
},
{
closed = 1;
nodes = (
"1019 1072 OFFCURVE",
"1146 1071 OFFCURVE",
"1146 920 CURVE SMOOTH",
"1146 784 OFFCURVE",
"1006 783 OFFCURVE",
"868 783 CURVE SMOOTH",
"743 783 LINE",
"742 1072 LINE",
"866 1072 LINE SMOOTH"
);
}
);
width = 1829;
}
);
unicode = 00AE;
},
{
glyphname = copyright;
lastChange = "2013-01-25 15:14:11 -0800";
layers = (
{
layerId = "E08CDE4C-5D6C-43D8-8149-5F9E51F0B944";
name = "Bold Condensed";
paths = (
{
closed = 1;
nodes = (
"659 1483 OFFCURVE",
"474 1385 OFFCURVE",
"341 1260 CURVE SMOOTH",
"213 1139 OFFCURVE",
"103 967 OFFCURVE",
"103 726 CURVE SMOOTH",
"103 657 OFFCURVE",
"113 590 OFFCURVE",
"132 526 CURVE SMOOTH",
"173 391 OFFCURVE",
"246 280 OFFCURVE",
"340 192 CURVE SMOOTH",
"473 67 OFFCURVE",
"662 -32 OFFCURVE",
"914 -32 CURVE SMOOTH",
"1163 -32 OFFCURVE",
"1348 67 OFFCURVE",
"1480 192 CURVE SMOOTH",
"1608 313 OFFCURVE",
"1717 485 OFFCURVE",
"1717 725 CURVE SMOOTH",
"1717 794 OFFCURVE",
"1707 860 OFFCURVE",
"1688 924 CURVE SMOOTH",
"1647 1059 OFFCURVE",
"1573 1170 OFFCURVE",
"1480 1258 CURVE SMOOTH",
"1347 1383 OFFCURVE",
"1160 1483 OFFCURVE",
"908 1483 CURVE SMOOTH"
);
},
{
closed = 1;
nodes = (
"877 1208 OFFCURVE",
"810 1196 OFFCURVE",
"750 1172 CURVE SMOOTH",
"583 1106 OFFCURVE",
"460 959 OFFCURVE",
"460 729 CURVE SMOOTH",
"460 662 OFFCURVE",
"472 600 OFFCURVE",
"496 542 CURVE SMOOTH",
"563 378 OFFCURVE",
"713 249 OFFCURVE",
"940 249 CURVE SMOOTH",
"1060 249 OFFCURVE",
"1163 279 OFFCURVE",
"1249 339 CURVE",
"1210 460 LINE",
"1150 411 OFFCURVE",
"1073 380 OFFCURVE",
"972 380 CURVE SMOOTH",
"913 380 OFFCURVE",
"861 390 OFFCURVE",
"816 408 CURVE SMOOTH",
"695 458 OFFCURVE",
"613 566 OFFCURVE",
"613 733 CURVE SMOOTH",
"613 781 OFFCURVE",
"621 826 OFFCURVE",
"636 868 CURVE SMOOTH",
"680 989 OFFCURVE",
"782 1080 OFFCURVE",
"944 1080 CURVE SMOOTH",
"1051 1080 OFFCURVE",
"1141 1048 OFFCURVE",
"1214 985 CURVE",
"1245 1105 LINE",
"1164 1174 OFFCURVE",
"1066 1208 OFFCURVE",
"951 1208 CURVE SMOOTH"
);
},
{
closed = 1;
nodes = (
"1116 1366 OFFCURVE",
"1283 1285 OFFCURVE",
"1394 1180 CURVE SMOOTH",
"1503 1077 OFFCURVE",
"1590 924 OFFCURVE",
"1590 724 CURVE SMOOTH",
"1590 525 OFFCURVE",
"1503 372 OFFCURVE",
"1395 270 CURVE SMOOTH",
"1284 165 OFFCURVE",
"1120 85 OFFCURVE",
"913 85 CURVE SMOOTH",
"705 85 OFFCURVE",
"538 164 OFFCURVE",
"426 270 CURVE SMOOTH",
"317 373 OFFCURVE",
"230 527 OFFCURVE",
"230 727 CURVE SMOOTH",
"230 926 OFFCURVE",
"317 1080 OFFCURVE",
"426 1182 CURVE SMOOTH",
"537 1286 OFFCURVE",
"703 1366 OFFCURVE",
"909 1366 CURVE SMOOTH"
);
}
);
width = 1829;
}
);
unicode = 00A9;
},
{
glyphname = trademark;
lastChange = "2013-01-25 15:14:08 -0800";
layers = (
{
layerId = "E08CDE4C-5D6C-43D8-8149-5F9E51F0B944";
name = "Bold Condensed";
paths = (
{
closed = 1;
nodes = (
"1495 1451 LINE",
"1245 900 LINE",
"1009 1451 LINE",
"819 1451 LINE",
"819 686 LINE",
"940 686 LINE",
"940 1280 LINE",
"1199 686 LINE",
"1279 686 LINE",
"1553 1281 LINE",
"1553 686 LINE",
"1675 686 LINE",
"1675 1451 LINE"
);
},
{
closed = 1;
nodes = (
"70 1451 LINE",
"70 1350 LINE",
"323 1350 LINE",
"323 686 LINE",
"447 686 LINE",
"447 1350 LINE",
"707 1350 LINE",
"707 1451 LINE"
);
}
);
width = 1869;
}
);
unicode = 2122;
},
{
glyphname = acute;
lastChange = "2013-01-26 16:28:40 -0800";
layers = (
{
anchors = (
{
name = _top;
position = "{280, 1026}";
}
);
layerId = "E08CDE4C-5D6C-43D8-8149-5F9E51F0B944";
name = "Bold Condensed";
paths = (
{
closed = 1;
nodes = (
"401 1492 LINE",
"175 1172 LINE",
"365 1172 LINE",
"673 1492 LINE"
);
}
);
width = 607;
}
);
unicode = 00B4;
},
{
glyphname = dieresis;
lastChange = "2013-01-26 16:28:51 -0800";
layers = (
{
anchors = (
{
name = _top;
position = "{369, 1026}";
}
);
layerId = "E08CDE4C-5D6C-43D8-8149-5F9E51F0B944";
name = "Bold Condensed";
paths = (
{
closed = 1;
nodes = (
"443 1406 LINE",
"443 1183 LINE",
"667 1183 LINE",
"667 1406 LINE"
);
},
{
closed = 1;
nodes = (
"81 1406 LINE",
"81 1183 LINE",
"305 1183 LINE",
"305 1406 LINE"
);
}
);
width = 743;
}
);
unicode = 00A8;
},
{
glyphname = notequal;
lastChange = "2013-01-25 15:14:11 -0800";
layers = (
{
layerId = "E08CDE4C-5D6C-43D8-8149-5F9E51F0B944";
name = "Bold Condensed";
paths = (
{
closed = 1;
nodes = (
"728 849 LINE",
"160 849 LINE",
"170 728 LINE",
"671 728 LINE",
"524 445 LINE",
"161 445 LINE",
"170 325 LINE",
"463 325 LINE",
"335 64 LINE",
"457 46 LINE",
"597 325 LINE",
"1182 325 LINE",
"1173 445 LINE",
"656 445 LINE",
"804 728 LINE",
"1182 728 LINE",
"1172 849 LINE",
"862 849 LINE",
"989 1105 LINE",
"864 1123 LINE"
);
}
);
width = 1351;
}
);
unicode = 2260;
},
{
glyphname = AE;
lastChange = "2013-01-25 15:14:11 -0800";
layers = (
{
anchors = (
{
name = top;
position = "{1014, 0}";
}
);
layerId = "E08CDE4C-5D6C-43D8-8149-5F9E51F0B944";
name = "Bold Condensed";
paths = (
{
closed = 1;
nodes = (
"836 1456 LINE",
"5 0 LINE",
"201 0 LINE",
"427 398 LINE",
"1073 398 LINE",
"1104 0 LINE",
"1901 0 LINE",
"1901 148 LINE",
"1257 148 LINE",
"1216 672 LINE",
"1837 672 LINE",
"1837 820 LINE",
"1197 820 LINE",
"1159 1308 LINE",
"1878 1308 LINE",
"1878 1456 LINE"
);
},
{
closed = 1;
nodes = (
"1054 546 LINE",
"506 546 LINE",
"944 1308 LINE",
"994 1308 LINE"
);
}
);
width = 2028;
}
);
unicode = 00C6;
},
{
glyphname = Oslash;
lastChange = "2013-01-25 15:14:08 -0800";
layers = (
{
anchors = (
{
name = top;
position = "{832, 0}";
}
);
layerId = "E08CDE4C-5D6C-43D8-8149-5F9E51F0B944";
name = "Bold Condensed";
paths = (
{
closed = 1;
nodes = (
"360 1483 OFFCURVE",
"116 1122 OFFCURVE",
"116 730 CURVE SMOOTH",
"116 218 OFFCURVE",
"432 -22 OFFCURVE",
"834 -22 CURVE SMOOTH",
"1304 -22 OFFCURVE",
"1546 338 OFFCURVE",
"1546 730 CURVE SMOOTH",
"1546 1242 OFFCURVE",
"1233 1483 OFFCURVE",
"834 1483 CURVE SMOOTH"
);
},
{
closed = 1;
nodes = (
"1190 1334 OFFCURVE",
"1358 1068 OFFCURVE",
"1358 729 CURVE SMOOTH",
"1358 330 OFFCURVE",
"1106 123 OFFCURVE",
"834 123 CURVE SMOOTH",
"471 123 OFFCURVE",
"300 390 OFFCURVE",
"300 729 CURVE SMOOTH",
"300 1128 OFFCURVE",
"556 1334 OFFCURVE",
"834 1334 CURVE SMOOTH"
);
},
{
closed = 1;
nodes = (
"400 -121 LINE",
"521 -165 LINE",
"1262 1581 LINE",
"1137 1625 LINE"
);
}
);
width = 1663;
}
);
unicode = 00D8;
},
{
glyphname = infinity;
lastChange = "2013-01-25 15:14:11 -0800";
layers = (
{
layerId = "E08CDE4C-5D6C-43D8-8149-5F9E51F0B944";
name = "Bold Condensed";
paths = (
{
closed = 1;
nodes = (
"1219 944 OFFCURVE",
"1180 938 OFFCURVE",
"1144 926 CURVE SMOOTH",
"1019 884 OFFCURVE",
"936 789 OFFCURVE",
"862 692 CURVE",
"833 730 OFFCURVE",
"803 765 OFFCURVE",
"772 796 CURVE SMOOTH",
"696 873 OFFCURVE",
"600 944 OFFCURVE",
"455 944 CURVE SMOOTH",
"350 944 OFFCURVE",
"262 900 OFFCURVE",
"204 847 CURVE SMOOTH",
"146 795 OFFCURVE",
"96 715 OFFCURVE",
"96 612 CURVE SMOOTH",
"96 561 OFFCURVE",
"104 512 OFFCURVE",
"122 467 CURVE SMOOTH",
"172 339 OFFCURVE",
"285 236 OFFCURVE",
"460 236 CURVE SMOOTH",
"500 236 OFFCURVE",
"538 242 OFFCURVE",
"574 254 CURVE SMOOTH",
"698 297 OFFCURVE",
"785 391 OFFCURVE",
"860 488 CURVE",
"926 404 OFFCURVE",
"991 341 OFFCURVE",
"1054 299 CURVE SMOOTH",
"1117 257 OFFCURVE",
"1186 236 OFFCURVE",
"1260 236 CURVE SMOOTH",
"1308 236 OFFCURVE",
"1354 245 OFFCURVE",
"1398 262 CURVE SMOOTH",
"1522 311 OFFCURVE",
"1621 425 OFFCURVE",
"1621 595 CURVE SMOOTH",
"1621 646 OFFCURVE",
"1613 692 OFFCURVE",
"1596 735 CURVE SMOOTH",
"1547 859 OFFCURVE",
"1434 944 OFFCURVE",
"1262 944 CURVE SMOOTH"
);
},
{
closed = 1;
nodes = (
"488 829 OFFCURVE",
"521 822 OFFCURVE",
"552 810 CURVE SMOOTH",
"658 768 OFFCURVE",
"729 679 OFFCURVE",
"791 589 CURVE",
"747 529 OFFCURVE",
"697 468 OFFCURVE",
"640 424 CURVE SMOOTH",
"594 388 OFFCURVE",
"538 355 OFFCURVE",
"463 355 CURVE SMOOTH",
"427 355 OFFCURVE",
"395 362 OFFCURVE",
"366 375 CURVE SMOOTH",
"290 410 OFFCURVE",
"226 485 OFFCURVE",
"226 592 CURVE SMOOTH",
"226 624 OFFCURVE",
"232 654 OFFCURVE",
"242 683 CURVE SMOOTH",
"272 766 OFFCURVE",
"341 829 OFFCURVE",
"453 829 CURVE SMOOTH"
);
},
{
closed = 1;
nodes = (
"1291 829 OFFCURVE",
"1320 823 OFFCURVE",
"1348 812 CURVE SMOOTH",
"1420 782 OFFCURVE",
"1482 717 OFFCURVE",
"1482 618 CURVE SMOOTH",
"1482 466 OFFCURVE",
"1414 355 OFFCURVE",
"1263 355 CURVE SMOOTH",
"1190 355 OFFCURVE",
"1141 380 OFFCURVE",
"1095 415 CURVE SMOOTH",
"1031 463 OFFCURVE",
"982 523 OFFCURVE",
"929 592 CURVE",
"970 652 OFFCURVE",
"1019 712 OFFCURVE",
"1075 756 CURVE SMOOTH",
"1122 793 OFFCURVE",
"1182 829 OFFCURVE",
"1258 829 CURVE SMOOTH"
);
}
);
width = 1724;
}
);
unicode = 221E;
},
{
glyphname = plusminus;
lastChange = "2013-01-25 15:14:08 -0800";
layers = (
{
layerId = "E08CDE4C-5D6C-43D8-8149-5F9E51F0B944";
name = "Bold Condensed";
paths = (
{
closed = 1;
nodes = (
"645 1107 LINE",
"645 733 LINE",
"188 733 LINE",
"200 595 LINE",
"647 595 LINE",
"647 223 LINE",
"798 223 LINE",
"798 595 LINE",
"1245 595 LINE",
"1245 733 LINE",
"794 733 LINE",
"794 1107 LINE"
);
},
{
closed = 1;
nodes = (
"200 138 LINE",
"200 0 LINE",
"1249 0 LINE",
"1249 138 LINE"
);
}
);
width = 1458;
}
);
unicode = 00B1;
},
{
glyphname = lessequal;
lastChange = "2013-01-25 15:14:08 -0800";
layers = (
{
layerId = "E08CDE4C-5D6C-43D8-8149-5F9E51F0B944";
name = "Bold Condensed";
paths = (
{
closed = 1;
nodes = (
"197 747 LINE",
"197 666 LINE",
"1146 216 LINE",
"1146 357 LINE",
"372 710 LINE",
"1146 1079 LINE",
"1146 1219 LINE"
);
},
{
closed = 1;
nodes = (
"161 131 LINE",
"161 9 LINE",
"1175 9 LINE",
"1175 131 LINE"
);
}
);
width = 1351;
}
);
unicode = 2264;
},
{
glyphname = greaterequal;
lastChange = "2013-01-25 15:14:11 -0800";
layers = (
{
layerId = "E08CDE4C-5D6C-43D8-8149-5F9E51F0B944";
name = "Bold Condensed";
paths = (
{
closed = 1;
nodes = (
"196 1081 LINE",
"974 707 LINE",
"192 359 LINE",
"192 218 LINE",
"1152 668 LINE",
"1152 748 LINE",
"196 1221 LINE"
);
},
{
closed = 1;
nodes = (
"161 131 LINE",
"161 9 LINE",
"1171 9 LINE",
"1171 131 LINE"
);
}
);
width = 1350;
}
);
unicode = 2265;
},
{
glyphname = yen;
lastChange = "2013-01-25 15:14:11 -0800";
layers = (
{
layerId = "E08CDE4C-5D6C-43D8-8149-5F9E51F0B944";
name = "Bold Condensed";
paths = (
{
closed = 1;
nodes = (
"973 1420 LINE",
"849 1212 OFFCURVE",
"727 1002 OFFCURVE",
"601 796 CURVE",
"481 1007 OFFCURVE",
"354 1212 OFFCURVE",
"231 1420 CURVE",
"26 1420 LINE",
"471 716 LINE",
"103 716 LINE",
"103 574 LINE",
"506 574 LINE",
"506 423 LINE",
"98 423 LINE",
"109 283 LINE",
"508 283 LINE",
"508 0 LINE",
"680 0 LINE",
"680 283 LINE",
"1071 283 LINE",
"1071 423 LINE",
"677 423 LINE",
"677 574 LINE",
"1068 574 LINE",
"1068 716 LINE",
"704 716 LINE",
"1159 1420 LINE"
);
}
);
width = 1189;
}
);
unicode = 00A5;
},
{
glyphname = partialdiff;
lastChange = "2013-01-25 15:14:11 -0800";
layers = (
{
layerId = "E08CDE4C-5D6C-43D8-8149-5F9E51F0B944";
name = "Bold Condensed";
paths = (
{
closed = 1;
nodes = (
"466 1533 OFFCURVE",
"355 1492 OFFCURVE",
"280 1442 CURVE",
"291 1304 LINE",
"361 1351 OFFCURVE",
"451 1399 OFFCURVE",
"565 1399 CURVE SMOOTH",
"618 1399 OFFCURVE",
"664 1388 OFFCURVE",
"706 1366 CURVE SMOOTH",
"842 1293 OFFCURVE",
"903 1123 OFFCURVE",
"903 911 CURVE SMOOTH",
"903 890 OFFCURVE",
"902 856 OFFCURVE",
"902 836 CURVE",
"832 927 OFFCURVE",
"736 1002 OFFCURVE",
"586 1002 CURVE SMOOTH",
"516 1002 OFFCURVE",
"451 987 OFFCURVE",
"390 957 CURVE SMOOTH",
"213 870 OFFCURVE",
"83 681 OFFCURVE",
"83 420 CURVE SMOOTH",
"83 357 OFFCURVE",
"92 299 OFFCURVE",
"109 245 CURVE SMOOTH",
"160 87 OFFCURVE",
"284 -24 OFFCURVE",
"492 -24 CURVE SMOOTH",
"557 -24 OFFCURVE",
"618 -12 OFFCURVE",
"672 11 CURVE SMOOTH",
"786 60 OFFCURVE",
"870 146 OFFCURVE",
"931 252 CURVE SMOOTH",
"1020 407 OFFCURVE",
"1074 611 OFFCURVE",
"1074 852 CURVE SMOOTH",
"1074 969 OFFCURVE",
"1063 1070 OFFCURVE",
"1040 1156 CURVE SMOOTH",
"983 1373 OFFCURVE",
"853 1533 OFFCURVE",
"588 1533 CURVE SMOOTH"
);
},
{
closed = 1;
nodes = (
"644 869 OFFCURVE",
"676 864 OFFCURVE",
"705 852 CURVE SMOOTH",
"792 817 OFFCURVE",
"853 744 OFFCURVE",
"885 655 CURVE",
"868 507 OFFCURVE",
"821 369 OFFCURVE",
"755 271 CURVE SMOOTH",
"700 190 OFFCURVE",
"618 111 OFFCURVE",
"495 111 CURVE SMOOTH",
"458 111 OFFCURVE",
"424 118 OFFCURVE",
"394 133 CURVE SMOOTH",
"302 178 OFFCURVE",
"252 280 OFFCURVE",
"252 417 CURVE SMOOTH",
"252 547 OFFCURVE",
"296 658 OFFCURVE",
"355 734 CURVE SMOOTH",
"409 804 OFFCURVE",
"494 869 OFFCURVE",
"609 869 CURVE SMOOTH"
);
}
);
width = 1167;
}
);
unicode = 2202;
},
{
glyphname = summation;
lastChange = "2013-01-25 15:14:08 -0800";
layers = (
{
layerId = "E08CDE4C-5D6C-43D8-8149-5F9E51F0B944";
name = "Bold Condensed";
paths = (
{
closed = 1;
nodes = (
"79 1423 LINE",
"79 1328 LINE",
"697 552 LINE",
"57 -239 LINE",
"57 -329 LINE",
"1220 -329 LINE",
"1220 -181 LINE",
"294 -181 LINE",
"898 561 LINE",
"325 1281 LINE",
"1175 1281 LINE",
"1175 1423 LINE"
);
}
);
width = 1264;
}
);
unicode = 2211;
},
{
glyphname = product;
lastChange = "2013-01-25 15:14:08 -0800";
layers = (
{
layerId = "E08CDE4C-5D6C-43D8-8149-5F9E51F0B944";
name = "Bold Condensed";
paths = (
{
closed = 1;
nodes = (
"110 1423 LINE",
"126 1278 LINE",
"251 1278 LINE",
"251 -329 LINE",
"426 -329 LINE",
"426 1278 LINE",
"1149 1278 LINE",
"1149 -329 LINE",
"1327 -329 LINE",
"1327 1278 LINE",
"1440 1278 LINE",
"1456 1423 LINE"
);
}
);
width = 1568;
}
);
unicode = 220F;
},
{
glyphname = pi;
lastChange = "2013-01-25 15:14:11 -0800";
layers = (
{
layerId = "E08CDE4C-5D6C-43D8-8149-5F9E51F0B944";
name = "Bold Condensed";
paths = (
{
closed = 1;
nodes = (
"369 1040 LINE SMOOTH",
"227 1040 OFFCURVE",
"96 1037 OFFCURVE",
"17 977 CURVE",
"34 846 LINE",
"111 887 OFFCURVE",
"194 904 OFFCURVE",
"311 907 CURVE",
"306 739 OFFCURVE",
"296 567 OFFCURVE",
"276 411 CURVE SMOOTH",
"257 263 OFFCURVE",
"232 105 OFFCURVE",
"172 0 CURVE",
"341 0 LINE",
"353 21 OFFCURVE",
"364 51 OFFCURVE",
"374 88 CURVE SMOOTH",
"439 335 OFFCURVE",
"458 619 OFFCURVE",
"480 907 CURVE",
"851 907 LINE",
"851 279 LINE SMOOTH",
"851 104 OFFCURVE",
"888 -8 OFFCURVE",
"1061 -8 CURVE SMOOTH",
"1108 -8 OFFCURVE",
"1153 -2 OFFCURVE",
"1198 6 CURVE",
"1188 35 OFFCURVE",
"1185 65 OFFCURVE",
"1185 100 CURVE SMOOTH",
"1185 110 OFFCURVE",
"1185 120 OFFCURVE",
"1186 130 CURVE SMOOTH",
"1188 160 LINE",
"1159 151 OFFCURVE",
"1133 147 OFFCURVE",
"1108 147 CURVE SMOOTH",
"1024 147 OFFCURVE",
"1010 206 OFFCURVE",
"1010 288 CURVE SMOOTH",
"1010 907 LINE",
"1214 907 LINE",
"1214 1040 LINE"
);
}
);
width = 1288;
}
);
unicode = 03C0;
},
{
glyphname = integral;
lastChange = "2013-01-25 15:14:08 -0800";
layers = (
{
layerId = "E08CDE4C-5D6C-43D8-8149-5F9E51F0B944";
name = "Bold Condensed";
paths = (
{
closed = 1;
nodes = (
"469 1631 OFFCURVE",
"393 1477 OFFCURVE",
"393 1255 CURVE SMOOTH",
"393 -47 LINE SMOOTH",
"393 -183 OFFCURVE",
"368 -264 OFFCURVE",
"232 -264 CURVE SMOOTH",
"195 -264 OFFCURVE",
"148 -259 OFFCURVE",
"122 -249 CURVE",
"124 -378 LINE",
"172 -391 OFFCURVE",
"201 -399 OFFCURVE",
"260 -399 CURVE SMOOTH",
"483 -399 OFFCURVE",
"557 -245 OFFCURVE",
"557 -23 CURVE SMOOTH",
"557 1279 LINE SMOOTH",
"557 1415 OFFCURVE",
"584 1496 OFFCURVE",
"720 1496 CURVE SMOOTH",
"757 1496 OFFCURVE",
"804 1491 OFFCURVE",
"830 1481 CURVE",
"828 1610 LINE",
"784 1620 OFFCURVE",
"747 1631 OFFCURVE",
"692 1631 CURVE SMOOTH"
);
}
);
width = 702;
}
);
unicode = 222B;
},
{
glyphname = ordfeminine;
lastChange = "2013-01-25 15:14:11 -0800";
layers = (
{
layerId = "E08CDE4C-5D6C-43D8-8149-5F9E51F0B944";
name = "Bold Condensed";
paths = (
{
closed = 1;
nodes = (
"262 1477 OFFCURVE",
"162 1436 OFFCURVE",
"111 1350 CURVE",
"178 1275 LINE",
"222 1340 OFFCURVE",
"289 1369 OFFCURVE",
"388 1369 CURVE SMOOTH",
"498 1369 OFFCURVE",
"536 1329 OFFCURVE",
"536 1219 CURVE SMOOTH",
"536 1211 LINE",
"462 1201 OFFCURVE",
"383 1202 OFFCURVE",
"309 1192 CURVE SMOOTH",
"189 1174 OFFCURVE",
"66 1112 OFFCURVE",
"66 975 CURVE SMOOTH",
"66 944 OFFCURVE",
"72 916 OFFCURVE",
"85 890 CURVE SMOOTH",
"122 814 OFFCURVE",
"205 768 OFFCURVE",
"317 768 CURVE SMOOTH",
"417 768 OFFCURVE",
"492 805 OFFCURVE",
"537 860 CURVE",
"543 786 LINE",
"674 786 LINE",
"669 846 OFFCURVE",
"667 870 OFFCURVE",
"667 914 CURVE SMOOTH",
"669 1235 LINE SMOOTH",
"669 1400 OFFCURVE",
"558 1477 OFFCURVE",
"394 1477 CURVE SMOOTH"
);
},
{
closed = 1;
nodes = (
"536 1085 LINE",
"530 962 OFFCURVE",
"468 871 OFFCURVE",
"338 871 CURVE SMOOTH",
"260 871 OFFCURVE",
"202 899 OFFCURVE",
"202 977 CURVE SMOOTH",
"202 1115 OFFCURVE",
"424 1088 OFFCURVE",
"536 1110 CURVE"
);
}
);
width = 745;
}
);
unicode = 00AA;
},
{
glyphname = ordmasculine;
lastChange = "2013-01-25 15:14:11 -0800";
layers = (
{
layerId = "E08CDE4C-5D6C-43D8-8149-5F9E51F0B944";
name = "Bold Condensed";
paths = (
{
closed = 1;
nodes = (
"357 1476 OFFCURVE",
"306 1466 OFFCURVE",
"261 1448 CURVE SMOOTH",
"140 1398 OFFCURVE",
"53 1291 OFFCURVE",
"53 1124 CURVE SMOOTH",
"53 901 OFFCURVE",
"191 767 OFFCURVE",
"416 767 CURVE SMOOTH",
"474 767 OFFCURVE",
"526 776 OFFCURVE",
"570 795 CURVE SMOOTH",
"690 845 OFFCURVE",
"774 954 OFFCURVE",
"774 1121 CURVE SMOOTH",
"774 1171 OFFCURVE",
"766 1217 OFFCURVE",
"751 1260 CURVE SMOOTH",
"705 1390 OFFCURVE",
"591 1476 OFFCURVE",
"415 1476 CURVE SMOOTH"
);
},
{
closed = 1;
nodes = (
"558 1369 OFFCURVE",
"636 1264 OFFCURVE",
"636 1119 CURVE SMOOTH",
"636 979 OFFCURVE",
"557 875 OFFCURVE",
"416 875 CURVE SMOOTH",
"269 875 OFFCURVE",
"193 977 OFFCURVE",
"193 1123 CURVE SMOOTH",
"193 1264 OFFCURVE",
"271 1369 OFFCURVE",
"413 1369 CURVE SMOOTH"
);
}
);
width = 824;
}
);
unicode = 00BA;
},
{
glyphname = ae;
lastChange = "2013-01-25 15:14:11 -0800";
layers = (
{
anchors = (
{
name = top;
position = "{904, 0}";
}
);
layerId = "E08CDE4C-5D6C-43D8-8149-5F9E51F0B944";
name = "Bold Condensed";
paths = (
{
closed = 1;
nodes = (
"1064 1053 OFFCURVE",
"944 971 OFFCURVE",
"878 856 CURVE",
"869 890 OFFCURVE",
"854 919 OFFCURVE",
"830 944 CURVE SMOOTH",
"769 1007 OFFCURVE",
"669 1053 OFFCURVE",
"550 1053 CURVE SMOOTH",
"353 1053 OFFCURVE",
"217 985 OFFCURVE",
"148 856 CURVE",
"238 763 LINE",
"298 864 OFFCURVE",
"391 917 OFFCURVE",
"540 917 CURVE SMOOTH",
"706 917 OFFCURVE",
"771 793 OFFCURVE",
"771 628 CURVE SMOOTH",
"771 615 LINE",
"443 615 OFFCURVE",
"81 611 OFFCURVE",
"81 282 CURVE SMOOTH",
"81 234 OFFCURVE",
"90 190 OFFCURVE",
"108 152 CURVE SMOOTH",
"160 39 OFFCURVE",
"277 -28 OFFCURVE",
"441 -28 CURVE SMOOTH",
"641 -28 OFFCURVE",
"776 72 OFFCURVE",
"854 197 CURVE",
"919 71 OFFCURVE",
"1044 -25 OFFCURVE",
"1232 -25 CURVE SMOOTH",
"1446 -25 OFFCURVE",
"1582 65 OFFCURVE",
"1664 206 CURVE",
"1577 292 LINE",
"1511 193 OFFCURVE",
"1397 113 OFFCURVE",
"1242 113 CURVE SMOOTH",
"1029 113 OFFCURVE",
"941 253 OFFCURVE",
"941 463 CURVE SMOOTH",
"941 468 OFFCURVE",
"942 475 OFFCURVE",
"942 479 CURVE",
"1697 479 LINE",
"1697 524 LINE SMOOTH",
"1697 845 OFFCURVE",
"1553 1053 OFFCURVE",
"1231 1053 CURVE SMOOTH"
);
},
{
closed = 1;
nodes = (
"773 262 OFFCURVE",
"694 109 OFFCURVE",
"474 109 CURVE SMOOTH",
"347 109 OFFCURVE",
"250 163 OFFCURVE",
"250 290 CURVE SMOOTH",
"250 331 OFFCURVE",
"261 363 OFFCURVE",
"282 387 CURVE SMOOTH",
"349 463 OFFCURVE",
"486 472 OFFCURVE",
"627 476 CURVE SMOOTH",
"773 479 LINE"
);
},
{
closed = 1;
nodes = (
"1440 917 OFFCURVE",
"1507 790 OFFCURVE",
"1524 616 CURVE",
"943 616 LINE",
"946 656 OFFCURVE",
"956 694 OFFCURVE",
"971 730 CURVE SMOOTH",
"1015 833 OFFCURVE",
"1105 917 OFFCURVE",
"1250 917 CURVE SMOOTH"
);
}
);
width = 1807;
}
);
unicode = 00E6;
},
{
glyphname = oslash;
lastChange = "2013-01-25 15:38:56 -0800";
layers = (
{
anchors = (
{
name = top;
position = "{619, 0}";
}
);
components = (
{
name = o;
transform = "{1, 0, 0, 1, 0, 0}";
}
);
layerId = "E08CDE4C-5D6C-43D8-8149-5F9E51F0B944";
name = "Bold Condensed";
paths = (
{
closed = 1;
nodes = (
"256 -229 LINE",
"355 -261 LINE",
"996 1245 LINE",
"893 1277 LINE"
);
}
);
width = 1238;
}
);
unicode = 00F8;
},
{
glyphname = questiondown;
lastChange = "2013-01-25 15:14:11 -0800";
layers = (
{
layerId = "E08CDE4C-5D6C-43D8-8149-5F9E51F0B944";
name = "Bold Condensed";
paths = (
{
closed = 1;
nodes = (
"562 1099 LINE",
"571 1049 LINE SMOOTH",
"576 1023 OFFCURVE",
"579 985 OFFCURVE",
"579 954 CURVE SMOOTH",
"579 923 OFFCURVE",
"570 891 OFFCURVE",
"550 860 CURVE SMOOTH",
"481 750 OFFCURVE",
"368 665 OFFCURVE",
"286 565 CURVE SMOOTH",
"237 505 OFFCURVE",
"183 433 OFFCURVE",
"183 334 CURVE SMOOTH",
"183 276 OFFCURVE",
"194 226 OFFCURVE",
"216 183 CURVE SMOOTH",
"282 56 OFFCURVE",
"426 -11 OFFCURVE",
"618 -11 CURVE SMOOTH",
"724 -11 OFFCURVE",
"819 15 OFFCURVE",
"899 54 CURVE",
"899 200 LINE",
"828 160 OFFCURVE",
"742 131 OFFCURVE",
"638 131 CURVE SMOOTH",
"485 131 OFFCURVE",
"352 189 OFFCURVE",
"352 342 CURVE SMOOTH",
"352 382 OFFCURVE",
"361 419 OFFCURVE",
"380 453 CURVE SMOOTH",
"442 563 OFFCURVE",
"552 637 OFFCURVE",
"636 728 CURVE SMOOTH",
"684 780 OFFCURVE",
"736 845 OFFCURVE",
"736 937 CURVE SMOOTH",
"736 987 OFFCURVE",
"731 1051 OFFCURVE",
"726 1099 CURVE"
);
},
{
closed = 1;
nodes = (
"536 1478 LINE",
"536 1268 LINE",
"753 1268 LINE",
"753 1478 LINE"
);
}
);
width = 1032;
}
);
unicode = 00BF;
},
{
glyphname = exclamdown;
lastChange = "2013-01-25 15:14:08 -0800";
layers = (
{
layerId = "E08CDE4C-5D6C-43D8-8149-5F9E51F0B944";
name = "Bold Condensed";
paths = (
{
closed = 1;
nodes = (
"260 694 LINE",
"260 -384 LINE",
"426 -384 LINE",
"426 694 LINE"
);
},
{
closed = 1;
nodes = (
"260 1090 LINE",
"260 884 LINE",
"474 884 LINE",
"474 1090 LINE"
);
}
);
width = 737;
}
);
unicode = 00A1;
},
{
glyphname = logicalnot;
lastChange = "2013-01-25 15:14:08 -0800";
layers = (
{
layerId = "E08CDE4C-5D6C-43D8-8149-5F9E51F0B944";
name = "Bold Condensed";
paths = (
{
closed = 1;
nodes = (
"200 798 LINE",
"200 659 LINE",
"1098 659 LINE",
"1098 238 LINE",
"1248 238 LINE",
"1248 798 LINE"
);
}
);
width = 1458;
}
);
unicode = 00AC;
},
{
glyphname = radical;
lastChange = "2013-01-25 15:14:08 -0800";
layers = (
{
layerId = "E08CDE4C-5D6C-43D8-8149-5F9E51F0B944";
name = "Bold Condensed";
paths = (
{
closed = 1;
nodes = (
"1082 1596 LINE",
"709 217 LINE",
"669 41 LINE",
"611 214 LINE",
"382 825 LINE",
"87 774 LINE",
"107 662 LINE",
"279 690 LINE",
"611 -153 LINE",
"746 -153 LINE",
"1212 1596 LINE"
);
}
);
width = 1314;
}
);
unicode = 221A;
},
{
glyphname = florin;
lastChange = "2013-01-25 15:14:11 -0800";
layers = (
{
layerId = "E08CDE4C-5D6C-43D8-8149-5F9E51F0B944";
name = "Bold Condensed";
paths = (
{
closed = 1;
nodes = (
"643 1436 OFFCURVE",
"560 1288 OFFCURVE",
"534 1094 CURVE SMOOTH",
"511 943 LINE",
"342 943 LINE",
"332 803 LINE",
"487 803 LINE",
"436 538 OFFCURVE",
"397 260 OFFCURVE",
"334 7 CURVE SMOOTH",
"312 -84 OFFCURVE",
"275 -194 OFFCURVE",
"163 -194 CURVE SMOOTH",
"138 -194 OFFCURVE",
"112 -189 OFFCURVE",
"85 -178 CURVE",
"73 -316 LINE",
"111 -327 OFFCURVE",
"146 -332 OFFCURVE",
"177 -332 CURVE SMOOTH",
"238 -332 OFFCURVE",
"290 -320 OFFCURVE",
"330 -295 CURVE SMOOTH",
"457 -218 OFFCURVE",
"499 -52 OFFCURVE",
"532 120 CURVE SMOOTH",
"659 803 LINE",
"872 803 LINE",
"882 943 LINE",
"682 943 LINE",
"718 1139 LINE SMOOTH",
"736 1236 OFFCURVE",
"776 1294 OFFCURVE",
"891 1294 CURVE SMOOTH",
"931 1294 OFFCURVE",
"967 1285 OFFCURVE",
"1000 1272 CURVE",
"1008 1417 LINE",
"964 1428 OFFCURVE",
"915 1436 OFFCURVE",
"865 1436 CURVE SMOOTH"
);
}
);
width = 1190;
}
);
unicode = 0192;
},
{
glyphname = approxequal;
lastChange = "2013-01-25 15:14:08 -0800";
layers = (
{
layerId = "E08CDE4C-5D6C-43D8-8149-5F9E51F0B944";
name = "Bold Condensed";
paths = (
{
closed = 1;
nodes = (
"1046 463 OFFCURVE",
"1004 380 OFFCURVE",
"904 380 CURVE SMOOTH",
"875 380 OFFCURVE",
"844 389 OFFCURVE",
"810 406 CURVE SMOOTH",
"776 423 OFFCURVE",
"740 442 OFFCURVE",
"702 463 CURVE SMOOTH",
"635 500 OFFCURVE",
"550 546 OFFCURVE",
"452 546 CURVE SMOOTH",
"283 546 OFFCURVE",
"189 433 OFFCURVE",
"154 289 CURVE",
"268 261 LINE",
"294 349 OFFCURVE",
"342 426 OFFCURVE",
"449 426 CURVE SMOOTH",
"477 426 OFFCURVE",
"506 420 OFFCURVE",
"536 407 CURVE SMOOTH",
"588 385 OFFCURVE",
"657 343 OFFCURVE",
"707 317 CURVE SMOOTH",
"762 289 OFFCURVE",
"819 262 OFFCURVE",
"898 262 CURVE SMOOTH",
"1072 262 OFFCURVE",
"1154 375 OFFCURVE",
"1187 518 CURVE",
"1077 546 LINE"
);
},
{
closed = 1;
nodes = (
"1045 832 OFFCURVE",
"1003 752 OFFCURVE",
"902 752 CURVE SMOOTH",
"875 752 OFFCURVE",
"846 759 OFFCURVE",
"814 772 CURVE SMOOTH",
"706 816 OFFCURVE",
"597 917 OFFCURVE",
"450 917 CURVE SMOOTH",
"279 917 OFFCURVE",
"185 808 OFFCURVE",
"152 661 CURVE",
"267 634 LINE",
"293 721 OFFCURVE",
"340 799 OFFCURVE",
"446 799 CURVE SMOOTH",
"474 799 OFFCURVE",
"503 793 OFFCURVE",
"532 780 CURVE SMOOTH",
"584 757 OFFCURVE",
"653 715 OFFCURVE",
"704 689 CURVE SMOOTH",
"761 660 OFFCURVE",
"816 634 OFFCURVE",
"896 634 CURVE SMOOTH",
"1069 634 OFFCURVE",
"1155 745 OFFCURVE",
"1185 890 CURVE",
"1075 918 LINE"
);
}
);
width = 1351;
}
);
unicode = 2248;
},
{
glyphname = Delta;
lastChange = "2013-01-25 15:14:08 -0800";
layers = (
{
layerId = "E08CDE4C-5D6C-43D8-8149-5F9E51F0B944";
name = "Bold Condensed";
paths = (
{
closed = 1;
nodes = (
"561 1429 LINE",
"40 80 LINE",
"40 0 LINE",
"1263 0 LINE",
"1263 80 LINE",
"743 1429 LINE"
);
},
{
closed = 1;
nodes = (
"681 1111 LINE",
"1033 162 LINE",
"269 162 LINE",
"615 1111 LINE",
"647 1218 LINE"
);
}
);
width = 1314;
}
);
unicode = 0394;
},
{
glyphname = guillemotleft;
lastChange = "2013-01-25 15:14:08 -0800";
layers = (
{
layerId = "E08CDE4C-5D6C-43D8-8149-5F9E51F0B944";
name = "Bold Condensed";
paths = (
{
closed = 1;
nodes = (
"521 914 LINE",
"246 541 LINE",
"515 171 LINE",
"672 171 LINE",
"416 541 LINE",
"681 914 LINE"
);
},
{
closed = 1;
nodes = (
"890 914 LINE",
"616 541 LINE",
"885 171 LINE",
"1042 171 LINE",
"786 541 LINE",
"1049 914 LINE"
);
}
);
width = 1156;
}
);
unicode = 00AB;
},
{
glyphname = guillemotright;
lastChange = "2013-01-25 15:14:11 -0800";
layers = (
{
layerId = "E08CDE4C-5D6C-43D8-8149-5F9E51F0B944";
name = "Bold Condensed";
paths = (
{
closed = 1;
nodes = (
"172 914 LINE",
"430 542 LINE",
"165 171 LINE",
"325 171 LINE",
"600 542 LINE",
"330 914 LINE"
);
},
{
closed = 1;
nodes = (
"570 914 LINE",
"824 542 LINE",
"563 171 LINE",
"720 171 LINE",
"996 542 LINE",
"726 914 LINE"
);
}
);
width = 1156;
}
);
unicode = 00BB;
},
{
glyphname = ellipsis;
lastChange = "2013-01-25 15:14:08 -0800";
layers = (
{
layerId = "E08CDE4C-5D6C-43D8-8149-5F9E51F0B944";
name = "Bold Condensed";
paths = (
{
closed = 1;
nodes = (
"1239 199 LINE",
"1239 -11 LINE",
"1456 -11 LINE",
"1456 199 LINE"
);
},
{
closed = 1;
nodes = (
"159 199 LINE",
"159 -11 LINE",
"376 -11 LINE",
"376 199 LINE"
);
},
{
closed = 1;
nodes = (
"699 199 LINE",
"699 -11 LINE",
"916 -11 LINE",
"916 199 LINE"
);
}
);
width = 1620;
}
);
unicode = 2026;
},
{
glyphname = OE;
lastChange = "2013-01-25 15:14:11 -0800";
layers = (
{
anchors = (
{
name = top;
position = "{1050, 0}";
}
);
layerId = "E08CDE4C-5D6C-43D8-8149-5F9E51F0B944";
name = "Bold Condensed";
paths = (
{
closed = 1;
nodes = (
"723 1483 OFFCURVE",
"621 1464 OFFCURVE",
"532 1426 CURVE SMOOTH",
"280 1320 OFFCURVE",
"114 1083 OFFCURVE",
"114 729 CURVE SMOOTH",
"114 614 OFFCURVE",
"130 511 OFFCURVE",
"163 418 CURVE SMOOTH",
"256 154 OFFCURVE",
"476 -23 OFFCURVE",
"829 -23 CURVE SMOOTH",
"970 -23 OFFCURVE",
"1070 32 OFFCURVE",
"1151 105 CURVE",
"1151 0 LINE",
"1984 0 LINE",
"1984 148 LINE",
"1323 148 LINE",
"1323 672 LINE",
"1916 672 LINE",
"1916 820 LINE",
"1323 820 LINE",
"1323 1308 LINE",
"1954 1308 LINE",
"1954 1456 LINE",
"1151 1456 LINE",
"1151 1381 LINE",
"1069 1439 OFFCURVE",
"968 1483 OFFCURVE",
"837 1483 CURVE SMOOTH"
);
},
{
closed = 1;
nodes = (
"972 1335 OFFCURVE",
"1072 1288 OFFCURVE",
"1151 1219 CURVE",
"1151 265 LINE",
"1075 186 OFFCURVE",
"973 125 OFFCURVE",
"827 125 CURVE SMOOTH",
"740 125 OFFCURVE",
"663 141 OFFCURVE",
"597 172 CURVE SMOOTH",
"409 260 OFFCURVE",
"298 452 OFFCURVE",
"298 725 CURVE SMOOTH",
"298 901 OFFCURVE",
"352 1049 OFFCURVE",
"434 1151 CURVE SMOOTH",
"518 1256 OFFCURVE",
"646 1335 OFFCURVE",
"830 1335 CURVE SMOOTH"
);
}
);
width = 2099;
}
);
unicode = 0152;
},
{
glyphname = oe;
lastChange = "2013-01-25 15:14:08 -0800";
layers = (
{
anchors = (
{
name = top;
position = "{985, 0}";
}
);
layerId = "E08CDE4C-5D6C-43D8-8149-5F9E51F0B944";
name = "Bold Condensed";
paths = (
{
closed = 1;
nodes = (
"1216 1053 OFFCURVE",
"1095 963 OFFCURVE",
"1027 821 CURVE",
"952 964 OFFCURVE",
"830 1053 OFFCURVE",
"620 1053 CURVE SMOOTH",
"536 1053 OFFCURVE",
"462 1039 OFFCURVE",
"396 1010 CURVE SMOOTH",
"217 932 OFFCURVE",
"92 761 OFFCURVE",
"92 509 CURVE SMOOTH",
"92 435 OFFCURVE",
"104 365 OFFCURVE",
"127 300 CURVE SMOOTH",
"195 110 OFFCURVE",
"354 -28 OFFCURVE",
"610 -28 CURVE SMOOTH",
"821 -28 OFFCURVE",
"961 57 OFFCURVE",
"1022 209 CURVE",
"1082 62 OFFCURVE",
"1213 -28 OFFCURVE",
"1410 -28 CURVE SMOOTH",
"1616 -28 OFFCURVE",
"1757 63 OFFCURVE",
"1836 206 CURVE",
"1748 292 LINE",
"1685 192 OFFCURVE",
"1574 109 OFFCURVE",
"1421 109 CURVE SMOOTH",
"1371 109 OFFCURVE",
"1328 118 OFFCURVE",
"1290 135 CURVE SMOOTH",
"1181 185 OFFCURVE",
"1117 296 OFFCURVE",
"1113 450 CURVE SMOOTH",
"1113 470 LINE",
"1868 472 LINE",
"1868 525 LINE SMOOTH",
"1868 835 OFFCURVE",
"1726 1053 OFFCURVE",
"1417 1053 CURVE SMOOTH"
);
},
{
closed = 1;
nodes = (
"846 917 OFFCURVE",
"945 745 OFFCURVE",
"945 511 CURVE SMOOTH",
"945 287 OFFCURVE",
"845 109 OFFCURVE",
"620 109 CURVE SMOOTH",
"559 109 OFFCURVE",
"506 120 OFFCURVE",
"462 141 CURVE SMOOTH",
"338 200 OFFCURVE",
"265 327 OFFCURVE",
"265 507 CURVE SMOOTH",
"265 562 OFFCURVE",
"273 614 OFFCURVE",
"288 663 CURVE SMOOTH",
"330 802 OFFCURVE",
"433 917 OFFCURVE",
"612 917 CURVE SMOOTH"
);
},
{
closed = 1;
nodes = (
"1607 917 OFFCURVE",
"1695 793 OFFCURVE",
"1695 609 CURVE",
"1113 609 LINE",
"1116 649 OFFCURVE",
"1125 688 OFFCURVE",
"1140 725 CURVE SMOOTH",
"1183 830 OFFCURVE",
"1277 917 OFFCURVE",
"1423 917 CURVE SMOOTH"
);
}
);
width = 1970;
}
);
unicode = 0153;
},
{
glyphname = endash;
lastChange = "2013-01-25 15:14:08 -0800";
layers = (
{
layerId = "E08CDE4C-5D6C-43D8-8149-5F9E51F0B944";
name = "Bold Condensed";
paths = (
{
closed = 1;
nodes = (
"-6 626 LINE",
"-6 489 LINE",
"1084 489 LINE",
"1084 626 LINE"
);
}
);
width = 1085;
}
);
unicode = 2013;
},
{
glyphname = emdash;
lastChange = "2013-01-25 15:14:08 -0800";
layers = (
{
layerId = "E08CDE4C-5D6C-43D8-8149-5F9E51F0B944";
name = "Bold Condensed";
paths = (
{
closed = 1;
nodes = (
"-3 626 LINE",
"-3 489 LINE",
"2160 489 LINE",
"2160 626 LINE"
);
}
);
width = 2171;
}
);
unicode = 2014;
},
{
glyphname = quotedblleft;
lastChange = "2013-01-25 15:14:08 -0800";
layers = (
{
layerId = "E08CDE4C-5D6C-43D8-8149-5F9E51F0B944";
name = "Bold Condensed";
paths = (
{
closed = 1;
nodes = (
"682 1463 LINE",
"528 1023 LINE",
"711 1023 LINE",
"815 1463 LINE"
);
},
{
closed = 1;
nodes = (
"333 1463 LINE",
"179 1023 LINE",
"361 1023 LINE",
"466 1463 LINE"
);
}
);
width = 1024;
}
);
unicode = 201C;
},
{
glyphname = quotedblright;
lastChange = "2013-01-25 15:14:08 -0800";
layers = (
{
layerId = "E08CDE4C-5D6C-43D8-8149-5F9E51F0B944";
name = "Bold Condensed";
paths = (
{
closed = 1;
nodes = (
"639 1463 LINE",
"534 1023 LINE",
"667 1023 LINE",
"821 1463 LINE"
);
},
{
closed = 1;
nodes = (
"312 1463 LINE",
"208 1023 LINE",
"341 1023 LINE",
"494 1463 LINE"
);
}
);
width = 1024;
}
);
unicode = 201D;
},
{
glyphname = quoteleft;
lastChange = "2013-01-25 15:14:08 -0800";
layers = (
{
layerId = "E08CDE4C-5D6C-43D8-8149-5F9E51F0B944";
name = "Bold Condensed";
paths = (
{
closed = 1;
nodes = (
"284 1463 LINE",
"130 1023 LINE",
"312 1023 LINE",
"416 1463 LINE"
);
}
);
width = 553;
}
);
unicode = 2018;
},
{
glyphname = quoteright;
lastChange = "2013-01-25 15:14:08 -0800";
layers = (
{
layerId = "E08CDE4C-5D6C-43D8-8149-5F9E51F0B944";
name = "Bold Condensed";
paths = (
{
closed = 1;
nodes = (
"245 1463 LINE",
"140 1023 LINE",
"272 1023 LINE",
"426 1463 LINE"
);
}
);
width = 553;
}
);
unicode = 2019;
},
{
glyphname = divide;
lastChange = "2013-01-25 15:14:08 -0800";
layers = (
{
layerId = "E08CDE4C-5D6C-43D8-8149-5F9E51F0B944";
name = "Bold Condensed";
paths = (
{
closed = 1;
nodes = (
"198 624 LINE",
"198 485 LINE",
"1246 485 LINE",
"1246 624 LINE"
);
},
{
closed = 1;
nodes = (
"619 231 LINE",
"619 21 LINE",
"836 21 LINE",
"836 231 LINE"
);
},
{
closed = 1;
nodes = (
"619 1083 LINE",
"619 873 LINE",
"836 873 LINE",
"836 1083 LINE"
);
}
);
width = 1458;
}
);
unicode = 00F7;
},
{
glyphname = lozenge;
lastChange = "2013-01-25 15:14:11 -0800";
layers = (
{
layerId = "E08CDE4C-5D6C-43D8-8149-5F9E51F0B944";
name = "Bold Condensed";
paths = (
{
closed = 1;
nodes = (
"570 1470 LINE",
"112 711 LINE",
"562 -45 LINE",
"668 -45 LINE",
"1130 712 LINE",
"677 1470 LINE"
);
},
{
closed = 1;
nodes = (
"739 1116 OFFCURVE",
"861 916 OFFCURVE",
"979 711 CURVE",
"858 506 OFFCURVE",
"731 307 OFFCURVE",
"615 98 CURVE",
"500 306 OFFCURVE",
"379 508 OFFCURVE",
"261 713 CURVE",
"382 917 OFFCURVE",
"510 1114 OFFCURVE",
"625 1324 CURVE"
);
}
);
width = 1248;
}
);
unicode = 25CA;
},
{
glyphname = fraction;
lastChange = "2013-01-25 15:14:08 -0800";
layers = (
{
layerId = "E08CDE4C-5D6C-43D8-8149-5F9E51F0B944";
name = "Bold Condensed";
paths = (
{
closed = 1;
nodes = (
"568 1436 LINE",
"-337 0 LINE",
"-186 0 LINE",
"717 1436 LINE"
);
}
);
width = 368;
}
);
unicode = 2044;
},
{
glyphname = currency;
lastChange = "2013-01-25 15:14:11 -0800";
layers = (
{
layerId = "E08CDE4C-5D6C-43D8-8149-5F9E51F0B944";
name = "Bold Condensed";
paths = (
{
closed = 1;
nodes = (
"363 1053 OFFCURVE",
"175 874 OFFCURVE",
"175 661 CURVE SMOOTH",
"175 448 OFFCURVE",
"353 274 OFFCURVE",
"566 274 CURVE SMOOTH",
"779 274 OFFCURVE",
"952 439 OFFCURVE",
"957 651 CURVE SMOOTH",
"962 864 OFFCURVE",
"789 1043 OFFCURVE",
"576 1048 CURVE SMOOTH"
);
},
{
closed = 1;
nodes = (
"121 232 LINE",
"157 195 LINE",
"344 389 LINE",
"311 429 LINE"
);
},
{
closed = 1;
nodes = (
"106 1065 LINE",
"301 877 LINE",
"342 913 LINE",
"145 1104 LINE"
);
},
{
closed = 1;
nodes = (
"740 961 OFFCURVE",
"869 820 OFFCURVE",
"865 651 CURVE SMOOTH",
"861 482 OFFCURVE",
"733 351 OFFCURVE",
"564 351 CURVE SMOOTH",
"395 351 OFFCURVE",
"263 489 OFFCURVE",
"263 658 CURVE SMOOTH",
"263 827 OFFCURVE",
"403 969 OFFCURVE",
"572 965 CURVE SMOOTH"
);
},
{
closed = 1;
nodes = (
"800 397 LINE",
"994 210 LINE",
"1031 246 LINE",
"836 434 LINE"
);
},
{
closed = 1;
nodes = (
"788 924 LINE",
"828 887 LINE",
"1016 1081 LINE",
"976 1120 LINE"
);
}
);
width = 1238;
}
);
unicode = 00A4;
},
{
glyphname = guilsinglleft;
lastChange = "2013-01-25 15:14:08 -0800";
layers = (
{
layerId = "E08CDE4C-5D6C-43D8-8149-5F9E51F0B944";
name = "Bold Condensed";
paths = (
{
closed = 1;
nodes = (
"379 914 LINE",
"105 541 LINE",
"374 171 LINE",
"530 171 LINE",
"275 541 LINE",
"538 914 LINE"
);
}
);
width = 642;
}
);
unicode = 2039;
},
{
glyphname = guilsinglright;
lastChange = "2013-01-25 15:14:08 -0800";
layers = (
{
layerId = "E08CDE4C-5D6C-43D8-8149-5F9E51F0B944";
name = "Bold Condensed";
paths = (
{
closed = 1;
nodes = (
"111 914 LINE",
"365 542 LINE",
"103 171 LINE",
"260 171 LINE",
"537 542 LINE",
"266 914 LINE"
);
}
);
width = 642;
}
);
unicode = 203A;
},
{
glyphname = daggerdbl;
lastChange = "2013-01-25 15:14:11 -0800";
layers = (
{
layerId = "E08CDE4C-5D6C-43D8-8149-5F9E51F0B944";
name = "Bold Condensed";
paths = (
{
closed = 1;
nodes = (
"422 1451 LINE",
"448 1115 LINE",
"104 1115 LINE",
"104 983 LINE",
"442 983 LINE",
"442 562 LINE",
"98 562 LINE",
"98 435 LINE",
"442 435 LINE",
"420 113 LINE",
"591 113 LINE",
"565 435 LINE",
"909 435 LINE",
"909 562 LINE",
"565 562 LINE",
"565 983 LINE",
"916 983 LINE",
"916 1115 LINE",
"572 1115 LINE",
"593 1451 LINE"
);
}
);
width = 1022;
}
);
unicode = 2021;
},
{
glyphname = periodcentered;
lastChange = "2013-01-25 15:14:08 -0800";
layers = (
{
layerId = "E08CDE4C-5D6C-43D8-8149-5F9E51F0B944";
name = "Bold Condensed";
paths = (
{
closed = 1;
nodes = (
"76 723 LINE",
"76 513 LINE",
"293 513 LINE",
"293 723 LINE"
);
}
);
width = 444;
}
);
unicode = 00B7;
},
{
glyphname = quotesinglbase;
lastChange = "2013-01-25 15:14:08 -0800";
layers = (
{
layerId = "E08CDE4C-5D6C-43D8-8149-5F9E51F0B944";
name = "Bold Condensed";
paths = (
{
closed = 1;
nodes = (
"231 201 LINE",
"125 -238 LINE",
"258 -238 LINE",
"412 201 LINE"
);
}
);
width = 553;
}
);
unicode = 201A;
},
{
glyphname = quotedblbase;
lastChange = "2013-01-25 15:14:08 -0800";
layers = (
{
layerId = "E08CDE4C-5D6C-43D8-8149-5F9E51F0B944";
name = "Bold Condensed";
paths = (
{
closed = 1;
nodes = (
"641 201 LINE",
"537 -238 LINE",
"670 -238 LINE",
"824 201 LINE"
);
},
{
closed = 1;
nodes = (
"283 201 LINE",
"178 -238 LINE",
"312 -238 LINE",
"465 201 LINE"
);
}
);
width = 1024;
}
);
unicode = 201E;
},
{
glyphname = perthousand;
lastChange = "2013-01-25 15:14:11 -0800";
layers = (
{
layerId = "E08CDE4C-5D6C-43D8-8149-5F9E51F0B944";
name = "Bold Condensed";
paths = (
{
closed = 1;
nodes = (
"1183 1436 LINE",
"245 -21 LINE",
"398 -21 LINE",
"1332 1436 LINE"
);
},
{
closed = 1;
nodes = (
"1309 567 OFFCURVE",
"1367 463 OFFCURVE",
"1367 327 CURVE SMOOTH",
"1367 196 OFFCURVE",
"1306 86 OFFCURVE",
"1175 86 CURVE SMOOTH",
"1040 86 OFFCURVE",
"980 192 OFFCURVE",
"980 328 CURVE SMOOTH",
"980 461 OFFCURVE",
"1041 567 OFFCURVE",
"1174 567 CURVE SMOOTH"
);
},
{
closed = 1;
nodes = (
"1121 681 OFFCURVE",
"1072 672 OFFCURVE",
"1030 654 CURVE SMOOTH",
"911 604 OFFCURVE",
"835 494 OFFCURVE",
"835 328 CURVE SMOOTH",
"835 111 OFFCURVE",
"954 -27 OFFCURVE",
"1172 -27 CURVE SMOOTH",
"1226 -27 OFFCURVE",
"1274 -18 OFFCURVE",
"1316 0 CURVE SMOOTH",
"1434 50 OFFCURVE",
"1511 160 OFFCURVE",
"1511 325 CURVE SMOOTH",
"1511 544 OFFCURVE",
"1395 681 OFFCURVE",
"1176 681 CURVE SMOOTH"
);
},
{
closed = 1;
nodes = (
"358 1447 OFFCURVE",
"310 1438 OFFCURVE",
"268 1420 CURVE SMOOTH",
"150 1371 OFFCURVE",
"73 1260 OFFCURVE",
"73 1095 CURVE SMOOTH",
"73 878 OFFCURVE",
"192 740 OFFCURVE",
"410 740 CURVE SMOOTH",
"463 740 OFFCURVE",
"511 748 OFFCURVE",
"553 766 CURVE SMOOTH",
"670 815 OFFCURVE",
"749 928 OFFCURVE",
"749 1092 CURVE SMOOTH",
"749 1312 OFFCURVE",
"632 1447 OFFCURVE",
"412 1447 CURVE SMOOTH"
);
},
{
closed = 1;
nodes = (
"545 1335 OFFCURVE",
"604 1228 OFFCURVE",
"604 1093 CURVE SMOOTH",
"604 963 OFFCURVE",
"545 853 OFFCURVE",
"414 853 CURVE SMOOTH",
"278 853 OFFCURVE",
"219 960 OFFCURVE",
"219 1096 CURVE SMOOTH",
"219 1227 OFFCURVE",
"280 1335 OFFCURVE",
"411 1335 CURVE SMOOTH"
);
},
{
closed = 1;
nodes = (
"1909 681 OFFCURVE",
"1860 672 OFFCURVE",
"1818 654 CURVE SMOOTH",
"1699 604 OFFCURVE",
"1623 494 OFFCURVE",
"1623 328 CURVE SMOOTH",
"1623 112 OFFCURVE",
"1742 -27 OFFCURVE",
"1959 -27 CURVE SMOOTH",
"2013 -27 OFFCURVE",
"2061 -18 OFFCURVE",
"2103 0 CURVE SMOOTH",
"2220 49 OFFCURVE",
"2299 161 OFFCURVE",
"2299 325 CURVE SMOOTH",
"2299 545 OFFCURVE",
"2184 681 OFFCURVE",
"1964 681 CURVE SMOOTH"
);
},
{
closed = 1;
nodes = (
"2096 567 OFFCURVE",
"2156 461 OFFCURVE",
"2156 327 CURVE SMOOTH",
"2156 195 OFFCURVE",
"2095 86 OFFCURVE",
"1963 86 CURVE SMOOTH",
"1828 86 OFFCURVE",
"1768 192 OFFCURVE",
"1768 328 CURVE SMOOTH",
"1768 461 OFFCURVE",
"1829 567 OFFCURVE",
"1962 567 CURVE SMOOTH"
);
}
);
width = 2386;
}
);
unicode = 2030;
},
{
glyphname = dotlessi;
lastChange = "2013-01-26 16:31:17 -0800";
layers = (
{
anchors = (
{
name = ogonek;
position = "{453, 10}";
},
{
name = top;
position = "{252, 1026}";
}
);
layerId = "E08CDE4C-5D6C-43D8-8149-5F9E51F0B944";
name = "Bold Condensed";
paths = (
{
closed = 1;
nodes = (
"105 1026 LINE",
"105 278 LINE SMOOTH",
"105 100 OFFCURVE",
"231 -5 OFFCURVE",
"444 -5 CURVE SMOOTH",
"493 -5 OFFCURVE",
"555 8 OFFCURVE",
"610 30 CURVE",
"590 210 LINE",
"551 195 OFFCURVE",
"510 186 OFFCURVE",
"481 186 CURVE SMOOTH",
"406 186 OFFCURVE",
"361 248 OFFCURVE",
"361 352 CURVE SMOOTH",
"361 1026 LINE"
);
}
);
width = 603;
}
);
unicode = 0131;
},
{
glyphname = circumflex;
lastChange = "2013-01-26 16:28:58 -0800";
layers = (
{
anchors = (
{
name = _top;
position = "{342, 1026}";
}
);
layerId = "E08CDE4C-5D6C-43D8-8149-5F9E51F0B944";
name = "Bold Condensed";
paths = (
{
closed = 1;
nodes = (
"263 1494 LINE",
"15 1170 LINE",
"201 1170 LINE",
"342 1327 LINE",
"477 1170 LINE",
"669 1170 LINE",
"420 1494 LINE"
);
}
);
width = 699;
}
);
unicode = 02C6;
},
{
glyphname = tilde;
lastChange = "2013-01-26 16:29:05 -0800";
layers = (
{
anchors = (
{
name = _top;
position = "{336, 1026}";
}
);
layerId = "E08CDE4C-5D6C-43D8-8149-5F9E51F0B944";
name = "Bold Condensed";
paths = (
{
closed = 1;
nodes = (
"550 1435 LINE",
"543 1384 OFFCURVE",
"516 1345 OFFCURVE",
"463 1345 CURVE SMOOTH",
"444 1345 OFFCURVE",
"424 1349 OFFCURVE",
"404 1356 CURVE SMOOTH",
"346 1377 OFFCURVE",
"289 1413 OFFCURVE",
"213 1413 CURVE SMOOTH",
"89 1413 OFFCURVE",
"24 1319 OFFCURVE",
"14 1203 CURVE",
"119 1203 LINE",
"126 1260 OFFCURVE",
"156 1288 OFFCURVE",
"210 1288 CURVE SMOOTH",
"305 1288 OFFCURVE",
"367 1220 OFFCURVE",
"463 1220 CURVE SMOOTH",
"587 1220 OFFCURVE",
"645 1322 OFFCURVE",
"658 1435 CURVE"
);
}
);
width = 663;
}
);
unicode = 02DC;
},
{
glyphname = macron;
lastChange = "2013-01-26 16:29:13 -0800";
layers = (
{
anchors = (
{
name = _top;
position = "{365, 1026}";
}
);
layerId = "E08CDE4C-5D6C-43D8-8149-5F9E51F0B944";
name = "Bold Condensed";
paths = (
{
closed = 1;
nodes = (
"79 1317 LINE",
"79 1183 LINE",
"651 1183 LINE",
"651 1317 LINE"
);
}
);
width = 728;
}
);
unicode = 00AF;
},
{
glyphname = breve;
lastChange = "2013-01-26 16:29:20 -0800";
layers = (
{
anchors = (
{
name = _top;
position = "{314, 1026}";
}
);
layerId = "E08CDE4C-5D6C-43D8-8149-5F9E51F0B944";
name = "Bold Condensed";
paths = (
{
closed = 1;
nodes = (
"510 1454 LINE",
"490 1370 OFFCURVE",
"411 1325 OFFCURVE",
"309 1325 CURVE SMOOTH",
"207 1325 OFFCURVE",
"134 1366 OFFCURVE",
"119 1454 CURVE",
"32 1454 LINE",
"45 1294 OFFCURVE",
"145 1218 OFFCURVE",
"316 1218 CURVE SMOOTH",
"482 1218 OFFCURVE",
"583 1300 OFFCURVE",
"596 1454 CURVE"
);
}
);
width = 629;
}
);
unicode = 02D8;
},
{
glyphname = dotaccent;
lastChange = "2013-01-26 16:29:26 -0800";
layers = (
{
anchors = (
{
name = _top;
position = "{264, 1026}";
}
);
layerId = "E08CDE4C-5D6C-43D8-8149-5F9E51F0B944";
name = "Bold Condensed";
paths = (
{
closed = 1;
nodes = (
"184 1409 LINE",
"184 1246 LINE",
"344 1246 LINE",
"344 1409 LINE"
);
}
);
width = 524;
}
);
unicode = 02D9;
},
{
glyphname = ring;
lastChange = "2013-01-26 16:29:45 -0800";
layers = (
{
anchors = (
{
name = _top;
position = "{300, 1026}";
}
);
layerId = "E08CDE4C-5D6C-43D8-8149-5F9E51F0B944";
name = "Bold Condensed";
paths = (
{
closed = 1;
nodes = (
"210 1530 OFFCURVE",
"90 1472 OFFCURVE",
"90 1339 CURVE SMOOTH",
"90 1246 OFFCURVE",
"164 1149 OFFCURVE",
"301 1149 CURVE SMOOTH",
"387 1149 OFFCURVE",
"510 1209 OFFCURVE",
"510 1340 CURVE SMOOTH",
"510 1432 OFFCURVE",
"435 1530 OFFCURVE",
"300 1530 CURVE SMOOTH"
);
},
{
closed = 1;
nodes = (
"361 1445 OFFCURVE",
"410 1402 OFFCURVE",
"410 1340 CURVE SMOOTH",
"410 1280 OFFCURVE",
"359 1235 OFFCURVE",
"299 1235 CURVE SMOOTH",
"234 1235 OFFCURVE",
"189 1276 OFFCURVE",
"189 1340 CURVE SMOOTH",
"189 1400 OFFCURVE",
"239 1445 OFFCURVE",
"299 1445 CURVE SMOOTH"
);
}
);
width = 605;
}
);
unicode = 02DA;
},
{
glyphname = cedilla;
lastChange = "2013-01-26 16:29:53 -0800";
layers = (
{
anchors = (
{
name = _bottom;
position = "{229, 0}";
}
);
layerId = "E08CDE4C-5D6C-43D8-8149-5F9E51F0B944";
name = "Bold Condensed";
paths = (
{
closed = 1;
nodes = (
"180 17 LINE",
"147 -173 LINE",
"179 -171 LINE SMOOTH",
"190 -170 OFFCURVE",
"207 -168 OFFCURVE",
"216 -168 CURVE SMOOTH",
"276 -168 OFFCURVE",
"325 -182 OFFCURVE",
"325 -241 CURVE SMOOTH",
"325 -297 OFFCURVE",
"277 -313 OFFCURVE",
"211 -313 CURVE SMOOTH",
"157 -313 OFFCURVE",
"110 -301 OFFCURVE",
"60 -289 CURVE",
"52 -374 LINE",
"106 -385 OFFCURVE",
"167 -396 OFFCURVE",
"227 -396 CURVE SMOOTH",
"348 -396 OFFCURVE",
"468 -359 OFFCURVE",
"468 -239 CURVE SMOOTH",
"468 -131 OFFCURVE",
"372 -95 OFFCURVE",
"268 -90 CURVE",
"259 -90 LINE",
"277 17 LINE"
);
}
);
width = 529;
}
);
unicode = 00B8;
},
{
glyphname = hungarumlaut;
lastChange = "2013-01-26 16:30:00 -0800";
layers = (
{
anchors = (
{
name = _top;
position = "{494, 1026}";
}
);
layerId = "E08CDE4C-5D6C-43D8-8149-5F9E51F0B944";
name = "Bold Condensed";
paths = (
{
closed = 1;
nodes = (
"649 1487 LINE",
"429 1174 LINE",
"549 1174 LINE",
"825 1487 LINE"
);
},
{
closed = 1;
nodes = (
"379 1487 LINE",
"162 1174 LINE",
"280 1174 LINE",
"555 1487 LINE"
);
}
);
width = 968;
}
);
unicode = 02DD;
},
{
glyphname = ogonek;
lastChange = "2013-01-26 16:30:06 -0800";
layers = (
{
anchors = (
{
name = _ogonek;
position = "{313, 0}";
}
);
layerId = "E08CDE4C-5D6C-43D8-8149-5F9E51F0B944";
name = "Bold Condensed";
paths = (
{
closed = 1;
nodes = (
"209 -14 OFFCURVE",
"155 -49 OFFCURVE",
"115 -89 CURVE SMOOTH",
"82 -122 OFFCURVE",
"48 -167 OFFCURVE",
"48 -225 CURVE SMOOTH",
"48 -252 OFFCURVE",
"54 -276 OFFCURVE",
"65 -296 CURVE SMOOTH",
"99 -357 OFFCURVE",
"172 -390 OFFCURVE",
"266 -390 CURVE SMOOTH",
"330 -390 OFFCURVE",
"397 -380 OFFCURVE",
"443 -361 CURVE",
"443 -250 LINE",
"397 -268 OFFCURVE",
"353 -281 OFFCURVE",
"289 -281 CURVE SMOOTH",
"238 -281 OFFCURVE",
"189 -250 OFFCURVE",
"189 -199 CURVE SMOOTH",
"189 -183 OFFCURVE",
"194 -167 OFFCURVE",
"204 -151 CURVE SMOOTH",
"246 -86 OFFCURVE",
"323 -42 OFFCURVE",
"392 0 CURVE",
"263 12 LINE"
);
}
);
width = 508;
}
);
unicode = 02DB;
},
{
glyphname = caron;
lastChange = "2013-01-26 16:30:12 -0800";
layers = (
{
anchors = (
{
name = _top;
position = "{346, 1026}";
}
);
layerId = "E08CDE4C-5D6C-43D8-8149-5F9E51F0B944";
name = "Bold Condensed";
paths = (
{
closed = 1;
nodes = (
"508 1493 LINE",
"340 1278 LINE",
"176 1493 LINE",
"29 1493 LINE",
"268 1170 LINE",
"424 1170 LINE",
"662 1493 LINE"
);
}
);
width = 699;
}
);
unicode = 02C7;
},
{
glyphname = kgreenlandic;
lastChange = "2013-01-25 15:14:08 -0800";
layers = (
{
layerId = "E08CDE4C-5D6C-43D8-8149-5F9E51F0B944";
name = "Bold Condensed";
paths = (
{
closed = 1;
nodes = (
"809 1026 LINE",
"343 557 LINE",
"343 1026 LINE",
"178 1026 LINE",
"178 0 LINE",
"343 0 LINE",
"343 471 LINE",
"853 0 LINE",
"1072 0 LINE",
"881 174 OFFCURVE",
"695 338 OFFCURVE",
"504 512 CURVE",
"1034 1026 LINE"
);
}
);
width = 1082;
}
);
unicode = 0138;
},
{
glyphname = uni0237;
lastChange = "2013-01-25 15:14:08 -0800";
layers = (
{
anchors = (
{
name = top;
position = "{252, 0}";
}
);
layerId = "E08CDE4C-5D6C-43D8-8149-5F9E51F0B944";
name = "Bold Condensed";
paths = (
{
closed = 1;
nodes = (
"175 1026 LINE",
"175 31 LINE SMOOTH",
"175 -146 OFFCURVE",
"138 -283 OFFCURVE",
"-18 -283 CURVE SMOOTH",
"-48 -283 OFFCURVE",
"-72 -278 OFFCURVE",
"-102 -273 CURVE",
"-101 -416 LINE",
"-63 -425 OFFCURVE",
"-23 -429 OFFCURVE",
"21 -429 CURVE SMOOTH",
"67 -429 OFFCURVE",
"106 -422 OFFCURVE",
"140 -407 CURVE SMOOTH",
"296 -339 OFFCURVE",
"340 -150 OFFCURVE",
"340 73 CURVE SMOOTH",
"340 1026 LINE"
);
}
);
width = 503;
}
);
unicode = 0237;
},
{
glyphname = u.alt;
lastChange = "2013-01-25 15:14:11 -0800";
layers = (
{
anchors = (
{
name = ogonek;
position = "{1093, 10}";
},
{
name = top;
position = "{608, 0}";
}
);
layerId = "E08CDE4C-5D6C-43D8-8149-5F9E51F0B944";
name = "Bold Condensed";
paths = (
{
closed = 1;
nodes = (
"857 1026 LINE",
"857 418 LINE SMOOTH",
"857 222 OFFCURVE",
"699 118 OFFCURVE",
"555 118 CURVE SMOOTH",
"434 118 OFFCURVE",
"324 183 OFFCURVE",
"324 379 CURVE SMOOTH",
"324 595 LINE SMOOTH",
"324 911 OFFCURVE",
"285 1026 OFFCURVE",
"285 1026 CURVE",
"120 1026 LINE",
"120 1026 OFFCURVE",
"159 871 OFFCURVE",
"159 582 CURVE SMOOTH",
"159 379 LINE SMOOTH",
"159 94 OFFCURVE",
"336 -24 OFFCURVE",
"530 -24 CURVE SMOOTH",
"688 -24 OFFCURVE",
"807 38 OFFCURVE",
"889 155 CURVE",
"916 44 OFFCURVE",
"1014 -4 OFFCURVE",
"1111 -4 CURVE",
"1146 139 LINE",
"1094 139 OFFCURVE",
"1022 170 OFFCURVE",
"1022 286 CURVE SMOOTH",
"1022 1026 LINE"
);
}
);
width = 1215;
}
);
},
{
glyphname = e.alt;
lastChange = "2013-01-25 15:14:11 -0800";
layers = (
{
anchors = (
{
name = bottom;
position = "{537, 0}";
},
{
name = ogonek;
position = "{966, 10}";
},
{
name = top;
position = "{537, 0}";
}
);
layerId = "E08CDE4C-5D6C-43D8-8149-5F9E51F0B944";
name = "Bold Condensed";
paths = (
{
closed = 1;
nodes = (
"269 1056 OFFCURVE",
"94 805 OFFCURVE",
"94 516 CURVE SMOOTH",
"94 176 OFFCURVE",
"325 -19 OFFCURVE",
"589 -19 CURVE SMOOTH",
"758 -19 OFFCURVE",
"895 46 OFFCURVE",
"1013 170 CURVE",
"930 276 LINE",
"856 187 OFFCURVE",
"735 123 OFFCURVE",
"596 123 CURVE SMOOTH",
"462 123 OFFCURVE",
"334 192 OFFCURVE",
"289 371 CURVE",
"655 425 OFFCURVE",
"946 506 OFFCURVE",
"946 751 CURVE SMOOTH",
"946 918 OFFCURVE",
"808 1056 OFFCURVE",
"592 1056 CURVE SMOOTH"
);
},
{
closed = 1;
nodes = (
"714 913 OFFCURVE",
"783 846 OFFCURVE",
"783 755 CURVE SMOOTH",
"783 594 OFFCURVE",
"563 534 OFFCURVE",
"277 490 CURVE",
"275 507 OFFCURVE",
"274 523 OFFCURVE",
"274 539 CURVE SMOOTH",
"274 735 OFFCURVE",
"392 913 OFFCURVE",
"593 913 CURVE SMOOTH"
);
}
);
width = 1073;
}
);
},
{
glyphname = Euro;
lastChange = "2013-01-25 15:14:11 -0800";
layers = (
{
layerId = "E08CDE4C-5D6C-43D8-8149-5F9E51F0B944";
name = "Bold Condensed";
paths = (
{
closed = 1;
nodes = (
"704 1448 OFFCURVE",
"632 1435 OFFCURVE",
"569 1409 CURVE SMOOTH",
"376 1330 OFFCURVE",
"260 1153 OFFCURVE",
"218 922 CURVE",
"97 922 LINE",
"75 784 LINE",
"199 784 LINE",
"198 761 OFFCURVE",
"197 741 OFFCURVE",
"197 719 CURVE SMOOTH",
"197 694 OFFCURVE",
"198 672 OFFCURVE",
"200 654 CURVE",
"98 654 LINE",
"78 516 LINE",
"213 516 LINE",
"251 209 OFFCURVE",
"407 -21 OFFCURVE",
"751 -21 CURVE SMOOTH",
"890 -21 OFFCURVE",
"994 14 OFFCURVE",
"1083 75 CURVE",
"1084 253 LINE",
"995 184 OFFCURVE",
"900 125 OFFCURVE",
"767 125 CURVE SMOOTH",
"520 125 OFFCURVE",
"422 297 OFFCURVE",
"392 516 CURVE",
"934 516 LINE",
"953 654 LINE",
"378 654 LINE",
"376 702 LINE SMOOTH",
"375 720 OFFCURVE",
"374 742 OFFCURVE",
"375 761 CURVE",
"375 773 LINE SMOOTH",
"375 777 OFFCURVE",
"376 781 OFFCURVE",
"377 784 CURVE",
"967 784 LINE",
"987 922 LINE",
"395 922 LINE",
"437 1116 OFFCURVE",
"541 1303 OFFCURVE",
"776 1303 CURVE SMOOTH",
"914 1303 OFFCURVE",
"1009 1232 OFFCURVE",
"1070 1141 CURVE",
"1106 1330 LINE",
"1028 1404 OFFCURVE",
"928 1448 OFFCURVE",
"783 1448 CURVE SMOOTH"
);
}
);
width = 1190;
}
);
unicode = 20AC;
},
{
glyphname = n.alt;
lastChange = "2013-01-25 15:14:11 -0800";
layers = (
{
anchors = (
{
name = bottom;
position = "{632, 0}";
},
{
name = top;
position = "{632, 0}";
}
);
layerId = "E08CDE4C-5D6C-43D8-8149-5F9E51F0B944";
name = "Bold Condensed";
paths = (
{
closed = 1;
nodes = (
"499 1051 OFFCURVE",
"416 988 OFFCURVE",
"343 884 CURVE",
"321 1026 LINE",
"154 1026 LINE",
"160 977 OFFCURVE",
"180 784 OFFCURVE",
"180 699 CURVE SMOOTH",
"180 0 LINE",
"345 0 LINE",
"345 652 LINE SMOOTH",
"345 799 OFFCURVE",
"485 911 OFFCURVE",
"639 911 CURVE SMOOTH",
"850 911 OFFCURVE",
"883 790 OFFCURVE",
"883 585 CURVE SMOOTH",
"883 572 LINE",
"881 265 LINE",
"881 248 LINE SMOOTH",
"881 62 OFFCURVE",
"908 -2 OFFCURVE",
"1096 -24 CURVE",
"1132 102 LINE",
"1057 117 OFFCURVE",
"1046 142 OFFCURVE",
"1046 255 CURVE SMOOTH",
"1046 270 LINE",
"1048 567 LINE",
"1048 577 LINE SMOOTH",
"1048 867 OFFCURVE",
"960 1051 OFFCURVE",
"667 1051 CURVE SMOOTH"
);
}
);
width = 1263;
}
);
},
{
glyphname = uni00B9;
lastChange = "2013-01-25 15:14:08 -0800";
layers = (
{
layerId = "E08CDE4C-5D6C-43D8-8149-5F9E51F0B944";
name = "Bold Condensed";
paths = (
{
closed = 1;
nodes = (
"408 1412 LINE",
"356 1381 OFFCURVE",
"307 1354 OFFCURVE",
"240 1333 CURVE",
"239 1203 LINE",
"289 1222 OFFCURVE",
"347 1248 OFFCURVE",
"391 1271 CURVE",
"391 1168 LINE SMOOTH",
"391 1116 OFFCURVE",
"392 1067 OFFCURVE",
"392 1008 CURVE SMOOTH",
"392 723 LINE",
"270 723 LINE",
"270 604 LINE",
"635 604 LINE",
"635 720 LINE",
"513 720 LINE",
"513 1427 LINE"
);
}
);
width = 1190;
}
);
unicode = 00B9;
},
{
glyphname = J.alt;
lastChange = "2013-01-25 15:14:08 -0800";
layers = (
{
anchors = (
{
name = top;
position = "{470, 0}";
}
);
layerId = "E08CDE4C-5D6C-43D8-8149-5F9E51F0B944";
name = "Bold Condensed";
paths = (
{
closed = 1;
nodes = (
"583 1456 LINE",
"583 488 LINE SMOOTH",
"583 296 OFFCURVE",
"517 125 OFFCURVE",
"326 125 CURVE SMOOTH",
"237 125 OFFCURVE",
"176 156 OFFCURVE",
"122 197 CURVE",
"71 81 LINE",
"131 21 OFFCURVE",
"208 -23 OFFCURVE",
"321 -23 CURVE SMOOTH",
"388 -23 OFFCURVE",
"448 -12 OFFCURVE",
"502 11 CURVE SMOOTH",
"671 82 OFFCURVE",
"755 256 OFFCURVE",
"755 499 CURVE SMOOTH",
"755 1456 LINE"
);
}
);
width = 939;
}
);
},
{
glyphname = a.alt;
lastChange = "2013-01-25 15:14:08 -0800";
layers = (
{
anchors = (
{
name = ogonek;
position = "{1097, 10}";
},
{
name = top;
position = "{610, 0}";
}
);
layerId = "E08CDE4C-5D6C-43D8-8149-5F9E51F0B944";
name = "Bold Condensed";
paths = (
{
closed = 1;
nodes = (
"284 1052 OFFCURVE",
"88 844 OFFCURVE",
"88 494 CURVE SMOOTH",
"88 192 OFFCURVE",
"281 -23 OFFCURVE",
"553 -23 CURVE SMOOTH",
"675 -23 OFFCURVE",
"832 13 OFFCURVE",
"925 166 CURVE",
"952 46 OFFCURVE",
"1070 -4 OFFCURVE",
"1157 -4 CURVE",
"1191 139 LINE",
"1139 139 OFFCURVE",
"1066 170 OFFCURVE",
"1066 286 CURVE SMOOTH",
"1066 519 LINE SMOOTH",
"1066 928 OFFCURVE",
"864 1052 OFFCURVE",
"614 1052 CURVE SMOOTH"
);
},
{
closed = 1;
nodes = (
"798 913 OFFCURVE",
"902 814 OFFCURVE",
"902 524 CURVE SMOOTH",
"902 272 OFFCURVE",
"828 117 OFFCURVE",
"572 117 CURVE SMOOTH",
"387 117 OFFCURVE",
"255 278 OFFCURVE",
"255 504 CURVE SMOOTH",
"255 761 OFFCURVE",
"390 913 OFFCURVE",
"617 913 CURVE SMOOTH"
);
}
);
width = 1219;
}
);
},
{
glyphname = uni03A9;
lastChange = "2013-01-25 15:14:11 -0800";
layers = (
{
anchors = (
{
name = topleft;
position = "{20, 0}";
}
);
layerId = "E08CDE4C-5D6C-43D8-8149-5F9E51F0B944";
name = "Bold Condensed";
paths = (
{
closed = 1;
nodes = (
"596 1449 OFFCURVE",
"426 1374 OFFCURVE",
"312 1266 CURVE SMOOTH",
"196 1157 OFFCURVE",
"114 994 OFFCURVE",
"114 776 CURVE SMOOTH",
"114 707 OFFCURVE",
"122 640 OFFCURVE",
"138 578 CURVE SMOOTH",
"186 385 OFFCURVE",
"295 240 OFFCURVE",
"435 137 CURVE",
"93 138 LINE",
"104 0 LINE",
"645 0 LINE",
"642 121 LINE",
"590 155 OFFCURVE",
"543 195 OFFCURVE",
"500 240 CURVE SMOOTH",
"386 361 OFFCURVE",
"293 531 OFFCURVE",
"293 759 CURVE SMOOTH",
"293 840 OFFCURVE",
"305 914 OFFCURVE",
"330 982 CURVE SMOOTH",
"399 1168 OFFCURVE",
"555 1309 OFFCURVE",
"804 1309 CURVE SMOOTH",
"887 1309 OFFCURVE",
"960 1294 OFFCURVE",
"1022 1264 CURVE SMOOTH",
"1194 1181 OFFCURVE",
"1303 1004 OFFCURVE",
"1303 754 CURVE SMOOTH",
"1303 687 OFFCURVE",
"1294 622 OFFCURVE",
"1276 560 CURVE SMOOTH",
"1221 367 OFFCURVE",
"1099 221 OFFCURVE",
"949 121 CURVE",
"953 0 LINE",
"1474 0 LINE",
"1483 138 LINE",
"1155 137 LINE",
"1242 206 OFFCURVE",
"1323 296 OFFCURVE",
"1381 398 CURVE SMOOTH",
"1437 498 OFFCURVE",
"1481 621 OFFCURVE",
"1481 772 CURVE SMOOTH",
"1481 980 OFFCURVE",
"1406 1143 OFFCURVE",
"1300 1254 CURVE SMOOTH",
"1191 1368 OFFCURVE",
"1026 1449 OFFCURVE",
"809 1449 CURVE SMOOTH"
);
}
);
width = 1603;
}
);
unicode = 03A9;
},
{
glyphname = s.alt;
lastChange = "2013-01-25 15:14:08 -0800";
layers = (
{
anchors = (
{
name = bottom;
position = "{501, 0}";
},
{
name = top;
position = "{501, 0}";
}
);
layerId = "E08CDE4C-5D6C-43D8-8149-5F9E51F0B944";
name = "Bold Condensed";
paths = (
{
closed = 1;
nodes = (
"294 1056 OFFCURVE",
"114 967 OFFCURVE",
"114 771 CURVE SMOOTH",
"114 570 OFFCURVE",
"283 512 OFFCURVE",
"448 463 CURVE SMOOTH",
"555 431 OFFCURVE",
"739 404 OFFCURVE",
"739 272 CURVE SMOOTH",
"739 150 OFFCURVE",
"644 112 OFFCURVE",
"529 112 CURVE SMOOTH",
"396 112 OFFCURVE",
"236 170 OFFCURVE",
"161 227 CURVE",
"114 90 LINE",
"220 25 OFFCURVE",
"396 -26 OFFCURVE",
"552 -26 CURVE SMOOTH",
"739 -26 OFFCURVE",
"902 52 OFFCURVE",
"902 284 CURVE SMOOTH",
"902 492 OFFCURVE",
"710 547 OFFCURVE",
"550 596 CURVE SMOOTH",
"455 625 OFFCURVE",
"285 653 OFFCURVE",
"285 774 CURVE SMOOTH",
"285 881 OFFCURVE",
"382 917 OFFCURVE",
"493 917 CURVE SMOOTH",
"606 917 OFFCURVE",
"732 880 OFFCURVE",
"787 844 CURVE",
"834 966 LINE",
"736 1025 OFFCURVE",
"612 1056 OFFCURVE",
"494 1056 CURVE SMOOTH"
);
}
);
width = 1001;
}
);
},
{
glyphname = uni03BC;
lastChange = "2013-01-25 15:14:08 -0800";
layers = (
{
layerId = "E08CDE4C-5D6C-43D8-8149-5F9E51F0B944";
name = "Bold Condensed";
paths = (
{
closed = 1;
nodes = (
"878 1026 LINE",
"878 436 LINE SMOOTH",
"878 392 OFFCURVE",
"871 350 OFFCURVE",
"858 310 CURVE SMOOTH",
"820 196 OFFCURVE",
"729 109 OFFCURVE",
"578 109 CURVE SMOOTH",
"396 109 OFFCURVE",
"322 214 OFFCURVE",
"322 399 CURVE SMOOTH",
"322 1026 LINE",
"157 1026 LINE",
"157 -202 LINE",
"322 -202 LINE",
"322 31 LINE",
"379 -3 OFFCURVE",
"449 -23 OFFCURVE",
"540 -23 CURVE SMOOTH",
"688 -23 OFFCURVE",
"801 30 OFFCURVE",
"878 135 CURVE",
"881 0 LINE",
"1051 0 LINE",
"1044 84 OFFCURVE",
"1043 156 OFFCURVE",
"1043 246 CURVE SMOOTH",
"1043 1026 LINE"
);
}
);
width = 1217;
}
);
unicode = 03BC;
},
{
glyphname = hbar;
lastChange = "2013-01-25 15:14:11 -0800";
layers = (
{
layerId = "E08CDE4C-5D6C-43D8-8149-5F9E51F0B944";
name = "Bold Condensed";
paths = (
{
closed = 1;
nodes = (
"516 1048 OFFCURVE",
"384 984 OFFCURVE",
"315 868 CURVE",
"316 567 LINE",
"316 772 OFFCURVE",
"480 908 OFFCURVE",
"628 908 CURVE SMOOTH",
"839 908 OFFCURVE",
"868 767 OFFCURVE",
"868 562 CURVE SMOOTH",
"866 352 LINE",
"866 346 LINE SMOOTH",
"866 103 OFFCURVE",
"944 -22 OFFCURVE",
"1141 -25 CURVE",
"1167 106 LINE",
"1063 127 OFFCURVE",
"1030 209 OFFCURVE",
"1031 357 CURVE SMOOTH",
"1033 565 LINE SMOOTH",
"1036 856 OFFCURVE",
"939 1048 OFFCURVE",
"666 1048 CURVE SMOOTH"
);
},
{
closed = 1;
nodes = (
"152 1506 LINE",
"152 0 LINE",
"316 0 LINE",
"316 1526 LINE"
);
},
{
closed = 1;
nodes = (
"331 1758 LINE",
"331 1624 LINE",
"903 1624 LINE",
"903 1758 LINE"
);
}
);
width = 1224;
}
);
unicode = 0127;
},
{
glyphname = uni00B3;
lastChange = "2013-01-25 15:14:11 -0800";
layers = (
{
layerId = "E08CDE4C-5D6C-43D8-8149-5F9E51F0B944";
name = "Bold Condensed";
paths = (
{
closed = 1;
nodes = (
"383 1441 OFFCURVE",
"290 1394 OFFCURVE",
"235 1340 CURVE",
"293 1244 LINE",
"342 1284 OFFCURVE",
"403 1322 OFFCURVE",
"485 1322 CURVE SMOOTH",
"566 1322 OFFCURVE",
"626 1291 OFFCURVE",
"626 1210 CURVE SMOOTH",
"626 1110 OFFCURVE",
"530 1089 OFFCURVE",
"429 1089 CURVE SMOOTH",
"380 1089 LINE",
"380 970 LINE",
"406 970 LINE SMOOTH",
"415 970 OFFCURVE",
"429 971 OFFCURVE",
"436 971 CURVE SMOOTH",
"549 971 OFFCURVE",
"651 948 OFFCURVE",
"651 837 CURVE SMOOTH",
"651 745 OFFCURVE",
"570 701 OFFCURVE",
"476 701 CURVE SMOOTH",
"411 701 OFFCURVE",
"351 727 OFFCURVE",
"295 779 CURVE",
"235 683 LINE",
"292 626 OFFCURVE",
"374 586 OFFCURVE",
"481 586 CURVE SMOOTH",
"521 586 OFFCURVE",
"560 592 OFFCURVE",
"596 603 CURVE SMOOTH",
"694 634 OFFCURVE",
"780 708 OFFCURVE",
"780 834 CURVE SMOOTH",
"780 937 OFFCURVE",
"726 999 OFFCURVE",
"652 1032 CURVE",
"714 1065 OFFCURVE",
"759 1124 OFFCURVE",
"759 1213 CURVE SMOOTH",
"759 1250 OFFCURVE",
"751 1282 OFFCURVE",
"736 1310 CURVE SMOOTH",
"694 1388 OFFCURVE",
"606 1441 OFFCURVE",
"487 1441 CURVE SMOOTH"
);
}
);
width = 1190;
}
);
unicode = 00B3;
},
{
glyphname = dblgravecmb;
lastChange = "2013-01-26 16:30:18 -0800";
layers = (
{
anchors = (
{
name = _top;
position = "{494, 1026}";
}
);
layerId = "E08CDE4C-5D6C-43D8-8149-5F9E51F0B944";
name = "Bold Condensed";
paths = (
{
closed = 1;
nodes = (
"162 1487 LINE",
"438 1174 LINE",
"558 1174 LINE",
"338 1487 LINE"
);
},
{
closed = 1;
nodes = (
"432 1487 LINE",
"707 1174 LINE",
"825 1174 LINE",
"608 1487 LINE"
);
}
);
width = 968;
}
);
unicode = 030F;
},
{
glyphname = uni00B2;
lastChange = "2013-01-25 15:14:11 -0800";
layers = (
{
layerId = "E08CDE4C-5D6C-43D8-8149-5F9E51F0B944";
name = "Bold Condensed";
paths = (
{
closed = 1;
nodes = (
"429 1440 OFFCURVE",
"334 1370 OFFCURVE",
"291 1270 CURVE",
"376 1192 LINE",
"409 1262 OFFCURVE",
"466 1323 OFFCURVE",
"561 1323 CURVE SMOOTH",
"640 1323 OFFCURVE",
"701 1286 OFFCURVE",
"701 1211 CURVE SMOOTH",
"701 1183 OFFCURVE",
"691 1152 OFFCURVE",
"670 1118 CURVE SMOOTH",
"649 1084 OFFCURVE",
"621 1047 OFFCURVE",
"584 1006 CURVE SMOOTH",
"495 908 OFFCURVE",
"389 812 OFFCURVE",
"283 715 CURVE",
"283 604 LINE",
"829 604 LINE",
"829 722 LINE",
"465 722 LINE",
"557 802 OFFCURVE",
"650 879 OFFCURVE",
"724 968 CURVE SMOOTH",
"778 1033 OFFCURVE",
"830 1108 OFFCURVE",
"830 1213 CURVE SMOOTH",
"830 1248 OFFCURVE",
"823 1279 OFFCURVE",
"810 1307 CURVE SMOOTH",
"771 1388 OFFCURVE",
"685 1440 OFFCURVE",
"567 1440 CURVE SMOOTH"
);
}
);
width = 1190;
}
);
unicode = 00B2;
},
{
glyphname = commaaccentcomb;
lastChange = "2013-01-26 16:30:24 -0800";
layers = (
{
anchors = (
{
name = _bottom;
position = "{274, 0}";
}
);
layerId = "E08CDE4C-5D6C-43D8-8149-5F9E51F0B944";
name = "Bold Condensed";
paths = (
{
closed = 1;
nodes = (
"185 -162 LINE",
"78 -625 LINE",
"209 -625 LINE",
"372 -162 LINE"
);
}
);
width = 540;
}
);
unicode = 0326;
},
{
glyphname = k.alt;
lastChange = "2013-01-25 15:14:11 -0800";
layers = (
{
anchors = (
{
name = bottom;
position = "{541, 0}";
}
);
layerId = "E08CDE4C-5D6C-43D8-8149-5F9E51F0B944";
name = "Bold Condensed";
paths = (
{
closed = 1;
nodes = (
"178 1526 LINE",
"178 0 LINE",
"303 0 LINE",
"534 343 OFFCURVE",
"766 684 OFFCURVE",
"998 1026 CURVE",
"819 1026 LINE",
"343 308 LINE",
"343 1526 LINE"
);
},
{
closed = 1;
nodes = (
"578 485 LINE",
"885 0 LINE",
"1066 0 LINE",
"693 583 LINE"
);
}
);
width = 1082;
}
);
},
{
glyphname = uniF6C3;
lastChange = "2013-01-25 15:14:08 -0800";
layers = (
{
layerId = "E08CDE4C-5D6C-43D8-8149-5F9E51F0B944";
name = "Bold Condensed";
paths = (
{
closed = 1;
nodes = (
"217 -140 LINE",
"110 -603 LINE",
"241 -603 LINE",
"404 -140 LINE"
);
}
);
width = 599;
}
);
},
{
glyphname = uni0311;
lastChange = "2013-01-26 16:30:46 -0800";
layers = (
{
anchors = (
{
name = _top;
position = "{314, 1026}";
}
);
layerId = "E08CDE4C-5D6C-43D8-8149-5F9E51F0B944";
name = "Bold Condensed";
paths = (
{
closed = 1;
nodes = (
"145 1454 OFFCURVE",
"45 1378 OFFCURVE",
"32 1218 CURVE",
"119 1218 LINE",
"134 1306 OFFCURVE",
"207 1347 OFFCURVE",
"309 1347 CURVE SMOOTH",
"411 1347 OFFCURVE",
"490 1302 OFFCURVE",
"510 1218 CURVE",
"596 1218 LINE",
"583 1372 OFFCURVE",
"482 1454 OFFCURVE",
"316 1454 CURVE SMOOTH"
);
}
);
width = 629;
}
);
unicode = 0311;
},
{
glyphname = nine.alt;
lastChange = "2013-01-25 15:14:11 -0800";
layers = (
{
layerId = "E08CDE4C-5D6C-43D8-8149-5F9E51F0B944";
name = "Bold Condensed";
paths = (
{
closed = 1;
nodes = (
"506 1453 OFFCURVE",
"437 1441 OFFCURVE",
"376 1417 CURVE SMOOTH",
"211 1352 OFFCURVE",
"88 1208 OFFCURVE",
"88 984 CURVE SMOOTH",
"88 918 OFFCURVE",
"99 857 OFFCURVE",
"120 802 CURVE SMOOTH",
"182 642 OFFCURVE",
"326 533 OFFCURVE",
"545 533 CURVE SMOOTH",
"725 533 OFFCURVE",
"846 592 OFFCURVE",
"918 707 CURVE",
"918 683 LINE SMOOTH",
"915 527 OFFCURVE",
"877 386 OFFCURVE",
"813 288 CURVE SMOOTH",
"754 196 OFFCURVE",
"659 119 OFFCURVE",
"517 119 CURVE SMOOTH",
"401 119 OFFCURVE",
"308 157 OFFCURVE",
"237 234 CURVE",
"183 121 LINE",
"251 34 OFFCURVE",
"362 -23 OFFCURVE",
"514 -23 CURVE SMOOTH",
"607 -23 OFFCURVE",
"689 -4 OFFCURVE",
"761 34 CURVE SMOOTH",
"984 152 OFFCURVE",
"1093 416 OFFCURVE",
"1093 758 CURVE SMOOTH",
"1093 870 OFFCURVE",
"1082 970 OFFCURVE",
"1059 1056 CURVE SMOOTH",
"1000 1282 OFFCURVE",
"859 1453 OFFCURVE",
"581 1453 CURVE SMOOTH"
);
},
{
closed = 1;
nodes = (
"626 1312 OFFCURVE",
"673 1302 OFFCURVE",
"714 1283 CURVE SMOOTH",
"821 1232 OFFCURVE",
"906 1125 OFFCURVE",
"906 971 CURVE SMOOTH",
"906 925 OFFCURVE",
"897 884 OFFCURVE",
"879 847 CURVE SMOOTH",
"829 744 OFFCURVE",
"722 673 OFFCURVE",
"572 673 CURVE SMOOTH",
"373 673 OFFCURVE",
"264 792 OFFCURVE",
"264 989 CURVE SMOOTH",
"264 1035 OFFCURVE",
"271 1078 OFFCURVE",
"286 1117 CURVE SMOOTH",
"327 1228 OFFCURVE",
"423 1312 OFFCURVE",
"573 1312 CURVE SMOOTH"
);
}
);
width = 1190;
}
);
},
{
glyphname = uni0307;
lastChange = "2013-01-26 16:30:53 -0800";
layers = (
{
anchors = (
{
name = _top;
position = "{264, 1026}";
}
);
layerId = "E08CDE4C-5D6C-43D8-8149-5F9E51F0B944";
name = "Bold Condensed";
paths = (
{
closed = 1;
nodes = (
"184 1409 LINE",
"184 1246 LINE",
"344 1246 LINE",
"344 1409 LINE"
);
}
);
width = 524;
}
);
unicode = 0307;
},
{
glyphname = uni2074;
lastChange = "2013-01-25 15:14:08 -0800";
layers = (
{
layerId = "E08CDE4C-5D6C-43D8-8149-5F9E51F0B944";
name = "Bold Condensed";
paths = (
{
closed = 1;
nodes = (
"344 1412 LINE",
"-22 894 LINE",
"-22 803 LINE",
"356 803 LINE",
"356 615 LINE",
"476 615 LINE",
"476 803 LINE",
"597 803 LINE",
"587 910 LINE",
"478 910 LINE",
"478 1412 LINE"
);
},
{
closed = 1;
nodes = (
"356 910 LINE",
"117 910 LINE",
"356 1244 LINE"
);
}
);
width = 897;
}
);
unicode = 2074;
},
{
glyphname = uniFB01;
lastChange = "2013-01-25 15:14:08 -0800";
layers = (
{
layerId = "E08CDE4C-5D6C-43D8-8149-5F9E51F0B944";
name = "Bold Condensed";
paths = (
{
closed = 1;
nodes = (
"322 1514 OFFCURVE",
"251 1358 OFFCURVE",
"248 1138 CURVE SMOOTH",
"246 1026 LINE",
"45 1026 LINE",
"45 919 LINE",
"246 919 LINE",
"246 0 LINE",
"411 0 LINE",
"411 919 LINE",
"869 919 LINE",
"869 0 LINE",
"1034 0 LINE",
"1034 1026 LINE",
"411 1026 LINE",
"412 1162 LINE SMOOTH",
"412 1297 OFFCURVE",
"438 1379 OFFCURVE",
"573 1379 CURVE SMOOTH",
"610 1379 OFFCURVE",
"657 1374 OFFCURVE",
"683 1364 CURVE",
"681 1493 LINE",
"637 1503 OFFCURVE",
"600 1514 OFFCURVE",
"545 1514 CURVE SMOOTH"
);
},
{
closed = 1;
nodes = (
"877 1462 LINE",
"877 1307 LINE",
"1030 1307 LINE",
"1030 1462 LINE"
);
}
);
width = 1205;
}
);
unicode = FB01;
},
{
glyphname = uniFB02;
lastChange = "2013-01-25 15:14:08 -0800";
layers = (
{
layerId = "E08CDE4C-5D6C-43D8-8149-5F9E51F0B944";
name = "Bold Condensed";
paths = (
{
closed = 1;
nodes = (
"339 1532 OFFCURVE",
"253 1423 OFFCURVE",
"253 1170 CURVE SMOOTH",
"253 1026 LINE",
"51 1026 LINE",
"51 919 LINE",
"253 919 LINE",
"253 -34 LINE SMOOTH",
"253 -194 OFFCURVE",
"190 -299 OFFCURVE",
"70 -328 CURVE",
"91 -449 LINE",
"330 -418 OFFCURVE",
"417 -261 OFFCURVE",
"417 -11 CURVE SMOOTH",
"417 919 LINE",
"665 919 LINE",
"665 1026 LINE",
"417 1026 LINE",
"417 1193 LINE SMOOTH",
"417 1344 OFFCURVE",
"467 1409 OFFCURVE",
"584 1409 CURVE SMOOTH",
"620 1409 OFFCURVE",
"658 1401 OFFCURVE",
"695 1392 CURVE",
"719 1499 LINE",
"655 1521 OFFCURVE",
"595 1532 OFFCURVE",
"541 1532 CURVE SMOOTH"
);
},
{
closed = 1;
nodes = (
"867 1496 LINE",
"867 300 LINE SMOOTH",
"867 126 OFFCURVE",
"965 -11 OFFCURVE",
"1172 -11 CURVE SMOOTH",
"1226 -11 OFFCURVE",
"1308 0 OFFCURVE",
"1389 25 CURVE",
"1364 153 LINE",
"1316 137 OFFCURVE",
"1255 124 OFFCURVE",
"1208 124 CURVE SMOOTH",
"1109 124 OFFCURVE",
"1031 178 OFFCURVE",
"1031 292 CURVE SMOOTH",
"1031 1526 LINE"
);
}
);
width = 1385;
}
);
unicode = FB02;
},
{
glyphname = uni0217;
lastChange = "2013-01-25 15:14:11 -0800";
layers = (
{
layerId = "E08CDE4C-5D6C-43D8-8149-5F9E51F0B944";
name = "Bold Condensed";
paths = (
{
closed = 1;
nodes = (
"855 1026 LINE",
"855 427 LINE SMOOTH",
"855 231 OFFCURVE",
"717 116 OFFCURVE",
"552 116 CURVE SMOOTH",
"431 116 OFFCURVE",
"310 169 OFFCURVE",
"315 365 CURVE SMOOTH",
"321 595 LINE SMOOTH",
"330 911 OFFCURVE",
"282 1026 OFFCURVE",
"282 1026 CURVE",
"117 1000 LINE",
"117 1000 OFFCURVE",
"165 871 OFFCURVE",
"156 582 CURVE SMOOTH",
"150 365 LINE SMOOTH",
"142 80 OFFCURVE",
"333 -22 OFFCURVE",
"527 -22 CURVE SMOOTH",
"685 -22 OFFCURVE",
"809 40 OFFCURVE",
"886 164 CURVE",
"913 53 OFFCURVE",
"1021 -4 OFFCURVE",
"1118 -4 CURVE",
"1153 139 LINE",
"1101 139 OFFCURVE",
"1019 170 OFFCURVE",
"1019 286 CURVE SMOOTH",
"1019 1026 LINE"
);
},
{
closed = 1;
nodes = (
"432 1454 OFFCURVE",
"332 1378 OFFCURVE",
"319 1218 CURVE",
"406 1218 LINE",
"421 1306 OFFCURVE",
"494 1347 OFFCURVE",
"596 1347 CURVE SMOOTH",
"698 1347 OFFCURVE",
"777 1302 OFFCURVE",
"797 1218 CURVE",
"883 1218 LINE",
"870 1372 OFFCURVE",
"769 1454 OFFCURVE",
"603 1454 CURVE SMOOTH"
);
}
);
width = 1201;
}
);
unicode = 0217;
},
{
glyphname = uni0216;
lastChange = "2013-01-25 15:14:08 -0800";
layers = (
{
layerId = "E08CDE4C-5D6C-43D8-8149-5F9E51F0B944";
name = "Bold Condensed";
paths = (
{
closed = 1;
nodes = (
"1165 1456 LINE",
"1165 539 LINE SMOOTH",
"1165 279 OFFCURVE",
"1026 123 OFFCURVE",
"774 123 CURVE SMOOTH",
"502 123 OFFCURVE",
"363 260 OFFCURVE",
"363 546 CURVE SMOOTH",
"363 1456 LINE",
"191 1456 LINE",
"191 541 LINE SMOOTH",
"191 157 OFFCURVE",
"392 -22 OFFCURVE",
"776 -22 CURVE SMOOTH",
"1138 -22 OFFCURVE",
"1334 191 OFFCURVE",
"1336 551 CURVE SMOOTH",
"1336 1456 LINE"
);
},
{
closed = 1;
nodes = (
"593 1884 OFFCURVE",
"493 1808 OFFCURVE",
"480 1648 CURVE",
"567 1648 LINE",
"582 1736 OFFCURVE",
"655 1777 OFFCURVE",
"757 1777 CURVE SMOOTH",
"859 1777 OFFCURVE",
"938 1732 OFFCURVE",
"958 1648 CURVE",
"1044 1648 LINE",
"1031 1802 OFFCURVE",
"930 1884 OFFCURVE",
"764 1884 CURVE SMOOTH"
);
}
